%TF.GenerationSoftware,KiCad,Pcbnew,7.0.7*%
%TF.CreationDate,2024-02-25T13:02:43-05:00*%
%TF.ProjectId,Rover Voltage Sense,526f7665-7220-4566-9f6c-746167652053,rev?*%
%TF.SameCoordinates,Original*%
%TF.FileFunction,Paste,Top*%
%TF.FilePolarity,Positive*%
%FSLAX46Y46*%
G04 Gerber Fmt 4.6, Leading zero omitted, Abs format (unit mm)*
G04 Created by KiCad (PCBNEW 7.0.7) date 2024-02-25 13:02:43*
%MOMM*%
%LPD*%
G01*
G04 APERTURE LIST*
G04 Aperture macros list*
%AMRoundRect*
0 Rectangle with rounded corners*
0 $1 Rounding radius*
0 $2 $3 $4 $5 $6 $7 $8 $9 X,Y pos of 4 corners*
0 Add a 4 corners polygon primitive as box body*
4,1,4,$2,$3,$4,$5,$6,$7,$8,$9,$2,$3,0*
0 Add four circle primitives for the rounded corners*
1,1,$1+$1,$2,$3*
1,1,$1+$1,$4,$5*
1,1,$1+$1,$6,$7*
1,1,$1+$1,$8,$9*
0 Add four rect primitives between the rounded corners*
20,1,$1+$1,$2,$3,$4,$5,0*
20,1,$1+$1,$4,$5,$6,$7,0*
20,1,$1+$1,$6,$7,$8,$9,0*
20,1,$1+$1,$8,$9,$2,$3,0*%
%AMFreePoly0*
4,1,17,0.356036,0.828536,0.357500,0.825000,0.357500,-0.125000,0.356036,-0.128536,0.352500,-0.130000,-0.352500,-0.130000,-0.356036,-0.128536,-0.357500,-0.125000,-0.357500,0.125000,-0.356036,0.128536,-0.352500,0.130000,0.097500,0.130000,0.097500,0.825000,0.098964,0.828536,0.102500,0.830000,0.352500,0.830000,0.356036,0.828536,0.356036,0.828536,$1*%
%AMFreePoly1*
4,1,17,0.356036,0.128536,0.357500,0.125000,0.357500,-0.825000,0.356036,-0.828536,0.352500,-0.830000,0.102500,-0.830000,0.098964,-0.828536,0.097500,-0.825000,0.097500,-0.130000,-0.352500,-0.130000,-0.356036,-0.128536,-0.357500,-0.125000,-0.357500,0.125000,-0.356036,0.128536,-0.352500,0.130000,0.352500,0.130000,0.356036,0.128536,0.356036,0.128536,$1*%
%AMFreePoly2*
4,1,41,0.273536,0.631036,0.275000,0.627500,0.275000,-0.627500,0.273536,-0.631036,0.270000,-0.632500,0.085000,-0.632500,0.085000,-1.072500,0.083536,-1.076036,0.080000,-1.077500,-0.170000,-1.077500,-0.173536,-1.076036,-0.175000,-1.072500,-0.175000,-0.632464,-0.870036,-0.627500,-0.871813,-0.626749,-0.873536,-0.626036,-0.873543,-0.626018,-0.873561,-0.626011,-0.874274,-0.624252,-0.875000,-0.622500,
-0.875000,-0.372500,-0.873536,-0.368964,-0.870000,-0.367500,-0.275000,-0.367500,-0.275000,-0.127500,-0.870000,-0.127500,-0.873536,-0.126036,-0.875000,-0.122500,-0.875000,0.127500,-0.873536,0.131036,-0.870000,0.132500,-0.275000,0.132500,-0.275000,0.372500,-0.870000,0.372500,-0.873536,0.373964,-0.875000,0.377500,-0.875000,0.627500,-0.873536,0.631036,-0.870000,0.632500,0.270000,0.632500,
0.273536,0.631036,0.273536,0.631036,$1*%
%AMFreePoly3*
4,1,41,0.873536,0.631036,0.875000,0.627500,0.875000,0.377500,0.873536,0.373964,0.870000,0.372500,0.275000,0.372500,0.275000,0.132500,0.870000,0.132500,0.873536,0.131036,0.875000,0.127500,0.875000,-0.122500,0.873536,-0.126036,0.870000,-0.127500,0.275000,-0.127500,0.275000,-0.367500,0.870000,-0.367500,0.873536,-0.368964,0.875000,-0.372500,0.875000,-0.622500,0.874274,-0.624252,
0.873561,-0.626011,0.873543,-0.626018,0.873536,-0.626036,0.871813,-0.626749,0.870036,-0.627500,0.175000,-0.632464,0.175000,-1.072500,0.173536,-1.076036,0.170000,-1.077500,-0.080000,-1.077500,-0.083536,-1.076036,-0.085000,-1.072500,-0.085000,-0.632500,-0.270000,-0.632500,-0.273536,-0.631036,-0.275000,-0.627500,-0.275000,0.627500,-0.273536,0.631036,-0.270000,0.632500,0.870000,0.632500,
0.873536,0.631036,0.873536,0.631036,$1*%
G04 Aperture macros list end*
%ADD10C,0.010000*%
%ADD11RoundRect,0.237500X0.237500X-0.287500X0.237500X0.287500X-0.237500X0.287500X-0.237500X-0.287500X0*%
%ADD12RoundRect,0.250000X-0.450000X0.350000X-0.450000X-0.350000X0.450000X-0.350000X0.450000X0.350000X0*%
%ADD13RoundRect,0.200000X-0.200000X-0.450000X0.200000X-0.450000X0.200000X0.450000X-0.200000X0.450000X0*%
%ADD14RoundRect,0.250001X-0.799999X-1.249999X0.799999X-1.249999X0.799999X1.249999X-0.799999X1.249999X0*%
%ADD15RoundRect,0.250000X0.337500X0.475000X-0.337500X0.475000X-0.337500X-0.475000X0.337500X-0.475000X0*%
%ADD16FreePoly0,270.000000*%
%ADD17RoundRect,0.062500X-0.062500X0.237500X-0.062500X-0.237500X0.062500X-0.237500X0.062500X0.237500X0*%
%ADD18FreePoly1,270.000000*%
%ADD19RoundRect,0.063750X-0.286250X0.063750X-0.286250X-0.063750X0.286250X-0.063750X0.286250X0.063750X0*%
%ADD20FreePoly2,0.000000*%
%ADD21RoundRect,0.062500X0.062500X-0.662500X0.062500X0.662500X-0.062500X0.662500X-0.062500X-0.662500X0*%
%ADD22FreePoly3,0.000000*%
%ADD23R,1.400000X0.300000*%
%ADD24RoundRect,0.075000X0.650000X0.075000X-0.650000X0.075000X-0.650000X-0.075000X0.650000X-0.075000X0*%
%ADD25RoundRect,0.200000X-0.450000X0.200000X-0.450000X-0.200000X0.450000X-0.200000X0.450000X0.200000X0*%
%ADD26RoundRect,0.250001X-1.249999X0.799999X-1.249999X-0.799999X1.249999X-0.799999X1.249999X0.799999X0*%
%ADD27RoundRect,0.200000X0.200000X0.450000X-0.200000X0.450000X-0.200000X-0.450000X0.200000X-0.450000X0*%
%ADD28RoundRect,0.250001X0.799999X1.249999X-0.799999X1.249999X-0.799999X-1.249999X0.799999X-1.249999X0*%
%ADD29RoundRect,0.200000X0.450000X-0.200000X0.450000X0.200000X-0.450000X0.200000X-0.450000X-0.200000X0*%
%ADD30RoundRect,0.250001X1.249999X-0.799999X1.249999X0.799999X-1.249999X0.799999X-1.249999X-0.799999X0*%
%ADD31RoundRect,0.237500X0.300000X0.237500X-0.300000X0.237500X-0.300000X-0.237500X0.300000X-0.237500X0*%
%ADD32RoundRect,0.237500X-0.300000X-0.237500X0.300000X-0.237500X0.300000X0.237500X-0.300000X0.237500X0*%
%ADD33RoundRect,0.250000X-0.350000X-0.450000X0.350000X-0.450000X0.350000X0.450000X-0.350000X0.450000X0*%
%ADD34RoundRect,0.250000X0.450000X-0.350000X0.450000X0.350000X-0.450000X0.350000X-0.450000X-0.350000X0*%
%ADD35RoundRect,0.150000X0.825000X0.150000X-0.825000X0.150000X-0.825000X-0.150000X0.825000X-0.150000X0*%
%ADD36RoundRect,0.237500X0.237500X-0.300000X0.237500X0.300000X-0.237500X0.300000X-0.237500X-0.300000X0*%
%ADD37RoundRect,0.250000X-0.337500X-0.475000X0.337500X-0.475000X0.337500X0.475000X-0.337500X0.475000X0*%
%ADD38RoundRect,0.250000X0.350000X0.450000X-0.350000X0.450000X-0.350000X-0.450000X0.350000X-0.450000X0*%
G04 APERTURE END LIST*
D10*
%TO.C,U16*%
X114196400Y-61180600D02*
X114446400Y-61180600D01*
X114446400Y-61180600D02*
X114446400Y-61780600D01*
X114446400Y-61780600D02*
X114196400Y-61780600D01*
X114196400Y-61780600D02*
X114196400Y-61180600D01*
X113951400Y-61180600D02*
X113701400Y-61180600D01*
X113701400Y-61180600D02*
X113701400Y-61780600D01*
X113701400Y-61780600D02*
X113951400Y-61780600D01*
X113951400Y-61780600D02*
X113951400Y-61180600D01*
X114946400Y-62125600D02*
X115646400Y-62125600D01*
X115646400Y-62125600D02*
X115646400Y-62380600D01*
X115646400Y-62380600D02*
X114946400Y-62380600D01*
X114946400Y-62380600D02*
X114946400Y-62125600D01*
X113201400Y-62125600D02*
X112501400Y-62125600D01*
X112501400Y-62125600D02*
X112501400Y-62380600D01*
X112501400Y-62380600D02*
X113201400Y-62380600D01*
X113201400Y-62380600D02*
X113201400Y-62125600D01*
X115646400Y-62880600D02*
X115146400Y-62880600D01*
X115146400Y-62880600D02*
X115146400Y-63130600D01*
X115146400Y-63130600D02*
X115646400Y-63130600D01*
X115646400Y-63130600D02*
X115646400Y-62880600D01*
X114506400Y-62880600D02*
X115046400Y-62880600D01*
X115046400Y-62880600D02*
X115046400Y-64135600D01*
X115046400Y-64135600D02*
X114506400Y-64135600D01*
X114506400Y-64135600D02*
X114506400Y-62880600D01*
X113641400Y-62880600D02*
X113101400Y-62880600D01*
X113101400Y-62880600D02*
X113101400Y-64135600D01*
X113101400Y-64135600D02*
X113641400Y-64135600D01*
X113641400Y-64135600D02*
X113641400Y-62880600D01*
X112501400Y-62880600D02*
X113001400Y-62880600D01*
X113001400Y-62880600D02*
X113001400Y-63130600D01*
X113001400Y-63130600D02*
X112501400Y-63130600D01*
X112501400Y-63130600D02*
X112501400Y-62880600D01*
X114196400Y-63130600D02*
X113946400Y-63130600D01*
X113946400Y-63130600D02*
X113946400Y-64580600D01*
X113946400Y-64580600D02*
X114196400Y-64580600D01*
X114196400Y-64580600D02*
X114196400Y-63130600D01*
X115646400Y-63380600D02*
X115146400Y-63380600D01*
X115146400Y-63380600D02*
X115146400Y-63630600D01*
X115146400Y-63630600D02*
X115646400Y-63630600D01*
X115646400Y-63630600D02*
X115646400Y-63380600D01*
X112501400Y-63380600D02*
X113001400Y-63380600D01*
X113001400Y-63380600D02*
X113001400Y-63630600D01*
X113001400Y-63630600D02*
X112501400Y-63630600D01*
X112501400Y-63630600D02*
X112501400Y-63380600D01*
X115646400Y-63880600D02*
X115146400Y-63880600D01*
X115146400Y-63880600D02*
X115146400Y-64130600D01*
X115146400Y-64130600D02*
X115646400Y-64130600D01*
X115646400Y-64130600D02*
X115646400Y-63880600D01*
X112501400Y-63880600D02*
X113001400Y-63880600D01*
X113001400Y-63880600D02*
X113001400Y-64130600D01*
X113001400Y-64130600D02*
X112501400Y-64130600D01*
X112501400Y-64130600D02*
X112501400Y-63880600D01*
X114696400Y-64330600D02*
X114946400Y-64330600D01*
X114946400Y-64330600D02*
X114946400Y-64580600D01*
X114946400Y-64580600D02*
X114696400Y-64580600D01*
X114696400Y-64580600D02*
X114696400Y-64330600D01*
X113451400Y-64330600D02*
X113201400Y-64330600D01*
X113201400Y-64330600D02*
X113201400Y-64580600D01*
X113201400Y-64580600D02*
X113451400Y-64580600D01*
X113451400Y-64580600D02*
X113451400Y-64330600D01*
X113451400Y-61885600D02*
X112501400Y-61885600D01*
X112501400Y-61635600D01*
X113201400Y-61635600D01*
X113201400Y-61180600D01*
X113451400Y-61180600D01*
X113451400Y-61885600D01*
%TD*%
D11*
%TO.C,D1*%
X139000000Y-28175000D03*
X139000000Y-26425000D03*
%TD*%
D12*
%TO.C,R22*%
X139000000Y-22500000D03*
X139000000Y-24500000D03*
%TD*%
D13*
%TO.C,J8*%
X51846000Y-79825400D03*
X53096000Y-79825400D03*
X54346000Y-79825400D03*
D14*
X49296000Y-82575400D03*
X56896000Y-82575400D03*
%TD*%
D15*
%TO.C,C41*%
X79949400Y-62057000D03*
X77874400Y-62057000D03*
%TD*%
D16*
%TO.C,U16*%
X114821400Y-61533100D03*
D17*
X114321400Y-61480600D03*
X113826400Y-61480600D03*
D18*
X113326400Y-61533100D03*
D19*
X112851400Y-62253100D03*
D20*
X113371400Y-63508100D03*
D21*
X114071400Y-63855600D03*
D22*
X114776400Y-63508100D03*
D19*
X115296400Y-62253100D03*
%TD*%
D23*
%TO.C,U1*%
X67366700Y-36074600D03*
X67366700Y-36574600D03*
X67366700Y-37074600D03*
X67366700Y-37574600D03*
X67366700Y-38074600D03*
X71766700Y-38074600D03*
X71766700Y-37574600D03*
X71766700Y-37074600D03*
X71766700Y-36574600D03*
X71766700Y-36074600D03*
%TD*%
D24*
%TO.C,U15*%
X84887600Y-70926200D03*
X84887600Y-70426200D03*
X84887600Y-69926200D03*
X84887600Y-69426200D03*
X84887600Y-68926200D03*
X80487600Y-68926200D03*
X80487600Y-69426200D03*
X80487600Y-69926200D03*
X80487600Y-70426200D03*
X80487600Y-70926200D03*
%TD*%
D25*
%TO.C,J2*%
X38337400Y-44246800D03*
X38337400Y-45496800D03*
D26*
X35587400Y-41696800D03*
X35587400Y-48046800D03*
%TD*%
D15*
%TO.C,C38*%
X64816900Y-66121000D03*
X62741900Y-66121000D03*
%TD*%
D25*
%TO.C,J5*%
X49958400Y-37830600D03*
X49958400Y-39080600D03*
D26*
X47208400Y-35280600D03*
X47208400Y-41630600D03*
%TD*%
D12*
%TO.C,R21*%
X89810500Y-60534800D03*
X89810500Y-62534800D03*
%TD*%
D15*
%TO.C,C37*%
X64832500Y-56658000D03*
X62757500Y-56658000D03*
%TD*%
D27*
%TO.C,J13*%
X58360000Y-24132000D03*
X57110000Y-24132000D03*
X55860000Y-24132000D03*
D28*
X60910000Y-21382000D03*
X53310000Y-21382000D03*
%TD*%
D29*
%TO.C,J14*%
X133370000Y-59543000D03*
X133370000Y-58293000D03*
X133370000Y-57043000D03*
X133370000Y-55793000D03*
D30*
X136120000Y-62093000D03*
X136120000Y-53243000D03*
%TD*%
D25*
%TO.C,J3*%
X38379400Y-56692800D03*
X38379400Y-57942800D03*
D26*
X35629400Y-54142800D03*
X35629400Y-60492800D03*
%TD*%
D23*
%TO.C,U9*%
X82733700Y-40579800D03*
X82733700Y-41079800D03*
X82733700Y-41579800D03*
X82733700Y-42079800D03*
X82733700Y-42579800D03*
X87133700Y-42579800D03*
X87133700Y-42079800D03*
X87133700Y-41579800D03*
X87133700Y-41079800D03*
X87133700Y-40579800D03*
%TD*%
D31*
%TO.C,C10*%
X53949600Y-42494200D03*
X52224600Y-42494200D03*
%TD*%
D32*
%TO.C,C1*%
X40696400Y-28605800D03*
X42421400Y-28605800D03*
%TD*%
D33*
%TO.C,R16*%
X52075500Y-49911000D03*
X54075500Y-49911000D03*
%TD*%
D15*
%TO.C,C36*%
X64867700Y-47107600D03*
X62792700Y-47107600D03*
%TD*%
D23*
%TO.C,U3*%
X67325700Y-45583600D03*
X67325700Y-46083600D03*
X67325700Y-46583600D03*
X67325700Y-47083600D03*
X67325700Y-47583600D03*
X71725700Y-47583600D03*
X71725700Y-47083600D03*
X71725700Y-46583600D03*
X71725700Y-46083600D03*
X71725700Y-45583600D03*
%TD*%
D33*
%TO.C,R13*%
X52067200Y-37465000D03*
X54067200Y-37465000D03*
%TD*%
%TO.C,R25*%
X114047800Y-66098900D03*
X116047800Y-66098900D03*
%TD*%
D34*
%TO.C,R27*%
X109967800Y-60088500D03*
X109967800Y-58088500D03*
%TD*%
D32*
%TO.C,C3*%
X40694200Y-41163400D03*
X42419200Y-41163400D03*
%TD*%
D12*
%TO.C,R3*%
X74306700Y-36090600D03*
X74306700Y-38090600D03*
%TD*%
D32*
%TO.C,C5*%
X40743800Y-53543200D03*
X42468800Y-53543200D03*
%TD*%
D23*
%TO.C,U5*%
X67290500Y-55134000D03*
X67290500Y-55634000D03*
X67290500Y-56134000D03*
X67290500Y-56634000D03*
X67290500Y-57134000D03*
X71690500Y-57134000D03*
X71690500Y-56634000D03*
X71690500Y-56134000D03*
X71690500Y-55634000D03*
X71690500Y-55134000D03*
%TD*%
D32*
%TO.C,C13*%
X52299700Y-59842400D03*
X54024700Y-59842400D03*
%TD*%
D35*
%TO.C,U17*%
X100406200Y-65709800D03*
X100406200Y-64439800D03*
X100406200Y-63169800D03*
X100406200Y-61899800D03*
X100406200Y-60629800D03*
X100406200Y-59359800D03*
X100406200Y-58089800D03*
X100406200Y-56819800D03*
X95456200Y-56819800D03*
X95456200Y-58089800D03*
X95456200Y-59359800D03*
X95456200Y-60629800D03*
X95456200Y-61899800D03*
X95456200Y-63169800D03*
X95456200Y-64439800D03*
X95456200Y-65709800D03*
%TD*%
D12*
%TO.C,R12*%
X74300900Y-64675000D03*
X74300900Y-66675000D03*
%TD*%
D31*
%TO.C,C23*%
X70420500Y-59198000D03*
X68695500Y-59198000D03*
%TD*%
%TO.C,C27*%
X85873500Y-64566800D03*
X84148500Y-64566800D03*
%TD*%
%TO.C,C6*%
X42493100Y-61442600D03*
X40768100Y-61442600D03*
%TD*%
D15*
%TO.C,C35*%
X64908700Y-37598600D03*
X62833700Y-37598600D03*
%TD*%
D31*
%TO.C,C25*%
X85796200Y-44627800D03*
X84071200Y-44627800D03*
%TD*%
D27*
%TO.C,J11*%
X104568000Y-24110000D03*
X103318000Y-24110000D03*
X102068000Y-24110000D03*
D28*
X107118000Y-21360000D03*
X99518000Y-21360000D03*
%TD*%
D23*
%TO.C,U13*%
X82784500Y-60518800D03*
X82784500Y-61018800D03*
X82784500Y-61518800D03*
X82784500Y-62018800D03*
X82784500Y-62518800D03*
X87184500Y-62518800D03*
X87184500Y-62018800D03*
X87184500Y-61518800D03*
X87184500Y-61018800D03*
X87184500Y-60518800D03*
%TD*%
D34*
%TO.C,R26*%
X108342200Y-64050900D03*
X108342200Y-62050900D03*
%TD*%
D25*
%TO.C,J4*%
X38459000Y-69230400D03*
X38459000Y-70480400D03*
D26*
X35709000Y-66680400D03*
X35709000Y-73030400D03*
%TD*%
D27*
%TO.C,J19*%
X70552000Y-24132000D03*
X69302000Y-24132000D03*
X68052000Y-24132000D03*
X66802000Y-24132000D03*
D28*
X73102000Y-21382000D03*
X64252000Y-21382000D03*
%TD*%
D12*
%TO.C,R6*%
X74351700Y-45599600D03*
X74351700Y-47599600D03*
%TD*%
D33*
%TO.C,R17*%
X52075500Y-51947000D03*
X54075500Y-51947000D03*
%TD*%
D31*
%TO.C,C24*%
X70337400Y-68707000D03*
X68612400Y-68707000D03*
%TD*%
D36*
%TO.C,C18*%
X111466400Y-63761000D03*
X111466400Y-62036000D03*
%TD*%
D33*
%TO.C,R4*%
X40446800Y-43932000D03*
X42446800Y-43932000D03*
%TD*%
D32*
%TO.C,C11*%
X52248900Y-47142400D03*
X53973900Y-47142400D03*
%TD*%
D33*
%TO.C,R1*%
X40481400Y-31373300D03*
X42481400Y-31373300D03*
%TD*%
D37*
%TO.C,C32*%
X77909600Y-40124000D03*
X79984600Y-40124000D03*
%TD*%
D12*
%TO.C,R18*%
X89769500Y-50509800D03*
X89769500Y-52509800D03*
%TD*%
D37*
%TO.C,C16*%
X117255200Y-62598400D03*
X119330200Y-62598400D03*
%TD*%
%TO.C,C33*%
X77960400Y-50038000D03*
X80035400Y-50038000D03*
%TD*%
D29*
%TO.C,J22*%
X133328000Y-69332000D03*
X133328000Y-68082000D03*
D30*
X136078000Y-71882000D03*
X136078000Y-65532000D03*
%TD*%
D33*
%TO.C,R5*%
X40446800Y-45938600D03*
X42446800Y-45938600D03*
%TD*%
D15*
%TO.C,C40*%
X80035400Y-52032000D03*
X77960400Y-52032000D03*
%TD*%
D37*
%TO.C,C28*%
X62833700Y-35566600D03*
X64908700Y-35566600D03*
%TD*%
D32*
%TO.C,C9*%
X52326200Y-34696400D03*
X54051200Y-34696400D03*
%TD*%
D33*
%TO.C,R2*%
X40481400Y-33405300D03*
X42481400Y-33405300D03*
%TD*%
D36*
%TO.C,C20*%
X103632000Y-58544800D03*
X103632000Y-56819800D03*
%TD*%
D13*
%TO.C,J9*%
X74950000Y-79734000D03*
X76200000Y-79734000D03*
X77450000Y-79734000D03*
D14*
X72400000Y-82484000D03*
X80000000Y-82484000D03*
%TD*%
D13*
%TO.C,J18*%
X117856000Y-79800000D03*
X119106000Y-79800000D03*
X120356000Y-79800000D03*
X121606000Y-79800000D03*
D14*
X115306000Y-82550000D03*
X124156000Y-82550000D03*
%TD*%
D23*
%TO.C,U7*%
X67274900Y-64659000D03*
X67274900Y-65159000D03*
X67274900Y-65659000D03*
X67274900Y-66159000D03*
X67274900Y-66659000D03*
X71674900Y-66659000D03*
X71674900Y-66159000D03*
X71674900Y-65659000D03*
X71674900Y-65159000D03*
X71674900Y-64659000D03*
%TD*%
D31*
%TO.C,C2*%
X42521900Y-36362800D03*
X40796900Y-36362800D03*
%TD*%
%TO.C,C14*%
X53999300Y-67716400D03*
X52274300Y-67716400D03*
%TD*%
%TO.C,C26*%
X85832500Y-54541800D03*
X84107500Y-54541800D03*
%TD*%
D15*
%TO.C,C19*%
X112041200Y-66098900D03*
X109966200Y-66098900D03*
%TD*%
D33*
%TO.C,R10*%
X40568400Y-68814000D03*
X42568400Y-68814000D03*
%TD*%
D13*
%TO.C,J17*%
X86009000Y-79734000D03*
X87259000Y-79734000D03*
X88509000Y-79734000D03*
X89759000Y-79734000D03*
D14*
X83459000Y-82484000D03*
X92309000Y-82484000D03*
%TD*%
D12*
%TO.C,R9*%
X74230500Y-55166000D03*
X74230500Y-57166000D03*
%TD*%
D15*
%TO.C,C39*%
X79984600Y-42118000D03*
X77909600Y-42118000D03*
%TD*%
D32*
%TO.C,C7*%
X40894200Y-66045400D03*
X42619200Y-66045400D03*
%TD*%
D13*
%TO.C,J10*%
X106914000Y-79800000D03*
X108164000Y-79800000D03*
X109414000Y-79800000D03*
D14*
X104364000Y-82550000D03*
X111964000Y-82550000D03*
%TD*%
D37*
%TO.C,C30*%
X62757500Y-54626000D03*
X64832500Y-54626000D03*
%TD*%
D31*
%TO.C,C22*%
X70455700Y-49631600D03*
X68730700Y-49631600D03*
%TD*%
D37*
%TO.C,C34*%
X77874400Y-60025000D03*
X79949400Y-60025000D03*
%TD*%
D31*
%TO.C,C12*%
X54024700Y-54965600D03*
X52299700Y-54965600D03*
%TD*%
D33*
%TO.C,R7*%
X40471600Y-56311800D03*
X42471600Y-56311800D03*
%TD*%
D31*
%TO.C,C8*%
X42568400Y-73919400D03*
X40843400Y-73919400D03*
%TD*%
D27*
%TO.C,J21*%
X116623000Y-24110000D03*
X115373000Y-24110000D03*
X114123000Y-24110000D03*
X112873000Y-24110000D03*
D28*
X119173000Y-21360000D03*
X110323000Y-21360000D03*
%TD*%
D32*
%TO.C,C15*%
X76353600Y-69250200D03*
X78078600Y-69250200D03*
%TD*%
D12*
%TO.C,R15*%
X89759700Y-40595800D03*
X89759700Y-42595800D03*
%TD*%
D13*
%TO.C,J16*%
X62788000Y-79800000D03*
X64038000Y-79800000D03*
X65288000Y-79800000D03*
X66538000Y-79800000D03*
D14*
X60238000Y-82550000D03*
X69088000Y-82550000D03*
%TD*%
D36*
%TO.C,C17*%
X113168200Y-60128800D03*
X113168200Y-58403800D03*
%TD*%
D31*
%TO.C,C21*%
X70496700Y-40106600D03*
X68771700Y-40106600D03*
%TD*%
D33*
%TO.C,R14*%
X52076600Y-39471600D03*
X54076600Y-39471600D03*
%TD*%
%TO.C,R19*%
X52050100Y-62611000D03*
X54050100Y-62611000D03*
%TD*%
%TO.C,R8*%
X40478200Y-58369200D03*
X42478200Y-58369200D03*
%TD*%
D37*
%TO.C,C31*%
X62741900Y-64127000D03*
X64816900Y-64127000D03*
%TD*%
D33*
%TO.C,R11*%
X40568400Y-70846000D03*
X42568400Y-70846000D03*
%TD*%
D23*
%TO.C,U11*%
X82784500Y-50485800D03*
X82784500Y-50985800D03*
X82784500Y-51485800D03*
X82784500Y-51985800D03*
X82784500Y-52485800D03*
X87184500Y-52485800D03*
X87184500Y-51985800D03*
X87184500Y-51485800D03*
X87184500Y-50985800D03*
X87184500Y-50485800D03*
%TD*%
D25*
%TO.C,J7*%
X49958400Y-62976600D03*
X49958400Y-64226600D03*
D26*
X47208400Y-60426600D03*
X47208400Y-66776600D03*
%TD*%
D25*
%TO.C,J1*%
X38357400Y-31663800D03*
X38357400Y-32913800D03*
D26*
X35607400Y-29113800D03*
X35607400Y-35463800D03*
%TD*%
D29*
%TO.C,J15*%
X133304000Y-47244000D03*
X133304000Y-45994000D03*
X133304000Y-44744000D03*
X133304000Y-43494000D03*
D30*
X136054000Y-49794000D03*
X136054000Y-40944000D03*
%TD*%
D37*
%TO.C,C29*%
X62792700Y-45147600D03*
X64867700Y-45147600D03*
%TD*%
D31*
%TO.C,C4*%
X42472200Y-48961200D03*
X40747200Y-48961200D03*
%TD*%
D27*
%TO.C,J20*%
X93666000Y-24132000D03*
X92416000Y-24132000D03*
X91166000Y-24132000D03*
X89916000Y-24132000D03*
D28*
X96216000Y-21382000D03*
X87366000Y-21382000D03*
%TD*%
D25*
%TO.C,J6*%
X49958400Y-50276600D03*
X49958400Y-51526600D03*
D26*
X47208400Y-47726600D03*
X47208400Y-54076600D03*
%TD*%
D38*
%TO.C,R24*%
X89275600Y-69758200D03*
X87275600Y-69758200D03*
%TD*%
D33*
%TO.C,R20*%
X52050100Y-64617600D03*
X54050100Y-64617600D03*
%TD*%
D27*
%TO.C,J12*%
X81474000Y-24132000D03*
X80224000Y-24132000D03*
X78974000Y-24132000D03*
D28*
X84024000Y-21382000D03*
X76424000Y-21382000D03*
%TD*%
M02*
