%TF.GenerationSoftware,KiCad,Pcbnew,7.0.7*%
%TF.CreationDate,2024-02-25T13:02:43-05:00*%
%TF.ProjectId,Rover Voltage Sense,526f7665-7220-4566-9f6c-746167652053,rev?*%
%TF.SameCoordinates,Original*%
%TF.FileFunction,Soldermask,Bot*%
%TF.FilePolarity,Negative*%
%FSLAX46Y46*%
G04 Gerber Fmt 4.6, Leading zero omitted, Abs format (unit mm)*
G04 Created by KiCad (PCBNEW 7.0.7) date 2024-02-25 13:02:43*
%MOMM*%
%LPD*%
G01*
G04 APERTURE LIST*
G04 Aperture macros list*
%AMRoundRect*
0 Rectangle with rounded corners*
0 $1 Rounding radius*
0 $2 $3 $4 $5 $6 $7 $8 $9 X,Y pos of 4 corners*
0 Add a 4 corners polygon primitive as box body*
4,1,4,$2,$3,$4,$5,$6,$7,$8,$9,$2,$3,0*
0 Add four circle primitives for the rounded corners*
1,1,$1+$1,$2,$3*
1,1,$1+$1,$4,$5*
1,1,$1+$1,$6,$7*
1,1,$1+$1,$8,$9*
0 Add four rect primitives between the rounded corners*
20,1,$1+$1,$2,$3,$4,$5,0*
20,1,$1+$1,$4,$5,$6,$7,0*
20,1,$1+$1,$6,$7,$8,$9,0*
20,1,$1+$1,$8,$9,$2,$3,0*%
G04 Aperture macros list end*
%ADD10C,3.200000*%
%ADD11O,1.727200X1.727200*%
%ADD12R,1.727200X1.727200*%
%ADD13C,1.000000*%
%ADD14RoundRect,0.250001X-0.499999X0.499999X-0.499999X-0.499999X0.499999X-0.499999X0.499999X0.499999X0*%
%ADD15C,1.500000*%
G04 APERTURE END LIST*
D10*
%TO.C,A1*%
X46990000Y-76200000D03*
X48260000Y-27940000D03*
D11*
X60960000Y-76200000D03*
D10*
X99060000Y-43180000D03*
X99060000Y-71120000D03*
X123190000Y-27940000D03*
X129540000Y-76200000D03*
D11*
X68580000Y-76200000D03*
X71120000Y-76200000D03*
X99187000Y-48260000D03*
X127000000Y-27940000D03*
X129540000Y-27940000D03*
X83820000Y-76200000D03*
X86360000Y-76200000D03*
X88900000Y-76200000D03*
X91440000Y-76200000D03*
X93980000Y-76200000D03*
X96520000Y-76200000D03*
X99060000Y-76200000D03*
X101600000Y-76200000D03*
X106680000Y-76200000D03*
X109220000Y-76200000D03*
X111760000Y-76200000D03*
X114300000Y-76200000D03*
X116840000Y-76200000D03*
X119380000Y-76200000D03*
X121920000Y-76200000D03*
X124460000Y-76200000D03*
X56896000Y-27940000D03*
X96520000Y-27940000D03*
X93980000Y-27940000D03*
X91440000Y-27940000D03*
X88900000Y-27940000D03*
X86360000Y-27940000D03*
X83820000Y-27940000D03*
X81280000Y-27940000D03*
X78740000Y-27940000D03*
X74676000Y-27940000D03*
X72136000Y-27940000D03*
X69596000Y-27940000D03*
X67056000Y-27940000D03*
X64516000Y-27940000D03*
X61976000Y-27940000D03*
X101600000Y-27940000D03*
X104140000Y-27940000D03*
X106680000Y-27940000D03*
X109220000Y-27940000D03*
X111760000Y-27940000D03*
X114300000Y-27940000D03*
X116840000Y-27940000D03*
X119380000Y-27940000D03*
X127000000Y-30480000D03*
X129540000Y-30480000D03*
X127000000Y-33020000D03*
X129540000Y-33020000D03*
X127000000Y-35560000D03*
X129540000Y-35560000D03*
X127000000Y-38100000D03*
X129540000Y-38100000D03*
X127000000Y-40640000D03*
X129540000Y-40640000D03*
X127000000Y-43180000D03*
X129540000Y-43180000D03*
X127000000Y-45720000D03*
X129540000Y-45720000D03*
X127000000Y-48260000D03*
X129540000Y-48260000D03*
X127000000Y-50800000D03*
X129540000Y-50800000D03*
X127000000Y-53340000D03*
X129540000Y-53340000D03*
X127000000Y-55880000D03*
X129540000Y-55880000D03*
X127000000Y-58420000D03*
X129540000Y-58420000D03*
X127000000Y-60960000D03*
X129540000Y-60960000D03*
X127000000Y-63500000D03*
X129540000Y-63500000D03*
X127000000Y-66040000D03*
X129540000Y-66040000D03*
X127000000Y-68580000D03*
X129540000Y-68580000D03*
D12*
X59436000Y-27940000D03*
X73660000Y-76200000D03*
X76200000Y-76200000D03*
X99187000Y-53340000D03*
X127000000Y-71120000D03*
X129540000Y-71120000D03*
D11*
X63500000Y-76200000D03*
X96647000Y-48260000D03*
X99187000Y-50800000D03*
X66040000Y-76200000D03*
X96647000Y-53340000D03*
X96647000Y-50800000D03*
X51816000Y-27940000D03*
X54356000Y-27940000D03*
X78740000Y-76200000D03*
%TD*%
D13*
%TO.C,J23*%
X34800000Y-77600000D03*
X34800000Y-83600000D03*
D14*
X38740000Y-80600000D03*
D15*
X35740000Y-80600000D03*
%TD*%
M02*
