M48
; DRILL file {KiCad 7.0.7} date 2024 February 25, Sunday 13:03:23
; FORMAT={-:-/ absolute / metric / decimal}
; #@! TF.CreationDate,2024-02-25T13:03:23-05:00
; #@! TF.GenerationSoftware,Kicad,Pcbnew,7.0.7
; #@! TF.FileFunction,Plated,1,4,PTH
FMAT,2
METRIC
; #@! TA.AperFunction,Plated,PTH,ViaDrill
T1C0.400
; #@! TA.AperFunction,Plated,PTH,ComponentDrill
T2C1.000
; #@! TA.AperFunction,Plated,PTH,ComponentDrill
T3C1.016
%
G90
G05
T1
X39.472Y-28.6
X39.472Y-41.173
X39.522Y-48.971
X39.522Y-53.543
X39.548Y-61.443
X39.573Y-36.347
X39.624Y-73.914
X39.675Y-66.04
X51.003Y-42.494
X51.029Y-47.142
X51.054Y-67.716
X51.079Y-34.747
X51.079Y-54.966
X51.079Y-59.842
X54.356Y-78.613
X55.626Y-37.465
X55.626Y-39.497
X55.626Y-49.911
X55.626Y-51.816
X55.626Y-62.484
X55.626Y-64.516
X55.88Y-25.4
X61.4Y-55.65
X61.475Y-65.125
X61.5Y-46.125
X61.575Y-36.575
X62.075Y-53.15
X62.1Y-43.725
X62.1Y-62.675
X62.8Y-78.525
X63.5Y-67.7
X63.9Y-48.5
X63.9Y-58.1
X64.033Y-78.55
X64.1Y-40.5
X64.9Y-34.175
X65.278Y-78.537
X66.548Y-78.562
X66.802Y-25.381
X68.072Y-25.4
X68.58Y-66.7
X68.59Y-56.667
X68.625Y-47.142
X68.666Y-37.592
X68.775Y-41.25
X69.342Y-25.381
X69.5Y-50.7
X69.918Y-57.918
X70.358Y-55.626
X70.358Y-65.278
X70.375Y-66.9
X70.4Y-38.301
X70.426Y-46.076
X70.45Y-47.975
X70.46Y-36.601
X71.55Y-68.725
X71.6Y-24.125
X71.625Y-59.15
X71.675Y-49.625
X71.675Y-54.375
X71.7Y-40.4
X71.7Y-57.875
X71.725Y-44.825
X74.219Y-58.445
X74.225Y-53.95
X74.371Y-48.895
X75.2Y-69.2
X75.5Y-59.075
X75.65Y-45.6
X75.675Y-36.1
X75.692Y-66.675
X75.717Y-38.202
X76.6Y-41.1
X76.6Y-61.05
X76.7Y-51.0
X77.47Y-78.486
X78.1Y-58.6
X78.6Y-70.7
X78.994Y-25.4
X79.55Y-63.65
X80.772Y-63.627
X80.772Y-64.77
X80.775Y-46.05
X80.797Y-43.612
X80.797Y-44.856
X80.827Y-37.023
X80.899Y-53.594
X80.899Y-54.737
X80.9Y-55.9
X81.839Y-70.434
X81.839Y-71.434
X82.4Y-68.75
X83.439Y-69.977
X83.975Y-49.45
X84.033Y-42.113
X84.084Y-51.994
X84.099Y-62.56
X84.1Y-46.0
X84.1Y-56.0
X85.45Y-63.35
X85.8Y-45.8
X85.834Y-41.072
X85.852Y-61.019
X85.885Y-51.0
X86.0Y-78.475
X86.309Y-71.577
X87.175Y-49.725
X87.2Y-59.775
X87.249Y-78.486
X87.5Y-53.6
X87.55Y-43.825
X88.519Y-78.486
X89.738Y-78.484
X89.789Y-43.942
X89.789Y-53.848
X89.789Y-63.881
X89.916Y-25.4
X90.375Y-66.725
X91.15Y-50.525
X91.186Y-25.4
X91.225Y-60.55
X91.3Y-41.775
X92.3Y-69.75
X92.431Y-25.4
X93.726Y-56.769
X93.726Y-58.039
X93.726Y-59.309
X93.726Y-60.579
X93.726Y-61.849
X93.726Y-63.119
X93.726Y-64.389
X94.7Y-24.125
X94.896Y-55.631
X98.831Y-56.845
X98.831Y-58.115
X98.831Y-59.385
X98.831Y-60.681
X98.831Y-61.951
X98.831Y-63.195
X98.831Y-64.491
X98.831Y-65.761
X102.108Y-25.4
X104.8Y-56.845
X104.8Y-58.496
X106.95Y-64.125
X107.05Y-66.15
X108.698Y-66.099
X109.474Y-78.613
X111.356Y-58.104
X112.878Y-25.375
X114.083Y-62.39
X114.173Y-25.4
X114.331Y-58.404
X115.392Y-25.375
X116.625Y-25.4
X117.25Y-64.025
X117.875Y-78.525
X119.33Y-63.995
X120.396Y-78.562
X124.943Y-52.172
X124.968Y-53.315
X131.95Y-47.275
X131.953Y-45.974
X131.953Y-68.072
X131.953Y-69.342
X132.075Y-57.05
X132.08Y-55.753
X139.0Y-21.0
X139.0Y-29.5
T2
X35.74Y-80.6
X38.74Y-80.6
T3
X51.816Y-27.94
X54.356Y-27.94
X56.896Y-27.94
X59.436Y-27.94
X60.96Y-76.2
X61.976Y-27.94
X63.5Y-76.2
X64.516Y-27.94
X66.04Y-76.2
X67.056Y-27.94
X68.58Y-76.2
X69.596Y-27.94
X71.12Y-76.2
X72.136Y-27.94
X73.66Y-76.2
X74.676Y-27.94
X76.2Y-76.2
X78.74Y-27.94
X78.74Y-76.2
X81.28Y-27.94
X83.82Y-27.94
X83.82Y-76.2
X86.36Y-27.94
X86.36Y-76.2
X88.9Y-27.94
X88.9Y-76.2
X91.44Y-27.94
X91.44Y-76.2
X93.98Y-27.94
X93.98Y-76.2
X96.52Y-27.94
X96.52Y-76.2
X96.647Y-48.26
X96.647Y-50.8
X96.647Y-53.34
X99.06Y-76.2
X99.187Y-48.26
X99.187Y-50.8
X99.187Y-53.34
X101.6Y-27.94
X101.6Y-76.2
X104.14Y-27.94
X106.68Y-27.94
X106.68Y-76.2
X109.22Y-27.94
X109.22Y-76.2
X111.76Y-27.94
X111.76Y-76.2
X114.3Y-27.94
X114.3Y-76.2
X116.84Y-27.94
X116.84Y-76.2
X119.38Y-27.94
X119.38Y-76.2
X121.92Y-76.2
X124.46Y-76.2
X127.0Y-27.94
X127.0Y-30.48
X127.0Y-33.02
X127.0Y-35.56
X127.0Y-38.1
X127.0Y-40.64
X127.0Y-43.18
X127.0Y-45.72
X127.0Y-48.26
X127.0Y-50.8
X127.0Y-53.34
X127.0Y-55.88
X127.0Y-58.42
X127.0Y-60.96
X127.0Y-63.5
X127.0Y-66.04
X127.0Y-68.58
X127.0Y-71.12
X129.54Y-27.94
X129.54Y-30.48
X129.54Y-33.02
X129.54Y-35.56
X129.54Y-38.1
X129.54Y-40.64
X129.54Y-43.18
X129.54Y-45.72
X129.54Y-48.26
X129.54Y-50.8
X129.54Y-53.34
X129.54Y-55.88
X129.54Y-58.42
X129.54Y-60.96
X129.54Y-63.5
X129.54Y-66.04
X129.54Y-68.58
X129.54Y-71.12
T0
M30
