%TF.GenerationSoftware,KiCad,Pcbnew,7.0.7*%
%TF.CreationDate,2024-02-25T13:02:43-05:00*%
%TF.ProjectId,Rover Voltage Sense,526f7665-7220-4566-9f6c-746167652053,rev?*%
%TF.SameCoordinates,Original*%
%TF.FileFunction,Legend,Top*%
%TF.FilePolarity,Positive*%
%FSLAX46Y46*%
G04 Gerber Fmt 4.6, Leading zero omitted, Abs format (unit mm)*
G04 Created by KiCad (PCBNEW 7.0.7) date 2024-02-25 13:02:43*
%MOMM*%
%LPD*%
G01*
G04 APERTURE LIST*
G04 Aperture macros list*
%AMRoundRect*
0 Rectangle with rounded corners*
0 $1 Rounding radius*
0 $2 $3 $4 $5 $6 $7 $8 $9 X,Y pos of 4 corners*
0 Add a 4 corners polygon primitive as box body*
4,1,4,$2,$3,$4,$5,$6,$7,$8,$9,$2,$3,0*
0 Add four circle primitives for the rounded corners*
1,1,$1+$1,$2,$3*
1,1,$1+$1,$4,$5*
1,1,$1+$1,$6,$7*
1,1,$1+$1,$8,$9*
0 Add four rect primitives between the rounded corners*
20,1,$1+$1,$2,$3,$4,$5,0*
20,1,$1+$1,$4,$5,$6,$7,0*
20,1,$1+$1,$6,$7,$8,$9,0*
20,1,$1+$1,$8,$9,$2,$3,0*%
%AMFreePoly0*
4,1,17,0.356036,0.828536,0.357500,0.825000,0.357500,-0.125000,0.356036,-0.128536,0.352500,-0.130000,-0.352500,-0.130000,-0.356036,-0.128536,-0.357500,-0.125000,-0.357500,0.125000,-0.356036,0.128536,-0.352500,0.130000,0.097500,0.130000,0.097500,0.825000,0.098964,0.828536,0.102500,0.830000,0.352500,0.830000,0.356036,0.828536,0.356036,0.828536,$1*%
%AMFreePoly1*
4,1,17,0.356036,0.128536,0.357500,0.125000,0.357500,-0.825000,0.356036,-0.828536,0.352500,-0.830000,0.102500,-0.830000,0.098964,-0.828536,0.097500,-0.825000,0.097500,-0.130000,-0.352500,-0.130000,-0.356036,-0.128536,-0.357500,-0.125000,-0.357500,0.125000,-0.356036,0.128536,-0.352500,0.130000,0.352500,0.130000,0.356036,0.128536,0.356036,0.128536,$1*%
%AMFreePoly2*
4,1,41,0.273536,0.631036,0.275000,0.627500,0.275000,-0.627500,0.273536,-0.631036,0.270000,-0.632500,0.085000,-0.632500,0.085000,-1.072500,0.083536,-1.076036,0.080000,-1.077500,-0.170000,-1.077500,-0.173536,-1.076036,-0.175000,-1.072500,-0.175000,-0.632464,-0.870036,-0.627500,-0.871813,-0.626749,-0.873536,-0.626036,-0.873543,-0.626018,-0.873561,-0.626011,-0.874274,-0.624252,-0.875000,-0.622500,
-0.875000,-0.372500,-0.873536,-0.368964,-0.870000,-0.367500,-0.275000,-0.367500,-0.275000,-0.127500,-0.870000,-0.127500,-0.873536,-0.126036,-0.875000,-0.122500,-0.875000,0.127500,-0.873536,0.131036,-0.870000,0.132500,-0.275000,0.132500,-0.275000,0.372500,-0.870000,0.372500,-0.873536,0.373964,-0.875000,0.377500,-0.875000,0.627500,-0.873536,0.631036,-0.870000,0.632500,0.270000,0.632500,
0.273536,0.631036,0.273536,0.631036,$1*%
%AMFreePoly3*
4,1,41,0.873536,0.631036,0.875000,0.627500,0.875000,0.377500,0.873536,0.373964,0.870000,0.372500,0.275000,0.372500,0.275000,0.132500,0.870000,0.132500,0.873536,0.131036,0.875000,0.127500,0.875000,-0.122500,0.873536,-0.126036,0.870000,-0.127500,0.275000,-0.127500,0.275000,-0.367500,0.870000,-0.367500,0.873536,-0.368964,0.875000,-0.372500,0.875000,-0.622500,0.874274,-0.624252,
0.873561,-0.626011,0.873543,-0.626018,0.873536,-0.626036,0.871813,-0.626749,0.870036,-0.627500,0.175000,-0.632464,0.175000,-1.072500,0.173536,-1.076036,0.170000,-1.077500,-0.080000,-1.077500,-0.083536,-1.076036,-0.085000,-1.072500,-0.085000,-0.632500,-0.270000,-0.632500,-0.273536,-0.631036,-0.275000,-0.627500,-0.275000,0.627500,-0.273536,0.631036,-0.270000,0.632500,0.870000,0.632500,
0.873536,0.631036,0.873536,0.631036,$1*%
G04 Aperture macros list end*
%ADD10C,0.150000*%
%ADD11C,0.100000*%
%ADD12C,0.120000*%
%ADD13RoundRect,0.237500X0.237500X-0.287500X0.237500X0.287500X-0.237500X0.287500X-0.237500X-0.287500X0*%
%ADD14RoundRect,0.250000X-0.450000X0.350000X-0.450000X-0.350000X0.450000X-0.350000X0.450000X0.350000X0*%
%ADD15RoundRect,0.200000X-0.200000X-0.450000X0.200000X-0.450000X0.200000X0.450000X-0.200000X0.450000X0*%
%ADD16RoundRect,0.250001X-0.799999X-1.249999X0.799999X-1.249999X0.799999X1.249999X-0.799999X1.249999X0*%
%ADD17RoundRect,0.250000X0.337500X0.475000X-0.337500X0.475000X-0.337500X-0.475000X0.337500X-0.475000X0*%
%ADD18FreePoly0,270.000000*%
%ADD19RoundRect,0.062500X-0.062500X0.237500X-0.062500X-0.237500X0.062500X-0.237500X0.062500X0.237500X0*%
%ADD20FreePoly1,270.000000*%
%ADD21RoundRect,0.063750X-0.286250X0.063750X-0.286250X-0.063750X0.286250X-0.063750X0.286250X0.063750X0*%
%ADD22FreePoly2,0.000000*%
%ADD23RoundRect,0.062500X0.062500X-0.662500X0.062500X0.662500X-0.062500X0.662500X-0.062500X-0.662500X0*%
%ADD24FreePoly3,0.000000*%
%ADD25R,1.400000X0.300000*%
%ADD26RoundRect,0.075000X0.650000X0.075000X-0.650000X0.075000X-0.650000X-0.075000X0.650000X-0.075000X0*%
%ADD27RoundRect,0.200000X-0.450000X0.200000X-0.450000X-0.200000X0.450000X-0.200000X0.450000X0.200000X0*%
%ADD28RoundRect,0.250001X-1.249999X0.799999X-1.249999X-0.799999X1.249999X-0.799999X1.249999X0.799999X0*%
%ADD29RoundRect,0.200000X0.200000X0.450000X-0.200000X0.450000X-0.200000X-0.450000X0.200000X-0.450000X0*%
%ADD30RoundRect,0.250001X0.799999X1.249999X-0.799999X1.249999X-0.799999X-1.249999X0.799999X-1.249999X0*%
%ADD31RoundRect,0.200000X0.450000X-0.200000X0.450000X0.200000X-0.450000X0.200000X-0.450000X-0.200000X0*%
%ADD32RoundRect,0.250001X1.249999X-0.799999X1.249999X0.799999X-1.249999X0.799999X-1.249999X-0.799999X0*%
%ADD33RoundRect,0.237500X0.300000X0.237500X-0.300000X0.237500X-0.300000X-0.237500X0.300000X-0.237500X0*%
%ADD34RoundRect,0.237500X-0.300000X-0.237500X0.300000X-0.237500X0.300000X0.237500X-0.300000X0.237500X0*%
%ADD35RoundRect,0.250000X-0.350000X-0.450000X0.350000X-0.450000X0.350000X0.450000X-0.350000X0.450000X0*%
%ADD36C,3.200000*%
%ADD37O,1.727200X1.727200*%
%ADD38R,1.727200X1.727200*%
%ADD39RoundRect,0.250000X0.450000X-0.350000X0.450000X0.350000X-0.450000X0.350000X-0.450000X-0.350000X0*%
%ADD40C,1.000000*%
%ADD41RoundRect,0.250001X-0.499999X0.499999X-0.499999X-0.499999X0.499999X-0.499999X0.499999X0.499999X0*%
%ADD42C,1.500000*%
%ADD43RoundRect,0.150000X0.825000X0.150000X-0.825000X0.150000X-0.825000X-0.150000X0.825000X-0.150000X0*%
%ADD44RoundRect,0.237500X0.237500X-0.300000X0.237500X0.300000X-0.237500X0.300000X-0.237500X-0.300000X0*%
%ADD45RoundRect,0.250000X-0.337500X-0.475000X0.337500X-0.475000X0.337500X0.475000X-0.337500X0.475000X0*%
%ADD46RoundRect,0.250000X0.350000X0.450000X-0.350000X0.450000X-0.350000X-0.450000X0.350000X-0.450000X0*%
G04 APERTURE END LIST*
D10*
X138024819Y-28038094D02*
X137024819Y-28038094D01*
X137024819Y-28038094D02*
X137024819Y-27799999D01*
X137024819Y-27799999D02*
X137072438Y-27657142D01*
X137072438Y-27657142D02*
X137167676Y-27561904D01*
X137167676Y-27561904D02*
X137262914Y-27514285D01*
X137262914Y-27514285D02*
X137453390Y-27466666D01*
X137453390Y-27466666D02*
X137596247Y-27466666D01*
X137596247Y-27466666D02*
X137786723Y-27514285D01*
X137786723Y-27514285D02*
X137881961Y-27561904D01*
X137881961Y-27561904D02*
X137977200Y-27657142D01*
X137977200Y-27657142D02*
X138024819Y-27799999D01*
X138024819Y-27799999D02*
X138024819Y-28038094D01*
X138024819Y-26514285D02*
X138024819Y-27085713D01*
X138024819Y-26799999D02*
X137024819Y-26799999D01*
X137024819Y-26799999D02*
X137167676Y-26895237D01*
X137167676Y-26895237D02*
X137262914Y-26990475D01*
X137262914Y-26990475D02*
X137310533Y-27085713D01*
X137854819Y-24117857D02*
X137378628Y-24451190D01*
X137854819Y-24689285D02*
X136854819Y-24689285D01*
X136854819Y-24689285D02*
X136854819Y-24308333D01*
X136854819Y-24308333D02*
X136902438Y-24213095D01*
X136902438Y-24213095D02*
X136950057Y-24165476D01*
X136950057Y-24165476D02*
X137045295Y-24117857D01*
X137045295Y-24117857D02*
X137188152Y-24117857D01*
X137188152Y-24117857D02*
X137283390Y-24165476D01*
X137283390Y-24165476D02*
X137331009Y-24213095D01*
X137331009Y-24213095D02*
X137378628Y-24308333D01*
X137378628Y-24308333D02*
X137378628Y-24689285D01*
X136950057Y-23736904D02*
X136902438Y-23689285D01*
X136902438Y-23689285D02*
X136854819Y-23594047D01*
X136854819Y-23594047D02*
X136854819Y-23355952D01*
X136854819Y-23355952D02*
X136902438Y-23260714D01*
X136902438Y-23260714D02*
X136950057Y-23213095D01*
X136950057Y-23213095D02*
X137045295Y-23165476D01*
X137045295Y-23165476D02*
X137140533Y-23165476D01*
X137140533Y-23165476D02*
X137283390Y-23213095D01*
X137283390Y-23213095D02*
X137854819Y-23784523D01*
X137854819Y-23784523D02*
X137854819Y-23165476D01*
X136950057Y-22784523D02*
X136902438Y-22736904D01*
X136902438Y-22736904D02*
X136854819Y-22641666D01*
X136854819Y-22641666D02*
X136854819Y-22403571D01*
X136854819Y-22403571D02*
X136902438Y-22308333D01*
X136902438Y-22308333D02*
X136950057Y-22260714D01*
X136950057Y-22260714D02*
X137045295Y-22213095D01*
X137045295Y-22213095D02*
X137140533Y-22213095D01*
X137140533Y-22213095D02*
X137283390Y-22260714D01*
X137283390Y-22260714D02*
X137854819Y-22832142D01*
X137854819Y-22832142D02*
X137854819Y-22213095D01*
X52762666Y-77430219D02*
X52762666Y-78144504D01*
X52762666Y-78144504D02*
X52715047Y-78287361D01*
X52715047Y-78287361D02*
X52619809Y-78382600D01*
X52619809Y-78382600D02*
X52476952Y-78430219D01*
X52476952Y-78430219D02*
X52381714Y-78430219D01*
X53381714Y-77858790D02*
X53286476Y-77811171D01*
X53286476Y-77811171D02*
X53238857Y-77763552D01*
X53238857Y-77763552D02*
X53191238Y-77668314D01*
X53191238Y-77668314D02*
X53191238Y-77620695D01*
X53191238Y-77620695D02*
X53238857Y-77525457D01*
X53238857Y-77525457D02*
X53286476Y-77477838D01*
X53286476Y-77477838D02*
X53381714Y-77430219D01*
X53381714Y-77430219D02*
X53572190Y-77430219D01*
X53572190Y-77430219D02*
X53667428Y-77477838D01*
X53667428Y-77477838D02*
X53715047Y-77525457D01*
X53715047Y-77525457D02*
X53762666Y-77620695D01*
X53762666Y-77620695D02*
X53762666Y-77668314D01*
X53762666Y-77668314D02*
X53715047Y-77763552D01*
X53715047Y-77763552D02*
X53667428Y-77811171D01*
X53667428Y-77811171D02*
X53572190Y-77858790D01*
X53572190Y-77858790D02*
X53381714Y-77858790D01*
X53381714Y-77858790D02*
X53286476Y-77906409D01*
X53286476Y-77906409D02*
X53238857Y-77954028D01*
X53238857Y-77954028D02*
X53191238Y-78049266D01*
X53191238Y-78049266D02*
X53191238Y-78239742D01*
X53191238Y-78239742D02*
X53238857Y-78334980D01*
X53238857Y-78334980D02*
X53286476Y-78382600D01*
X53286476Y-78382600D02*
X53381714Y-78430219D01*
X53381714Y-78430219D02*
X53572190Y-78430219D01*
X53572190Y-78430219D02*
X53667428Y-78382600D01*
X53667428Y-78382600D02*
X53715047Y-78334980D01*
X53715047Y-78334980D02*
X53762666Y-78239742D01*
X53762666Y-78239742D02*
X53762666Y-78049266D01*
X53762666Y-78049266D02*
X53715047Y-77954028D01*
X53715047Y-77954028D02*
X53667428Y-77906409D01*
X53667428Y-77906409D02*
X53572190Y-77858790D01*
X78269042Y-64096580D02*
X78221423Y-64144200D01*
X78221423Y-64144200D02*
X78078566Y-64191819D01*
X78078566Y-64191819D02*
X77983328Y-64191819D01*
X77983328Y-64191819D02*
X77840471Y-64144200D01*
X77840471Y-64144200D02*
X77745233Y-64048961D01*
X77745233Y-64048961D02*
X77697614Y-63953723D01*
X77697614Y-63953723D02*
X77649995Y-63763247D01*
X77649995Y-63763247D02*
X77649995Y-63620390D01*
X77649995Y-63620390D02*
X77697614Y-63429914D01*
X77697614Y-63429914D02*
X77745233Y-63334676D01*
X77745233Y-63334676D02*
X77840471Y-63239438D01*
X77840471Y-63239438D02*
X77983328Y-63191819D01*
X77983328Y-63191819D02*
X78078566Y-63191819D01*
X78078566Y-63191819D02*
X78221423Y-63239438D01*
X78221423Y-63239438D02*
X78269042Y-63287057D01*
X79126185Y-63525152D02*
X79126185Y-64191819D01*
X78888090Y-63144200D02*
X78649995Y-63858485D01*
X78649995Y-63858485D02*
X79269042Y-63858485D01*
X80173804Y-64191819D02*
X79602376Y-64191819D01*
X79888090Y-64191819D02*
X79888090Y-63191819D01*
X79888090Y-63191819D02*
X79792852Y-63334676D01*
X79792852Y-63334676D02*
X79697614Y-63429914D01*
X79697614Y-63429914D02*
X79602376Y-63477533D01*
D11*
X114307505Y-59871419D02*
X114307505Y-60680942D01*
X114307505Y-60680942D02*
X114355124Y-60776180D01*
X114355124Y-60776180D02*
X114402743Y-60823800D01*
X114402743Y-60823800D02*
X114497981Y-60871419D01*
X114497981Y-60871419D02*
X114688457Y-60871419D01*
X114688457Y-60871419D02*
X114783695Y-60823800D01*
X114783695Y-60823800D02*
X114831314Y-60776180D01*
X114831314Y-60776180D02*
X114878933Y-60680942D01*
X114878933Y-60680942D02*
X114878933Y-59871419D01*
X115878933Y-60871419D02*
X115307505Y-60871419D01*
X115593219Y-60871419D02*
X115593219Y-59871419D01*
X115593219Y-59871419D02*
X115497981Y-60014276D01*
X115497981Y-60014276D02*
X115402743Y-60109514D01*
X115402743Y-60109514D02*
X115307505Y-60157133D01*
X116736076Y-59871419D02*
X116545600Y-59871419D01*
X116545600Y-59871419D02*
X116450362Y-59919038D01*
X116450362Y-59919038D02*
X116402743Y-59966657D01*
X116402743Y-59966657D02*
X116307505Y-60109514D01*
X116307505Y-60109514D02*
X116259886Y-60299990D01*
X116259886Y-60299990D02*
X116259886Y-60680942D01*
X116259886Y-60680942D02*
X116307505Y-60776180D01*
X116307505Y-60776180D02*
X116355124Y-60823800D01*
X116355124Y-60823800D02*
X116450362Y-60871419D01*
X116450362Y-60871419D02*
X116640838Y-60871419D01*
X116640838Y-60871419D02*
X116736076Y-60823800D01*
X116736076Y-60823800D02*
X116783695Y-60776180D01*
X116783695Y-60776180D02*
X116831314Y-60680942D01*
X116831314Y-60680942D02*
X116831314Y-60442847D01*
X116831314Y-60442847D02*
X116783695Y-60347609D01*
X116783695Y-60347609D02*
X116736076Y-60299990D01*
X116736076Y-60299990D02*
X116640838Y-60252371D01*
X116640838Y-60252371D02*
X116450362Y-60252371D01*
X116450362Y-60252371D02*
X116355124Y-60299990D01*
X116355124Y-60299990D02*
X116307505Y-60347609D01*
X116307505Y-60347609D02*
X116259886Y-60442847D01*
D10*
X68804795Y-33929419D02*
X68804795Y-34738942D01*
X68804795Y-34738942D02*
X68852414Y-34834180D01*
X68852414Y-34834180D02*
X68900033Y-34881800D01*
X68900033Y-34881800D02*
X68995271Y-34929419D01*
X68995271Y-34929419D02*
X69185747Y-34929419D01*
X69185747Y-34929419D02*
X69280985Y-34881800D01*
X69280985Y-34881800D02*
X69328604Y-34834180D01*
X69328604Y-34834180D02*
X69376223Y-34738942D01*
X69376223Y-34738942D02*
X69376223Y-33929419D01*
X70376223Y-34929419D02*
X69804795Y-34929419D01*
X70090509Y-34929419D02*
X70090509Y-33929419D01*
X70090509Y-33929419D02*
X69995271Y-34072276D01*
X69995271Y-34072276D02*
X69900033Y-34167514D01*
X69900033Y-34167514D02*
X69804795Y-34215133D01*
X81449505Y-71831019D02*
X81449505Y-72640542D01*
X81449505Y-72640542D02*
X81497124Y-72735780D01*
X81497124Y-72735780D02*
X81544743Y-72783400D01*
X81544743Y-72783400D02*
X81639981Y-72831019D01*
X81639981Y-72831019D02*
X81830457Y-72831019D01*
X81830457Y-72831019D02*
X81925695Y-72783400D01*
X81925695Y-72783400D02*
X81973314Y-72735780D01*
X81973314Y-72735780D02*
X82020933Y-72640542D01*
X82020933Y-72640542D02*
X82020933Y-71831019D01*
X83020933Y-72831019D02*
X82449505Y-72831019D01*
X82735219Y-72831019D02*
X82735219Y-71831019D01*
X82735219Y-71831019D02*
X82639981Y-71973876D01*
X82639981Y-71973876D02*
X82544743Y-72069114D01*
X82544743Y-72069114D02*
X82449505Y-72116733D01*
X83925695Y-71831019D02*
X83449505Y-71831019D01*
X83449505Y-71831019D02*
X83401886Y-72307209D01*
X83401886Y-72307209D02*
X83449505Y-72259590D01*
X83449505Y-72259590D02*
X83544743Y-72211971D01*
X83544743Y-72211971D02*
X83782838Y-72211971D01*
X83782838Y-72211971D02*
X83878076Y-72259590D01*
X83878076Y-72259590D02*
X83925695Y-72307209D01*
X83925695Y-72307209D02*
X83973314Y-72402447D01*
X83973314Y-72402447D02*
X83973314Y-72640542D01*
X83973314Y-72640542D02*
X83925695Y-72735780D01*
X83925695Y-72735780D02*
X83878076Y-72783400D01*
X83878076Y-72783400D02*
X83782838Y-72831019D01*
X83782838Y-72831019D02*
X83544743Y-72831019D01*
X83544743Y-72831019D02*
X83449505Y-72783400D01*
X83449505Y-72783400D02*
X83401886Y-72735780D01*
X37482019Y-48507133D02*
X38196304Y-48507133D01*
X38196304Y-48507133D02*
X38339161Y-48554752D01*
X38339161Y-48554752D02*
X38434400Y-48649990D01*
X38434400Y-48649990D02*
X38482019Y-48792847D01*
X38482019Y-48792847D02*
X38482019Y-48888085D01*
X37577257Y-48078561D02*
X37529638Y-48030942D01*
X37529638Y-48030942D02*
X37482019Y-47935704D01*
X37482019Y-47935704D02*
X37482019Y-47697609D01*
X37482019Y-47697609D02*
X37529638Y-47602371D01*
X37529638Y-47602371D02*
X37577257Y-47554752D01*
X37577257Y-47554752D02*
X37672495Y-47507133D01*
X37672495Y-47507133D02*
X37767733Y-47507133D01*
X37767733Y-47507133D02*
X37910590Y-47554752D01*
X37910590Y-47554752D02*
X38482019Y-48126180D01*
X38482019Y-48126180D02*
X38482019Y-47507133D01*
X63136542Y-68160580D02*
X63088923Y-68208200D01*
X63088923Y-68208200D02*
X62946066Y-68255819D01*
X62946066Y-68255819D02*
X62850828Y-68255819D01*
X62850828Y-68255819D02*
X62707971Y-68208200D01*
X62707971Y-68208200D02*
X62612733Y-68112961D01*
X62612733Y-68112961D02*
X62565114Y-68017723D01*
X62565114Y-68017723D02*
X62517495Y-67827247D01*
X62517495Y-67827247D02*
X62517495Y-67684390D01*
X62517495Y-67684390D02*
X62565114Y-67493914D01*
X62565114Y-67493914D02*
X62612733Y-67398676D01*
X62612733Y-67398676D02*
X62707971Y-67303438D01*
X62707971Y-67303438D02*
X62850828Y-67255819D01*
X62850828Y-67255819D02*
X62946066Y-67255819D01*
X62946066Y-67255819D02*
X63088923Y-67303438D01*
X63088923Y-67303438D02*
X63136542Y-67351057D01*
X63469876Y-67255819D02*
X64088923Y-67255819D01*
X64088923Y-67255819D02*
X63755590Y-67636771D01*
X63755590Y-67636771D02*
X63898447Y-67636771D01*
X63898447Y-67636771D02*
X63993685Y-67684390D01*
X63993685Y-67684390D02*
X64041304Y-67732009D01*
X64041304Y-67732009D02*
X64088923Y-67827247D01*
X64088923Y-67827247D02*
X64088923Y-68065342D01*
X64088923Y-68065342D02*
X64041304Y-68160580D01*
X64041304Y-68160580D02*
X63993685Y-68208200D01*
X63993685Y-68208200D02*
X63898447Y-68255819D01*
X63898447Y-68255819D02*
X63612733Y-68255819D01*
X63612733Y-68255819D02*
X63517495Y-68208200D01*
X63517495Y-68208200D02*
X63469876Y-68160580D01*
X64660352Y-67684390D02*
X64565114Y-67636771D01*
X64565114Y-67636771D02*
X64517495Y-67589152D01*
X64517495Y-67589152D02*
X64469876Y-67493914D01*
X64469876Y-67493914D02*
X64469876Y-67446295D01*
X64469876Y-67446295D02*
X64517495Y-67351057D01*
X64517495Y-67351057D02*
X64565114Y-67303438D01*
X64565114Y-67303438D02*
X64660352Y-67255819D01*
X64660352Y-67255819D02*
X64850828Y-67255819D01*
X64850828Y-67255819D02*
X64946066Y-67303438D01*
X64946066Y-67303438D02*
X64993685Y-67351057D01*
X64993685Y-67351057D02*
X65041304Y-67446295D01*
X65041304Y-67446295D02*
X65041304Y-67493914D01*
X65041304Y-67493914D02*
X64993685Y-67589152D01*
X64993685Y-67589152D02*
X64946066Y-67636771D01*
X64946066Y-67636771D02*
X64850828Y-67684390D01*
X64850828Y-67684390D02*
X64660352Y-67684390D01*
X64660352Y-67684390D02*
X64565114Y-67732009D01*
X64565114Y-67732009D02*
X64517495Y-67779628D01*
X64517495Y-67779628D02*
X64469876Y-67874866D01*
X64469876Y-67874866D02*
X64469876Y-68065342D01*
X64469876Y-68065342D02*
X64517495Y-68160580D01*
X64517495Y-68160580D02*
X64565114Y-68208200D01*
X64565114Y-68208200D02*
X64660352Y-68255819D01*
X64660352Y-68255819D02*
X64850828Y-68255819D01*
X64850828Y-68255819D02*
X64946066Y-68208200D01*
X64946066Y-68208200D02*
X64993685Y-68160580D01*
X64993685Y-68160580D02*
X65041304Y-68065342D01*
X65041304Y-68065342D02*
X65041304Y-67874866D01*
X65041304Y-67874866D02*
X64993685Y-67779628D01*
X64993685Y-67779628D02*
X64946066Y-67732009D01*
X64946066Y-67732009D02*
X64850828Y-67684390D01*
X49137219Y-42090933D02*
X49851504Y-42090933D01*
X49851504Y-42090933D02*
X49994361Y-42138552D01*
X49994361Y-42138552D02*
X50089600Y-42233790D01*
X50089600Y-42233790D02*
X50137219Y-42376647D01*
X50137219Y-42376647D02*
X50137219Y-42471885D01*
X49137219Y-41138552D02*
X49137219Y-41614742D01*
X49137219Y-41614742D02*
X49613409Y-41662361D01*
X49613409Y-41662361D02*
X49565790Y-41614742D01*
X49565790Y-41614742D02*
X49518171Y-41519504D01*
X49518171Y-41519504D02*
X49518171Y-41281409D01*
X49518171Y-41281409D02*
X49565790Y-41186171D01*
X49565790Y-41186171D02*
X49613409Y-41138552D01*
X49613409Y-41138552D02*
X49708647Y-41090933D01*
X49708647Y-41090933D02*
X49946742Y-41090933D01*
X49946742Y-41090933D02*
X50041980Y-41138552D01*
X50041980Y-41138552D02*
X50089600Y-41186171D01*
X50089600Y-41186171D02*
X50137219Y-41281409D01*
X50137219Y-41281409D02*
X50137219Y-41519504D01*
X50137219Y-41519504D02*
X50089600Y-41614742D01*
X50089600Y-41614742D02*
X50041980Y-41662361D01*
X91915319Y-62177657D02*
X91439128Y-62510990D01*
X91915319Y-62749085D02*
X90915319Y-62749085D01*
X90915319Y-62749085D02*
X90915319Y-62368133D01*
X90915319Y-62368133D02*
X90962938Y-62272895D01*
X90962938Y-62272895D02*
X91010557Y-62225276D01*
X91010557Y-62225276D02*
X91105795Y-62177657D01*
X91105795Y-62177657D02*
X91248652Y-62177657D01*
X91248652Y-62177657D02*
X91343890Y-62225276D01*
X91343890Y-62225276D02*
X91391509Y-62272895D01*
X91391509Y-62272895D02*
X91439128Y-62368133D01*
X91439128Y-62368133D02*
X91439128Y-62749085D01*
X91010557Y-61796704D02*
X90962938Y-61749085D01*
X90962938Y-61749085D02*
X90915319Y-61653847D01*
X90915319Y-61653847D02*
X90915319Y-61415752D01*
X90915319Y-61415752D02*
X90962938Y-61320514D01*
X90962938Y-61320514D02*
X91010557Y-61272895D01*
X91010557Y-61272895D02*
X91105795Y-61225276D01*
X91105795Y-61225276D02*
X91201033Y-61225276D01*
X91201033Y-61225276D02*
X91343890Y-61272895D01*
X91343890Y-61272895D02*
X91915319Y-61844323D01*
X91915319Y-61844323D02*
X91915319Y-61225276D01*
X91915319Y-60272895D02*
X91915319Y-60844323D01*
X91915319Y-60558609D02*
X90915319Y-60558609D01*
X90915319Y-60558609D02*
X91058176Y-60653847D01*
X91058176Y-60653847D02*
X91153414Y-60749085D01*
X91153414Y-60749085D02*
X91201033Y-60844323D01*
X63152142Y-58697580D02*
X63104523Y-58745200D01*
X63104523Y-58745200D02*
X62961666Y-58792819D01*
X62961666Y-58792819D02*
X62866428Y-58792819D01*
X62866428Y-58792819D02*
X62723571Y-58745200D01*
X62723571Y-58745200D02*
X62628333Y-58649961D01*
X62628333Y-58649961D02*
X62580714Y-58554723D01*
X62580714Y-58554723D02*
X62533095Y-58364247D01*
X62533095Y-58364247D02*
X62533095Y-58221390D01*
X62533095Y-58221390D02*
X62580714Y-58030914D01*
X62580714Y-58030914D02*
X62628333Y-57935676D01*
X62628333Y-57935676D02*
X62723571Y-57840438D01*
X62723571Y-57840438D02*
X62866428Y-57792819D01*
X62866428Y-57792819D02*
X62961666Y-57792819D01*
X62961666Y-57792819D02*
X63104523Y-57840438D01*
X63104523Y-57840438D02*
X63152142Y-57888057D01*
X63485476Y-57792819D02*
X64104523Y-57792819D01*
X64104523Y-57792819D02*
X63771190Y-58173771D01*
X63771190Y-58173771D02*
X63914047Y-58173771D01*
X63914047Y-58173771D02*
X64009285Y-58221390D01*
X64009285Y-58221390D02*
X64056904Y-58269009D01*
X64056904Y-58269009D02*
X64104523Y-58364247D01*
X64104523Y-58364247D02*
X64104523Y-58602342D01*
X64104523Y-58602342D02*
X64056904Y-58697580D01*
X64056904Y-58697580D02*
X64009285Y-58745200D01*
X64009285Y-58745200D02*
X63914047Y-58792819D01*
X63914047Y-58792819D02*
X63628333Y-58792819D01*
X63628333Y-58792819D02*
X63533095Y-58745200D01*
X63533095Y-58745200D02*
X63485476Y-58697580D01*
X64437857Y-57792819D02*
X65104523Y-57792819D01*
X65104523Y-57792819D02*
X64675952Y-58792819D01*
X56300476Y-25436819D02*
X56300476Y-26151104D01*
X56300476Y-26151104D02*
X56252857Y-26293961D01*
X56252857Y-26293961D02*
X56157619Y-26389200D01*
X56157619Y-26389200D02*
X56014762Y-26436819D01*
X56014762Y-26436819D02*
X55919524Y-26436819D01*
X57300476Y-26436819D02*
X56729048Y-26436819D01*
X57014762Y-26436819D02*
X57014762Y-25436819D01*
X57014762Y-25436819D02*
X56919524Y-25579676D01*
X56919524Y-25579676D02*
X56824286Y-25674914D01*
X56824286Y-25674914D02*
X56729048Y-25722533D01*
X57633810Y-25436819D02*
X58252857Y-25436819D01*
X58252857Y-25436819D02*
X57919524Y-25817771D01*
X57919524Y-25817771D02*
X58062381Y-25817771D01*
X58062381Y-25817771D02*
X58157619Y-25865390D01*
X58157619Y-25865390D02*
X58205238Y-25913009D01*
X58205238Y-25913009D02*
X58252857Y-26008247D01*
X58252857Y-26008247D02*
X58252857Y-26246342D01*
X58252857Y-26246342D02*
X58205238Y-26341580D01*
X58205238Y-26341580D02*
X58157619Y-26389200D01*
X58157619Y-26389200D02*
X58062381Y-26436819D01*
X58062381Y-26436819D02*
X57776667Y-26436819D01*
X57776667Y-26436819D02*
X57681429Y-26389200D01*
X57681429Y-26389200D02*
X57633810Y-26341580D01*
X130974819Y-58477523D02*
X131689104Y-58477523D01*
X131689104Y-58477523D02*
X131831961Y-58525142D01*
X131831961Y-58525142D02*
X131927200Y-58620380D01*
X131927200Y-58620380D02*
X131974819Y-58763237D01*
X131974819Y-58763237D02*
X131974819Y-58858475D01*
X131974819Y-57477523D02*
X131974819Y-58048951D01*
X131974819Y-57763237D02*
X130974819Y-57763237D01*
X130974819Y-57763237D02*
X131117676Y-57858475D01*
X131117676Y-57858475D02*
X131212914Y-57953713D01*
X131212914Y-57953713D02*
X131260533Y-58048951D01*
X131308152Y-56620380D02*
X131974819Y-56620380D01*
X130927200Y-56858475D02*
X131641485Y-57096570D01*
X131641485Y-57096570D02*
X131641485Y-56477523D01*
X37504019Y-60937733D02*
X38218304Y-60937733D01*
X38218304Y-60937733D02*
X38361161Y-60985352D01*
X38361161Y-60985352D02*
X38456400Y-61080590D01*
X38456400Y-61080590D02*
X38504019Y-61223447D01*
X38504019Y-61223447D02*
X38504019Y-61318685D01*
X37504019Y-60556780D02*
X37504019Y-59937733D01*
X37504019Y-59937733D02*
X37884971Y-60271066D01*
X37884971Y-60271066D02*
X37884971Y-60128209D01*
X37884971Y-60128209D02*
X37932590Y-60032971D01*
X37932590Y-60032971D02*
X37980209Y-59985352D01*
X37980209Y-59985352D02*
X38075447Y-59937733D01*
X38075447Y-59937733D02*
X38313542Y-59937733D01*
X38313542Y-59937733D02*
X38408780Y-59985352D01*
X38408780Y-59985352D02*
X38456400Y-60032971D01*
X38456400Y-60032971D02*
X38504019Y-60128209D01*
X38504019Y-60128209D02*
X38504019Y-60413923D01*
X38504019Y-60413923D02*
X38456400Y-60509161D01*
X38456400Y-60509161D02*
X38408780Y-60556780D01*
X84171795Y-38434619D02*
X84171795Y-39244142D01*
X84171795Y-39244142D02*
X84219414Y-39339380D01*
X84219414Y-39339380D02*
X84267033Y-39387000D01*
X84267033Y-39387000D02*
X84362271Y-39434619D01*
X84362271Y-39434619D02*
X84552747Y-39434619D01*
X84552747Y-39434619D02*
X84647985Y-39387000D01*
X84647985Y-39387000D02*
X84695604Y-39339380D01*
X84695604Y-39339380D02*
X84743223Y-39244142D01*
X84743223Y-39244142D02*
X84743223Y-38434619D01*
X85267033Y-39434619D02*
X85457509Y-39434619D01*
X85457509Y-39434619D02*
X85552747Y-39387000D01*
X85552747Y-39387000D02*
X85600366Y-39339380D01*
X85600366Y-39339380D02*
X85695604Y-39196523D01*
X85695604Y-39196523D02*
X85743223Y-39006047D01*
X85743223Y-39006047D02*
X85743223Y-38625095D01*
X85743223Y-38625095D02*
X85695604Y-38529857D01*
X85695604Y-38529857D02*
X85647985Y-38482238D01*
X85647985Y-38482238D02*
X85552747Y-38434619D01*
X85552747Y-38434619D02*
X85362271Y-38434619D01*
X85362271Y-38434619D02*
X85267033Y-38482238D01*
X85267033Y-38482238D02*
X85219414Y-38529857D01*
X85219414Y-38529857D02*
X85171795Y-38625095D01*
X85171795Y-38625095D02*
X85171795Y-38863190D01*
X85171795Y-38863190D02*
X85219414Y-38958428D01*
X85219414Y-38958428D02*
X85267033Y-39006047D01*
X85267033Y-39006047D02*
X85362271Y-39053666D01*
X85362271Y-39053666D02*
X85552747Y-39053666D01*
X85552747Y-39053666D02*
X85647985Y-39006047D01*
X85647985Y-39006047D02*
X85695604Y-38958428D01*
X85695604Y-38958428D02*
X85743223Y-38863190D01*
X52444242Y-44283780D02*
X52396623Y-44331400D01*
X52396623Y-44331400D02*
X52253766Y-44379019D01*
X52253766Y-44379019D02*
X52158528Y-44379019D01*
X52158528Y-44379019D02*
X52015671Y-44331400D01*
X52015671Y-44331400D02*
X51920433Y-44236161D01*
X51920433Y-44236161D02*
X51872814Y-44140923D01*
X51872814Y-44140923D02*
X51825195Y-43950447D01*
X51825195Y-43950447D02*
X51825195Y-43807590D01*
X51825195Y-43807590D02*
X51872814Y-43617114D01*
X51872814Y-43617114D02*
X51920433Y-43521876D01*
X51920433Y-43521876D02*
X52015671Y-43426638D01*
X52015671Y-43426638D02*
X52158528Y-43379019D01*
X52158528Y-43379019D02*
X52253766Y-43379019D01*
X52253766Y-43379019D02*
X52396623Y-43426638D01*
X52396623Y-43426638D02*
X52444242Y-43474257D01*
X53396623Y-44379019D02*
X52825195Y-44379019D01*
X53110909Y-44379019D02*
X53110909Y-43379019D01*
X53110909Y-43379019D02*
X53015671Y-43521876D01*
X53015671Y-43521876D02*
X52920433Y-43617114D01*
X52920433Y-43617114D02*
X52825195Y-43664733D01*
X54015671Y-43379019D02*
X54110909Y-43379019D01*
X54110909Y-43379019D02*
X54206147Y-43426638D01*
X54206147Y-43426638D02*
X54253766Y-43474257D01*
X54253766Y-43474257D02*
X54301385Y-43569495D01*
X54301385Y-43569495D02*
X54349004Y-43759971D01*
X54349004Y-43759971D02*
X54349004Y-43998066D01*
X54349004Y-43998066D02*
X54301385Y-44188542D01*
X54301385Y-44188542D02*
X54253766Y-44283780D01*
X54253766Y-44283780D02*
X54206147Y-44331400D01*
X54206147Y-44331400D02*
X54110909Y-44379019D01*
X54110909Y-44379019D02*
X54015671Y-44379019D01*
X54015671Y-44379019D02*
X53920433Y-44331400D01*
X53920433Y-44331400D02*
X53872814Y-44283780D01*
X53872814Y-44283780D02*
X53825195Y-44188542D01*
X53825195Y-44188542D02*
X53777576Y-43998066D01*
X53777576Y-43998066D02*
X53777576Y-43759971D01*
X53777576Y-43759971D02*
X53825195Y-43569495D01*
X53825195Y-43569495D02*
X53872814Y-43474257D01*
X53872814Y-43474257D02*
X53920433Y-43426638D01*
X53920433Y-43426638D02*
X54015671Y-43379019D01*
X41392233Y-27535380D02*
X41344614Y-27583000D01*
X41344614Y-27583000D02*
X41201757Y-27630619D01*
X41201757Y-27630619D02*
X41106519Y-27630619D01*
X41106519Y-27630619D02*
X40963662Y-27583000D01*
X40963662Y-27583000D02*
X40868424Y-27487761D01*
X40868424Y-27487761D02*
X40820805Y-27392523D01*
X40820805Y-27392523D02*
X40773186Y-27202047D01*
X40773186Y-27202047D02*
X40773186Y-27059190D01*
X40773186Y-27059190D02*
X40820805Y-26868714D01*
X40820805Y-26868714D02*
X40868424Y-26773476D01*
X40868424Y-26773476D02*
X40963662Y-26678238D01*
X40963662Y-26678238D02*
X41106519Y-26630619D01*
X41106519Y-26630619D02*
X41201757Y-26630619D01*
X41201757Y-26630619D02*
X41344614Y-26678238D01*
X41344614Y-26678238D02*
X41392233Y-26725857D01*
X42344614Y-27630619D02*
X41773186Y-27630619D01*
X42058900Y-27630619D02*
X42058900Y-26630619D01*
X42058900Y-26630619D02*
X41963662Y-26773476D01*
X41963662Y-26773476D02*
X41868424Y-26868714D01*
X41868424Y-26868714D02*
X41773186Y-26916333D01*
X52432642Y-48854819D02*
X52099309Y-48378628D01*
X51861214Y-48854819D02*
X51861214Y-47854819D01*
X51861214Y-47854819D02*
X52242166Y-47854819D01*
X52242166Y-47854819D02*
X52337404Y-47902438D01*
X52337404Y-47902438D02*
X52385023Y-47950057D01*
X52385023Y-47950057D02*
X52432642Y-48045295D01*
X52432642Y-48045295D02*
X52432642Y-48188152D01*
X52432642Y-48188152D02*
X52385023Y-48283390D01*
X52385023Y-48283390D02*
X52337404Y-48331009D01*
X52337404Y-48331009D02*
X52242166Y-48378628D01*
X52242166Y-48378628D02*
X51861214Y-48378628D01*
X53385023Y-48854819D02*
X52813595Y-48854819D01*
X53099309Y-48854819D02*
X53099309Y-47854819D01*
X53099309Y-47854819D02*
X53004071Y-47997676D01*
X53004071Y-47997676D02*
X52908833Y-48092914D01*
X52908833Y-48092914D02*
X52813595Y-48140533D01*
X54242166Y-47854819D02*
X54051690Y-47854819D01*
X54051690Y-47854819D02*
X53956452Y-47902438D01*
X53956452Y-47902438D02*
X53908833Y-47950057D01*
X53908833Y-47950057D02*
X53813595Y-48092914D01*
X53813595Y-48092914D02*
X53765976Y-48283390D01*
X53765976Y-48283390D02*
X53765976Y-48664342D01*
X53765976Y-48664342D02*
X53813595Y-48759580D01*
X53813595Y-48759580D02*
X53861214Y-48807200D01*
X53861214Y-48807200D02*
X53956452Y-48854819D01*
X53956452Y-48854819D02*
X54146928Y-48854819D01*
X54146928Y-48854819D02*
X54242166Y-48807200D01*
X54242166Y-48807200D02*
X54289785Y-48759580D01*
X54289785Y-48759580D02*
X54337404Y-48664342D01*
X54337404Y-48664342D02*
X54337404Y-48426247D01*
X54337404Y-48426247D02*
X54289785Y-48331009D01*
X54289785Y-48331009D02*
X54242166Y-48283390D01*
X54242166Y-48283390D02*
X54146928Y-48235771D01*
X54146928Y-48235771D02*
X53956452Y-48235771D01*
X53956452Y-48235771D02*
X53861214Y-48283390D01*
X53861214Y-48283390D02*
X53813595Y-48331009D01*
X53813595Y-48331009D02*
X53765976Y-48426247D01*
X63187342Y-49147180D02*
X63139723Y-49194800D01*
X63139723Y-49194800D02*
X62996866Y-49242419D01*
X62996866Y-49242419D02*
X62901628Y-49242419D01*
X62901628Y-49242419D02*
X62758771Y-49194800D01*
X62758771Y-49194800D02*
X62663533Y-49099561D01*
X62663533Y-49099561D02*
X62615914Y-49004323D01*
X62615914Y-49004323D02*
X62568295Y-48813847D01*
X62568295Y-48813847D02*
X62568295Y-48670990D01*
X62568295Y-48670990D02*
X62615914Y-48480514D01*
X62615914Y-48480514D02*
X62663533Y-48385276D01*
X62663533Y-48385276D02*
X62758771Y-48290038D01*
X62758771Y-48290038D02*
X62901628Y-48242419D01*
X62901628Y-48242419D02*
X62996866Y-48242419D01*
X62996866Y-48242419D02*
X63139723Y-48290038D01*
X63139723Y-48290038D02*
X63187342Y-48337657D01*
X63520676Y-48242419D02*
X64139723Y-48242419D01*
X64139723Y-48242419D02*
X63806390Y-48623371D01*
X63806390Y-48623371D02*
X63949247Y-48623371D01*
X63949247Y-48623371D02*
X64044485Y-48670990D01*
X64044485Y-48670990D02*
X64092104Y-48718609D01*
X64092104Y-48718609D02*
X64139723Y-48813847D01*
X64139723Y-48813847D02*
X64139723Y-49051942D01*
X64139723Y-49051942D02*
X64092104Y-49147180D01*
X64092104Y-49147180D02*
X64044485Y-49194800D01*
X64044485Y-49194800D02*
X63949247Y-49242419D01*
X63949247Y-49242419D02*
X63663533Y-49242419D01*
X63663533Y-49242419D02*
X63568295Y-49194800D01*
X63568295Y-49194800D02*
X63520676Y-49147180D01*
X64996866Y-48242419D02*
X64806390Y-48242419D01*
X64806390Y-48242419D02*
X64711152Y-48290038D01*
X64711152Y-48290038D02*
X64663533Y-48337657D01*
X64663533Y-48337657D02*
X64568295Y-48480514D01*
X64568295Y-48480514D02*
X64520676Y-48670990D01*
X64520676Y-48670990D02*
X64520676Y-49051942D01*
X64520676Y-49051942D02*
X64568295Y-49147180D01*
X64568295Y-49147180D02*
X64615914Y-49194800D01*
X64615914Y-49194800D02*
X64711152Y-49242419D01*
X64711152Y-49242419D02*
X64901628Y-49242419D01*
X64901628Y-49242419D02*
X64996866Y-49194800D01*
X64996866Y-49194800D02*
X65044485Y-49147180D01*
X65044485Y-49147180D02*
X65092104Y-49051942D01*
X65092104Y-49051942D02*
X65092104Y-48813847D01*
X65092104Y-48813847D02*
X65044485Y-48718609D01*
X65044485Y-48718609D02*
X64996866Y-48670990D01*
X64996866Y-48670990D02*
X64901628Y-48623371D01*
X64901628Y-48623371D02*
X64711152Y-48623371D01*
X64711152Y-48623371D02*
X64615914Y-48670990D01*
X64615914Y-48670990D02*
X64568295Y-48718609D01*
X64568295Y-48718609D02*
X64520676Y-48813847D01*
X68763795Y-43438419D02*
X68763795Y-44247942D01*
X68763795Y-44247942D02*
X68811414Y-44343180D01*
X68811414Y-44343180D02*
X68859033Y-44390800D01*
X68859033Y-44390800D02*
X68954271Y-44438419D01*
X68954271Y-44438419D02*
X69144747Y-44438419D01*
X69144747Y-44438419D02*
X69239985Y-44390800D01*
X69239985Y-44390800D02*
X69287604Y-44343180D01*
X69287604Y-44343180D02*
X69335223Y-44247942D01*
X69335223Y-44247942D02*
X69335223Y-43438419D01*
X69716176Y-43438419D02*
X70335223Y-43438419D01*
X70335223Y-43438419D02*
X70001890Y-43819371D01*
X70001890Y-43819371D02*
X70144747Y-43819371D01*
X70144747Y-43819371D02*
X70239985Y-43866990D01*
X70239985Y-43866990D02*
X70287604Y-43914609D01*
X70287604Y-43914609D02*
X70335223Y-44009847D01*
X70335223Y-44009847D02*
X70335223Y-44247942D01*
X70335223Y-44247942D02*
X70287604Y-44343180D01*
X70287604Y-44343180D02*
X70239985Y-44390800D01*
X70239985Y-44390800D02*
X70144747Y-44438419D01*
X70144747Y-44438419D02*
X69859033Y-44438419D01*
X69859033Y-44438419D02*
X69763795Y-44390800D01*
X69763795Y-44390800D02*
X69716176Y-44343180D01*
X52457142Y-36454819D02*
X52123809Y-35978628D01*
X51885714Y-36454819D02*
X51885714Y-35454819D01*
X51885714Y-35454819D02*
X52266666Y-35454819D01*
X52266666Y-35454819D02*
X52361904Y-35502438D01*
X52361904Y-35502438D02*
X52409523Y-35550057D01*
X52409523Y-35550057D02*
X52457142Y-35645295D01*
X52457142Y-35645295D02*
X52457142Y-35788152D01*
X52457142Y-35788152D02*
X52409523Y-35883390D01*
X52409523Y-35883390D02*
X52361904Y-35931009D01*
X52361904Y-35931009D02*
X52266666Y-35978628D01*
X52266666Y-35978628D02*
X51885714Y-35978628D01*
X53409523Y-36454819D02*
X52838095Y-36454819D01*
X53123809Y-36454819D02*
X53123809Y-35454819D01*
X53123809Y-35454819D02*
X53028571Y-35597676D01*
X53028571Y-35597676D02*
X52933333Y-35692914D01*
X52933333Y-35692914D02*
X52838095Y-35740533D01*
X53742857Y-35454819D02*
X54361904Y-35454819D01*
X54361904Y-35454819D02*
X54028571Y-35835771D01*
X54028571Y-35835771D02*
X54171428Y-35835771D01*
X54171428Y-35835771D02*
X54266666Y-35883390D01*
X54266666Y-35883390D02*
X54314285Y-35931009D01*
X54314285Y-35931009D02*
X54361904Y-36026247D01*
X54361904Y-36026247D02*
X54361904Y-36264342D01*
X54361904Y-36264342D02*
X54314285Y-36359580D01*
X54314285Y-36359580D02*
X54266666Y-36407200D01*
X54266666Y-36407200D02*
X54171428Y-36454819D01*
X54171428Y-36454819D02*
X53885714Y-36454819D01*
X53885714Y-36454819D02*
X53790476Y-36407200D01*
X53790476Y-36407200D02*
X53742857Y-36359580D01*
X114404942Y-68153919D02*
X114071609Y-67677728D01*
X113833514Y-68153919D02*
X113833514Y-67153919D01*
X113833514Y-67153919D02*
X114214466Y-67153919D01*
X114214466Y-67153919D02*
X114309704Y-67201538D01*
X114309704Y-67201538D02*
X114357323Y-67249157D01*
X114357323Y-67249157D02*
X114404942Y-67344395D01*
X114404942Y-67344395D02*
X114404942Y-67487252D01*
X114404942Y-67487252D02*
X114357323Y-67582490D01*
X114357323Y-67582490D02*
X114309704Y-67630109D01*
X114309704Y-67630109D02*
X114214466Y-67677728D01*
X114214466Y-67677728D02*
X113833514Y-67677728D01*
X114785895Y-67249157D02*
X114833514Y-67201538D01*
X114833514Y-67201538D02*
X114928752Y-67153919D01*
X114928752Y-67153919D02*
X115166847Y-67153919D01*
X115166847Y-67153919D02*
X115262085Y-67201538D01*
X115262085Y-67201538D02*
X115309704Y-67249157D01*
X115309704Y-67249157D02*
X115357323Y-67344395D01*
X115357323Y-67344395D02*
X115357323Y-67439633D01*
X115357323Y-67439633D02*
X115309704Y-67582490D01*
X115309704Y-67582490D02*
X114738276Y-68153919D01*
X114738276Y-68153919D02*
X115357323Y-68153919D01*
X116262085Y-67153919D02*
X115785895Y-67153919D01*
X115785895Y-67153919D02*
X115738276Y-67630109D01*
X115738276Y-67630109D02*
X115785895Y-67582490D01*
X115785895Y-67582490D02*
X115881133Y-67534871D01*
X115881133Y-67534871D02*
X116119228Y-67534871D01*
X116119228Y-67534871D02*
X116214466Y-67582490D01*
X116214466Y-67582490D02*
X116262085Y-67630109D01*
X116262085Y-67630109D02*
X116309704Y-67725347D01*
X116309704Y-67725347D02*
X116309704Y-67963442D01*
X116309704Y-67963442D02*
X116262085Y-68058680D01*
X116262085Y-68058680D02*
X116214466Y-68106300D01*
X116214466Y-68106300D02*
X116119228Y-68153919D01*
X116119228Y-68153919D02*
X115881133Y-68153919D01*
X115881133Y-68153919D02*
X115785895Y-68106300D01*
X115785895Y-68106300D02*
X115738276Y-68058680D01*
X95504000Y-47095580D02*
X95551619Y-47143200D01*
X95551619Y-47143200D02*
X95504000Y-47190819D01*
X95504000Y-47190819D02*
X95456381Y-47143200D01*
X95456381Y-47143200D02*
X95504000Y-47095580D01*
X95504000Y-47095580D02*
X95504000Y-47190819D01*
X95781905Y-30299819D02*
X95781905Y-29299819D01*
X95781905Y-29299819D02*
X96020000Y-29299819D01*
X96020000Y-29299819D02*
X96162857Y-29347438D01*
X96162857Y-29347438D02*
X96258095Y-29442676D01*
X96258095Y-29442676D02*
X96305714Y-29537914D01*
X96305714Y-29537914D02*
X96353333Y-29728390D01*
X96353333Y-29728390D02*
X96353333Y-29871247D01*
X96353333Y-29871247D02*
X96305714Y-30061723D01*
X96305714Y-30061723D02*
X96258095Y-30156961D01*
X96258095Y-30156961D02*
X96162857Y-30252200D01*
X96162857Y-30252200D02*
X96020000Y-30299819D01*
X96020000Y-30299819D02*
X95781905Y-30299819D01*
X96972381Y-29299819D02*
X97067619Y-29299819D01*
X97067619Y-29299819D02*
X97162857Y-29347438D01*
X97162857Y-29347438D02*
X97210476Y-29395057D01*
X97210476Y-29395057D02*
X97258095Y-29490295D01*
X97258095Y-29490295D02*
X97305714Y-29680771D01*
X97305714Y-29680771D02*
X97305714Y-29918866D01*
X97305714Y-29918866D02*
X97258095Y-30109342D01*
X97258095Y-30109342D02*
X97210476Y-30204580D01*
X97210476Y-30204580D02*
X97162857Y-30252200D01*
X97162857Y-30252200D02*
X97067619Y-30299819D01*
X97067619Y-30299819D02*
X96972381Y-30299819D01*
X96972381Y-30299819D02*
X96877143Y-30252200D01*
X96877143Y-30252200D02*
X96829524Y-30204580D01*
X96829524Y-30204580D02*
X96781905Y-30109342D01*
X96781905Y-30109342D02*
X96734286Y-29918866D01*
X96734286Y-29918866D02*
X96734286Y-29680771D01*
X96734286Y-29680771D02*
X96781905Y-29490295D01*
X96781905Y-29490295D02*
X96829524Y-29395057D01*
X96829524Y-29395057D02*
X96877143Y-29347438D01*
X96877143Y-29347438D02*
X96972381Y-29299819D01*
X108772619Y-59731357D02*
X108296428Y-60064690D01*
X108772619Y-60302785D02*
X107772619Y-60302785D01*
X107772619Y-60302785D02*
X107772619Y-59921833D01*
X107772619Y-59921833D02*
X107820238Y-59826595D01*
X107820238Y-59826595D02*
X107867857Y-59778976D01*
X107867857Y-59778976D02*
X107963095Y-59731357D01*
X107963095Y-59731357D02*
X108105952Y-59731357D01*
X108105952Y-59731357D02*
X108201190Y-59778976D01*
X108201190Y-59778976D02*
X108248809Y-59826595D01*
X108248809Y-59826595D02*
X108296428Y-59921833D01*
X108296428Y-59921833D02*
X108296428Y-60302785D01*
X107867857Y-59350404D02*
X107820238Y-59302785D01*
X107820238Y-59302785D02*
X107772619Y-59207547D01*
X107772619Y-59207547D02*
X107772619Y-58969452D01*
X107772619Y-58969452D02*
X107820238Y-58874214D01*
X107820238Y-58874214D02*
X107867857Y-58826595D01*
X107867857Y-58826595D02*
X107963095Y-58778976D01*
X107963095Y-58778976D02*
X108058333Y-58778976D01*
X108058333Y-58778976D02*
X108201190Y-58826595D01*
X108201190Y-58826595D02*
X108772619Y-59398023D01*
X108772619Y-59398023D02*
X108772619Y-58778976D01*
X107772619Y-58445642D02*
X107772619Y-57778976D01*
X107772619Y-57778976D02*
X108772619Y-58207547D01*
X41390033Y-40092980D02*
X41342414Y-40140600D01*
X41342414Y-40140600D02*
X41199557Y-40188219D01*
X41199557Y-40188219D02*
X41104319Y-40188219D01*
X41104319Y-40188219D02*
X40961462Y-40140600D01*
X40961462Y-40140600D02*
X40866224Y-40045361D01*
X40866224Y-40045361D02*
X40818605Y-39950123D01*
X40818605Y-39950123D02*
X40770986Y-39759647D01*
X40770986Y-39759647D02*
X40770986Y-39616790D01*
X40770986Y-39616790D02*
X40818605Y-39426314D01*
X40818605Y-39426314D02*
X40866224Y-39331076D01*
X40866224Y-39331076D02*
X40961462Y-39235838D01*
X40961462Y-39235838D02*
X41104319Y-39188219D01*
X41104319Y-39188219D02*
X41199557Y-39188219D01*
X41199557Y-39188219D02*
X41342414Y-39235838D01*
X41342414Y-39235838D02*
X41390033Y-39283457D01*
X41723367Y-39188219D02*
X42342414Y-39188219D01*
X42342414Y-39188219D02*
X42009081Y-39569171D01*
X42009081Y-39569171D02*
X42151938Y-39569171D01*
X42151938Y-39569171D02*
X42247176Y-39616790D01*
X42247176Y-39616790D02*
X42294795Y-39664409D01*
X42294795Y-39664409D02*
X42342414Y-39759647D01*
X42342414Y-39759647D02*
X42342414Y-39997742D01*
X42342414Y-39997742D02*
X42294795Y-40092980D01*
X42294795Y-40092980D02*
X42247176Y-40140600D01*
X42247176Y-40140600D02*
X42151938Y-40188219D01*
X42151938Y-40188219D02*
X41866224Y-40188219D01*
X41866224Y-40188219D02*
X41770986Y-40140600D01*
X41770986Y-40140600D02*
X41723367Y-40092980D01*
X41864819Y-81409523D02*
X42579104Y-81409523D01*
X42579104Y-81409523D02*
X42721961Y-81457142D01*
X42721961Y-81457142D02*
X42817200Y-81552380D01*
X42817200Y-81552380D02*
X42864819Y-81695237D01*
X42864819Y-81695237D02*
X42864819Y-81790475D01*
X41960057Y-80980951D02*
X41912438Y-80933332D01*
X41912438Y-80933332D02*
X41864819Y-80838094D01*
X41864819Y-80838094D02*
X41864819Y-80599999D01*
X41864819Y-80599999D02*
X41912438Y-80504761D01*
X41912438Y-80504761D02*
X41960057Y-80457142D01*
X41960057Y-80457142D02*
X42055295Y-80409523D01*
X42055295Y-80409523D02*
X42150533Y-80409523D01*
X42150533Y-80409523D02*
X42293390Y-80457142D01*
X42293390Y-80457142D02*
X42864819Y-81028570D01*
X42864819Y-81028570D02*
X42864819Y-80409523D01*
X41864819Y-80076189D02*
X41864819Y-79457142D01*
X41864819Y-79457142D02*
X42245771Y-79790475D01*
X42245771Y-79790475D02*
X42245771Y-79647618D01*
X42245771Y-79647618D02*
X42293390Y-79552380D01*
X42293390Y-79552380D02*
X42341009Y-79504761D01*
X42341009Y-79504761D02*
X42436247Y-79457142D01*
X42436247Y-79457142D02*
X42674342Y-79457142D01*
X42674342Y-79457142D02*
X42769580Y-79504761D01*
X42769580Y-79504761D02*
X42817200Y-79552380D01*
X42817200Y-79552380D02*
X42864819Y-79647618D01*
X42864819Y-79647618D02*
X42864819Y-79933332D01*
X42864819Y-79933332D02*
X42817200Y-80028570D01*
X42817200Y-80028570D02*
X42769580Y-80076189D01*
X76411519Y-37257266D02*
X75935328Y-37590599D01*
X76411519Y-37828694D02*
X75411519Y-37828694D01*
X75411519Y-37828694D02*
X75411519Y-37447742D01*
X75411519Y-37447742D02*
X75459138Y-37352504D01*
X75459138Y-37352504D02*
X75506757Y-37304885D01*
X75506757Y-37304885D02*
X75601995Y-37257266D01*
X75601995Y-37257266D02*
X75744852Y-37257266D01*
X75744852Y-37257266D02*
X75840090Y-37304885D01*
X75840090Y-37304885D02*
X75887709Y-37352504D01*
X75887709Y-37352504D02*
X75935328Y-37447742D01*
X75935328Y-37447742D02*
X75935328Y-37828694D01*
X75411519Y-36923932D02*
X75411519Y-36304885D01*
X75411519Y-36304885D02*
X75792471Y-36638218D01*
X75792471Y-36638218D02*
X75792471Y-36495361D01*
X75792471Y-36495361D02*
X75840090Y-36400123D01*
X75840090Y-36400123D02*
X75887709Y-36352504D01*
X75887709Y-36352504D02*
X75982947Y-36304885D01*
X75982947Y-36304885D02*
X76221042Y-36304885D01*
X76221042Y-36304885D02*
X76316280Y-36352504D01*
X76316280Y-36352504D02*
X76363900Y-36400123D01*
X76363900Y-36400123D02*
X76411519Y-36495361D01*
X76411519Y-36495361D02*
X76411519Y-36781075D01*
X76411519Y-36781075D02*
X76363900Y-36876313D01*
X76363900Y-36876313D02*
X76316280Y-36923932D01*
X41439633Y-52472780D02*
X41392014Y-52520400D01*
X41392014Y-52520400D02*
X41249157Y-52568019D01*
X41249157Y-52568019D02*
X41153919Y-52568019D01*
X41153919Y-52568019D02*
X41011062Y-52520400D01*
X41011062Y-52520400D02*
X40915824Y-52425161D01*
X40915824Y-52425161D02*
X40868205Y-52329923D01*
X40868205Y-52329923D02*
X40820586Y-52139447D01*
X40820586Y-52139447D02*
X40820586Y-51996590D01*
X40820586Y-51996590D02*
X40868205Y-51806114D01*
X40868205Y-51806114D02*
X40915824Y-51710876D01*
X40915824Y-51710876D02*
X41011062Y-51615638D01*
X41011062Y-51615638D02*
X41153919Y-51568019D01*
X41153919Y-51568019D02*
X41249157Y-51568019D01*
X41249157Y-51568019D02*
X41392014Y-51615638D01*
X41392014Y-51615638D02*
X41439633Y-51663257D01*
X42344395Y-51568019D02*
X41868205Y-51568019D01*
X41868205Y-51568019D02*
X41820586Y-52044209D01*
X41820586Y-52044209D02*
X41868205Y-51996590D01*
X41868205Y-51996590D02*
X41963443Y-51948971D01*
X41963443Y-51948971D02*
X42201538Y-51948971D01*
X42201538Y-51948971D02*
X42296776Y-51996590D01*
X42296776Y-51996590D02*
X42344395Y-52044209D01*
X42344395Y-52044209D02*
X42392014Y-52139447D01*
X42392014Y-52139447D02*
X42392014Y-52377542D01*
X42392014Y-52377542D02*
X42344395Y-52472780D01*
X42344395Y-52472780D02*
X42296776Y-52520400D01*
X42296776Y-52520400D02*
X42201538Y-52568019D01*
X42201538Y-52568019D02*
X41963443Y-52568019D01*
X41963443Y-52568019D02*
X41868205Y-52520400D01*
X41868205Y-52520400D02*
X41820586Y-52472780D01*
X68728595Y-52988819D02*
X68728595Y-53798342D01*
X68728595Y-53798342D02*
X68776214Y-53893580D01*
X68776214Y-53893580D02*
X68823833Y-53941200D01*
X68823833Y-53941200D02*
X68919071Y-53988819D01*
X68919071Y-53988819D02*
X69109547Y-53988819D01*
X69109547Y-53988819D02*
X69204785Y-53941200D01*
X69204785Y-53941200D02*
X69252404Y-53893580D01*
X69252404Y-53893580D02*
X69300023Y-53798342D01*
X69300023Y-53798342D02*
X69300023Y-52988819D01*
X70252404Y-52988819D02*
X69776214Y-52988819D01*
X69776214Y-52988819D02*
X69728595Y-53465009D01*
X69728595Y-53465009D02*
X69776214Y-53417390D01*
X69776214Y-53417390D02*
X69871452Y-53369771D01*
X69871452Y-53369771D02*
X70109547Y-53369771D01*
X70109547Y-53369771D02*
X70204785Y-53417390D01*
X70204785Y-53417390D02*
X70252404Y-53465009D01*
X70252404Y-53465009D02*
X70300023Y-53560247D01*
X70300023Y-53560247D02*
X70300023Y-53798342D01*
X70300023Y-53798342D02*
X70252404Y-53893580D01*
X70252404Y-53893580D02*
X70204785Y-53941200D01*
X70204785Y-53941200D02*
X70109547Y-53988819D01*
X70109547Y-53988819D02*
X69871452Y-53988819D01*
X69871452Y-53988819D02*
X69776214Y-53941200D01*
X69776214Y-53941200D02*
X69728595Y-53893580D01*
X52519342Y-58771980D02*
X52471723Y-58819600D01*
X52471723Y-58819600D02*
X52328866Y-58867219D01*
X52328866Y-58867219D02*
X52233628Y-58867219D01*
X52233628Y-58867219D02*
X52090771Y-58819600D01*
X52090771Y-58819600D02*
X51995533Y-58724361D01*
X51995533Y-58724361D02*
X51947914Y-58629123D01*
X51947914Y-58629123D02*
X51900295Y-58438647D01*
X51900295Y-58438647D02*
X51900295Y-58295790D01*
X51900295Y-58295790D02*
X51947914Y-58105314D01*
X51947914Y-58105314D02*
X51995533Y-58010076D01*
X51995533Y-58010076D02*
X52090771Y-57914838D01*
X52090771Y-57914838D02*
X52233628Y-57867219D01*
X52233628Y-57867219D02*
X52328866Y-57867219D01*
X52328866Y-57867219D02*
X52471723Y-57914838D01*
X52471723Y-57914838D02*
X52519342Y-57962457D01*
X53471723Y-58867219D02*
X52900295Y-58867219D01*
X53186009Y-58867219D02*
X53186009Y-57867219D01*
X53186009Y-57867219D02*
X53090771Y-58010076D01*
X53090771Y-58010076D02*
X52995533Y-58105314D01*
X52995533Y-58105314D02*
X52900295Y-58152933D01*
X53805057Y-57867219D02*
X54424104Y-57867219D01*
X54424104Y-57867219D02*
X54090771Y-58248171D01*
X54090771Y-58248171D02*
X54233628Y-58248171D01*
X54233628Y-58248171D02*
X54328866Y-58295790D01*
X54328866Y-58295790D02*
X54376485Y-58343409D01*
X54376485Y-58343409D02*
X54424104Y-58438647D01*
X54424104Y-58438647D02*
X54424104Y-58676742D01*
X54424104Y-58676742D02*
X54376485Y-58771980D01*
X54376485Y-58771980D02*
X54328866Y-58819600D01*
X54328866Y-58819600D02*
X54233628Y-58867219D01*
X54233628Y-58867219D02*
X53947914Y-58867219D01*
X53947914Y-58867219D02*
X53852676Y-58819600D01*
X53852676Y-58819600D02*
X53805057Y-58771980D01*
X96693105Y-66619619D02*
X96693105Y-67429142D01*
X96693105Y-67429142D02*
X96740724Y-67524380D01*
X96740724Y-67524380D02*
X96788343Y-67572000D01*
X96788343Y-67572000D02*
X96883581Y-67619619D01*
X96883581Y-67619619D02*
X97074057Y-67619619D01*
X97074057Y-67619619D02*
X97169295Y-67572000D01*
X97169295Y-67572000D02*
X97216914Y-67524380D01*
X97216914Y-67524380D02*
X97264533Y-67429142D01*
X97264533Y-67429142D02*
X97264533Y-66619619D01*
X98264533Y-67619619D02*
X97693105Y-67619619D01*
X97978819Y-67619619D02*
X97978819Y-66619619D01*
X97978819Y-66619619D02*
X97883581Y-66762476D01*
X97883581Y-66762476D02*
X97788343Y-66857714D01*
X97788343Y-66857714D02*
X97693105Y-66905333D01*
X98597867Y-66619619D02*
X99264533Y-66619619D01*
X99264533Y-66619619D02*
X98835962Y-67619619D01*
X76405719Y-66317857D02*
X75929528Y-66651190D01*
X76405719Y-66889285D02*
X75405719Y-66889285D01*
X75405719Y-66889285D02*
X75405719Y-66508333D01*
X75405719Y-66508333D02*
X75453338Y-66413095D01*
X75453338Y-66413095D02*
X75500957Y-66365476D01*
X75500957Y-66365476D02*
X75596195Y-66317857D01*
X75596195Y-66317857D02*
X75739052Y-66317857D01*
X75739052Y-66317857D02*
X75834290Y-66365476D01*
X75834290Y-66365476D02*
X75881909Y-66413095D01*
X75881909Y-66413095D02*
X75929528Y-66508333D01*
X75929528Y-66508333D02*
X75929528Y-66889285D01*
X76405719Y-65365476D02*
X76405719Y-65936904D01*
X76405719Y-65651190D02*
X75405719Y-65651190D01*
X75405719Y-65651190D02*
X75548576Y-65746428D01*
X75548576Y-65746428D02*
X75643814Y-65841666D01*
X75643814Y-65841666D02*
X75691433Y-65936904D01*
X75500957Y-64984523D02*
X75453338Y-64936904D01*
X75453338Y-64936904D02*
X75405719Y-64841666D01*
X75405719Y-64841666D02*
X75405719Y-64603571D01*
X75405719Y-64603571D02*
X75453338Y-64508333D01*
X75453338Y-64508333D02*
X75500957Y-64460714D01*
X75500957Y-64460714D02*
X75596195Y-64413095D01*
X75596195Y-64413095D02*
X75691433Y-64413095D01*
X75691433Y-64413095D02*
X75834290Y-64460714D01*
X75834290Y-64460714D02*
X76405719Y-65032142D01*
X76405719Y-65032142D02*
X76405719Y-64413095D01*
X68915142Y-60987580D02*
X68867523Y-61035200D01*
X68867523Y-61035200D02*
X68724666Y-61082819D01*
X68724666Y-61082819D02*
X68629428Y-61082819D01*
X68629428Y-61082819D02*
X68486571Y-61035200D01*
X68486571Y-61035200D02*
X68391333Y-60939961D01*
X68391333Y-60939961D02*
X68343714Y-60844723D01*
X68343714Y-60844723D02*
X68296095Y-60654247D01*
X68296095Y-60654247D02*
X68296095Y-60511390D01*
X68296095Y-60511390D02*
X68343714Y-60320914D01*
X68343714Y-60320914D02*
X68391333Y-60225676D01*
X68391333Y-60225676D02*
X68486571Y-60130438D01*
X68486571Y-60130438D02*
X68629428Y-60082819D01*
X68629428Y-60082819D02*
X68724666Y-60082819D01*
X68724666Y-60082819D02*
X68867523Y-60130438D01*
X68867523Y-60130438D02*
X68915142Y-60178057D01*
X69296095Y-60178057D02*
X69343714Y-60130438D01*
X69343714Y-60130438D02*
X69438952Y-60082819D01*
X69438952Y-60082819D02*
X69677047Y-60082819D01*
X69677047Y-60082819D02*
X69772285Y-60130438D01*
X69772285Y-60130438D02*
X69819904Y-60178057D01*
X69819904Y-60178057D02*
X69867523Y-60273295D01*
X69867523Y-60273295D02*
X69867523Y-60368533D01*
X69867523Y-60368533D02*
X69819904Y-60511390D01*
X69819904Y-60511390D02*
X69248476Y-61082819D01*
X69248476Y-61082819D02*
X69867523Y-61082819D01*
X70200857Y-60082819D02*
X70819904Y-60082819D01*
X70819904Y-60082819D02*
X70486571Y-60463771D01*
X70486571Y-60463771D02*
X70629428Y-60463771D01*
X70629428Y-60463771D02*
X70724666Y-60511390D01*
X70724666Y-60511390D02*
X70772285Y-60559009D01*
X70772285Y-60559009D02*
X70819904Y-60654247D01*
X70819904Y-60654247D02*
X70819904Y-60892342D01*
X70819904Y-60892342D02*
X70772285Y-60987580D01*
X70772285Y-60987580D02*
X70724666Y-61035200D01*
X70724666Y-61035200D02*
X70629428Y-61082819D01*
X70629428Y-61082819D02*
X70343714Y-61082819D01*
X70343714Y-61082819D02*
X70248476Y-61035200D01*
X70248476Y-61035200D02*
X70200857Y-60987580D01*
X84368142Y-66356380D02*
X84320523Y-66404000D01*
X84320523Y-66404000D02*
X84177666Y-66451619D01*
X84177666Y-66451619D02*
X84082428Y-66451619D01*
X84082428Y-66451619D02*
X83939571Y-66404000D01*
X83939571Y-66404000D02*
X83844333Y-66308761D01*
X83844333Y-66308761D02*
X83796714Y-66213523D01*
X83796714Y-66213523D02*
X83749095Y-66023047D01*
X83749095Y-66023047D02*
X83749095Y-65880190D01*
X83749095Y-65880190D02*
X83796714Y-65689714D01*
X83796714Y-65689714D02*
X83844333Y-65594476D01*
X83844333Y-65594476D02*
X83939571Y-65499238D01*
X83939571Y-65499238D02*
X84082428Y-65451619D01*
X84082428Y-65451619D02*
X84177666Y-65451619D01*
X84177666Y-65451619D02*
X84320523Y-65499238D01*
X84320523Y-65499238D02*
X84368142Y-65546857D01*
X84749095Y-65546857D02*
X84796714Y-65499238D01*
X84796714Y-65499238D02*
X84891952Y-65451619D01*
X84891952Y-65451619D02*
X85130047Y-65451619D01*
X85130047Y-65451619D02*
X85225285Y-65499238D01*
X85225285Y-65499238D02*
X85272904Y-65546857D01*
X85272904Y-65546857D02*
X85320523Y-65642095D01*
X85320523Y-65642095D02*
X85320523Y-65737333D01*
X85320523Y-65737333D02*
X85272904Y-65880190D01*
X85272904Y-65880190D02*
X84701476Y-66451619D01*
X84701476Y-66451619D02*
X85320523Y-66451619D01*
X85653857Y-65451619D02*
X86320523Y-65451619D01*
X86320523Y-65451619D02*
X85891952Y-66451619D01*
X41463933Y-63232180D02*
X41416314Y-63279800D01*
X41416314Y-63279800D02*
X41273457Y-63327419D01*
X41273457Y-63327419D02*
X41178219Y-63327419D01*
X41178219Y-63327419D02*
X41035362Y-63279800D01*
X41035362Y-63279800D02*
X40940124Y-63184561D01*
X40940124Y-63184561D02*
X40892505Y-63089323D01*
X40892505Y-63089323D02*
X40844886Y-62898847D01*
X40844886Y-62898847D02*
X40844886Y-62755990D01*
X40844886Y-62755990D02*
X40892505Y-62565514D01*
X40892505Y-62565514D02*
X40940124Y-62470276D01*
X40940124Y-62470276D02*
X41035362Y-62375038D01*
X41035362Y-62375038D02*
X41178219Y-62327419D01*
X41178219Y-62327419D02*
X41273457Y-62327419D01*
X41273457Y-62327419D02*
X41416314Y-62375038D01*
X41416314Y-62375038D02*
X41463933Y-62422657D01*
X42321076Y-62327419D02*
X42130600Y-62327419D01*
X42130600Y-62327419D02*
X42035362Y-62375038D01*
X42035362Y-62375038D02*
X41987743Y-62422657D01*
X41987743Y-62422657D02*
X41892505Y-62565514D01*
X41892505Y-62565514D02*
X41844886Y-62755990D01*
X41844886Y-62755990D02*
X41844886Y-63136942D01*
X41844886Y-63136942D02*
X41892505Y-63232180D01*
X41892505Y-63232180D02*
X41940124Y-63279800D01*
X41940124Y-63279800D02*
X42035362Y-63327419D01*
X42035362Y-63327419D02*
X42225838Y-63327419D01*
X42225838Y-63327419D02*
X42321076Y-63279800D01*
X42321076Y-63279800D02*
X42368695Y-63232180D01*
X42368695Y-63232180D02*
X42416314Y-63136942D01*
X42416314Y-63136942D02*
X42416314Y-62898847D01*
X42416314Y-62898847D02*
X42368695Y-62803609D01*
X42368695Y-62803609D02*
X42321076Y-62755990D01*
X42321076Y-62755990D02*
X42225838Y-62708371D01*
X42225838Y-62708371D02*
X42035362Y-62708371D01*
X42035362Y-62708371D02*
X41940124Y-62755990D01*
X41940124Y-62755990D02*
X41892505Y-62803609D01*
X41892505Y-62803609D02*
X41844886Y-62898847D01*
X63228342Y-39638180D02*
X63180723Y-39685800D01*
X63180723Y-39685800D02*
X63037866Y-39733419D01*
X63037866Y-39733419D02*
X62942628Y-39733419D01*
X62942628Y-39733419D02*
X62799771Y-39685800D01*
X62799771Y-39685800D02*
X62704533Y-39590561D01*
X62704533Y-39590561D02*
X62656914Y-39495323D01*
X62656914Y-39495323D02*
X62609295Y-39304847D01*
X62609295Y-39304847D02*
X62609295Y-39161990D01*
X62609295Y-39161990D02*
X62656914Y-38971514D01*
X62656914Y-38971514D02*
X62704533Y-38876276D01*
X62704533Y-38876276D02*
X62799771Y-38781038D01*
X62799771Y-38781038D02*
X62942628Y-38733419D01*
X62942628Y-38733419D02*
X63037866Y-38733419D01*
X63037866Y-38733419D02*
X63180723Y-38781038D01*
X63180723Y-38781038D02*
X63228342Y-38828657D01*
X63561676Y-38733419D02*
X64180723Y-38733419D01*
X64180723Y-38733419D02*
X63847390Y-39114371D01*
X63847390Y-39114371D02*
X63990247Y-39114371D01*
X63990247Y-39114371D02*
X64085485Y-39161990D01*
X64085485Y-39161990D02*
X64133104Y-39209609D01*
X64133104Y-39209609D02*
X64180723Y-39304847D01*
X64180723Y-39304847D02*
X64180723Y-39542942D01*
X64180723Y-39542942D02*
X64133104Y-39638180D01*
X64133104Y-39638180D02*
X64085485Y-39685800D01*
X64085485Y-39685800D02*
X63990247Y-39733419D01*
X63990247Y-39733419D02*
X63704533Y-39733419D01*
X63704533Y-39733419D02*
X63609295Y-39685800D01*
X63609295Y-39685800D02*
X63561676Y-39638180D01*
X65085485Y-38733419D02*
X64609295Y-38733419D01*
X64609295Y-38733419D02*
X64561676Y-39209609D01*
X64561676Y-39209609D02*
X64609295Y-39161990D01*
X64609295Y-39161990D02*
X64704533Y-39114371D01*
X64704533Y-39114371D02*
X64942628Y-39114371D01*
X64942628Y-39114371D02*
X65037866Y-39161990D01*
X65037866Y-39161990D02*
X65085485Y-39209609D01*
X65085485Y-39209609D02*
X65133104Y-39304847D01*
X65133104Y-39304847D02*
X65133104Y-39542942D01*
X65133104Y-39542942D02*
X65085485Y-39638180D01*
X65085485Y-39638180D02*
X65037866Y-39685800D01*
X65037866Y-39685800D02*
X64942628Y-39733419D01*
X64942628Y-39733419D02*
X64704533Y-39733419D01*
X64704533Y-39733419D02*
X64609295Y-39685800D01*
X64609295Y-39685800D02*
X64561676Y-39638180D01*
X84290842Y-46417380D02*
X84243223Y-46465000D01*
X84243223Y-46465000D02*
X84100366Y-46512619D01*
X84100366Y-46512619D02*
X84005128Y-46512619D01*
X84005128Y-46512619D02*
X83862271Y-46465000D01*
X83862271Y-46465000D02*
X83767033Y-46369761D01*
X83767033Y-46369761D02*
X83719414Y-46274523D01*
X83719414Y-46274523D02*
X83671795Y-46084047D01*
X83671795Y-46084047D02*
X83671795Y-45941190D01*
X83671795Y-45941190D02*
X83719414Y-45750714D01*
X83719414Y-45750714D02*
X83767033Y-45655476D01*
X83767033Y-45655476D02*
X83862271Y-45560238D01*
X83862271Y-45560238D02*
X84005128Y-45512619D01*
X84005128Y-45512619D02*
X84100366Y-45512619D01*
X84100366Y-45512619D02*
X84243223Y-45560238D01*
X84243223Y-45560238D02*
X84290842Y-45607857D01*
X84671795Y-45607857D02*
X84719414Y-45560238D01*
X84719414Y-45560238D02*
X84814652Y-45512619D01*
X84814652Y-45512619D02*
X85052747Y-45512619D01*
X85052747Y-45512619D02*
X85147985Y-45560238D01*
X85147985Y-45560238D02*
X85195604Y-45607857D01*
X85195604Y-45607857D02*
X85243223Y-45703095D01*
X85243223Y-45703095D02*
X85243223Y-45798333D01*
X85243223Y-45798333D02*
X85195604Y-45941190D01*
X85195604Y-45941190D02*
X84624176Y-46512619D01*
X84624176Y-46512619D02*
X85243223Y-46512619D01*
X86147985Y-45512619D02*
X85671795Y-45512619D01*
X85671795Y-45512619D02*
X85624176Y-45988809D01*
X85624176Y-45988809D02*
X85671795Y-45941190D01*
X85671795Y-45941190D02*
X85767033Y-45893571D01*
X85767033Y-45893571D02*
X86005128Y-45893571D01*
X86005128Y-45893571D02*
X86100366Y-45941190D01*
X86100366Y-45941190D02*
X86147985Y-45988809D01*
X86147985Y-45988809D02*
X86195604Y-46084047D01*
X86195604Y-46084047D02*
X86195604Y-46322142D01*
X86195604Y-46322142D02*
X86147985Y-46417380D01*
X86147985Y-46417380D02*
X86100366Y-46465000D01*
X86100366Y-46465000D02*
X86005128Y-46512619D01*
X86005128Y-46512619D02*
X85767033Y-46512619D01*
X85767033Y-46512619D02*
X85671795Y-46465000D01*
X85671795Y-46465000D02*
X85624176Y-46417380D01*
X102508476Y-25414819D02*
X102508476Y-26129104D01*
X102508476Y-26129104D02*
X102460857Y-26271961D01*
X102460857Y-26271961D02*
X102365619Y-26367200D01*
X102365619Y-26367200D02*
X102222762Y-26414819D01*
X102222762Y-26414819D02*
X102127524Y-26414819D01*
X103508476Y-26414819D02*
X102937048Y-26414819D01*
X103222762Y-26414819D02*
X103222762Y-25414819D01*
X103222762Y-25414819D02*
X103127524Y-25557676D01*
X103127524Y-25557676D02*
X103032286Y-25652914D01*
X103032286Y-25652914D02*
X102937048Y-25700533D01*
X104460857Y-26414819D02*
X103889429Y-26414819D01*
X104175143Y-26414819D02*
X104175143Y-25414819D01*
X104175143Y-25414819D02*
X104079905Y-25557676D01*
X104079905Y-25557676D02*
X103984667Y-25652914D01*
X103984667Y-25652914D02*
X103889429Y-25700533D01*
X83746405Y-58373619D02*
X83746405Y-59183142D01*
X83746405Y-59183142D02*
X83794024Y-59278380D01*
X83794024Y-59278380D02*
X83841643Y-59326000D01*
X83841643Y-59326000D02*
X83936881Y-59373619D01*
X83936881Y-59373619D02*
X84127357Y-59373619D01*
X84127357Y-59373619D02*
X84222595Y-59326000D01*
X84222595Y-59326000D02*
X84270214Y-59278380D01*
X84270214Y-59278380D02*
X84317833Y-59183142D01*
X84317833Y-59183142D02*
X84317833Y-58373619D01*
X85317833Y-59373619D02*
X84746405Y-59373619D01*
X85032119Y-59373619D02*
X85032119Y-58373619D01*
X85032119Y-58373619D02*
X84936881Y-58516476D01*
X84936881Y-58516476D02*
X84841643Y-58611714D01*
X84841643Y-58611714D02*
X84746405Y-58659333D01*
X85651167Y-58373619D02*
X86270214Y-58373619D01*
X86270214Y-58373619D02*
X85936881Y-58754571D01*
X85936881Y-58754571D02*
X86079738Y-58754571D01*
X86079738Y-58754571D02*
X86174976Y-58802190D01*
X86174976Y-58802190D02*
X86222595Y-58849809D01*
X86222595Y-58849809D02*
X86270214Y-58945047D01*
X86270214Y-58945047D02*
X86270214Y-59183142D01*
X86270214Y-59183142D02*
X86222595Y-59278380D01*
X86222595Y-59278380D02*
X86174976Y-59326000D01*
X86174976Y-59326000D02*
X86079738Y-59373619D01*
X86079738Y-59373619D02*
X85794024Y-59373619D01*
X85794024Y-59373619D02*
X85698786Y-59326000D01*
X85698786Y-59326000D02*
X85651167Y-59278380D01*
X107147019Y-63693757D02*
X106670828Y-64027090D01*
X107147019Y-64265185D02*
X106147019Y-64265185D01*
X106147019Y-64265185D02*
X106147019Y-63884233D01*
X106147019Y-63884233D02*
X106194638Y-63788995D01*
X106194638Y-63788995D02*
X106242257Y-63741376D01*
X106242257Y-63741376D02*
X106337495Y-63693757D01*
X106337495Y-63693757D02*
X106480352Y-63693757D01*
X106480352Y-63693757D02*
X106575590Y-63741376D01*
X106575590Y-63741376D02*
X106623209Y-63788995D01*
X106623209Y-63788995D02*
X106670828Y-63884233D01*
X106670828Y-63884233D02*
X106670828Y-64265185D01*
X106242257Y-63312804D02*
X106194638Y-63265185D01*
X106194638Y-63265185D02*
X106147019Y-63169947D01*
X106147019Y-63169947D02*
X106147019Y-62931852D01*
X106147019Y-62931852D02*
X106194638Y-62836614D01*
X106194638Y-62836614D02*
X106242257Y-62788995D01*
X106242257Y-62788995D02*
X106337495Y-62741376D01*
X106337495Y-62741376D02*
X106432733Y-62741376D01*
X106432733Y-62741376D02*
X106575590Y-62788995D01*
X106575590Y-62788995D02*
X107147019Y-63360423D01*
X107147019Y-63360423D02*
X107147019Y-62741376D01*
X106147019Y-61884233D02*
X106147019Y-62074709D01*
X106147019Y-62074709D02*
X106194638Y-62169947D01*
X106194638Y-62169947D02*
X106242257Y-62217566D01*
X106242257Y-62217566D02*
X106385114Y-62312804D01*
X106385114Y-62312804D02*
X106575590Y-62360423D01*
X106575590Y-62360423D02*
X106956542Y-62360423D01*
X106956542Y-62360423D02*
X107051780Y-62312804D01*
X107051780Y-62312804D02*
X107099400Y-62265185D01*
X107099400Y-62265185D02*
X107147019Y-62169947D01*
X107147019Y-62169947D02*
X107147019Y-61979471D01*
X107147019Y-61979471D02*
X107099400Y-61884233D01*
X107099400Y-61884233D02*
X107051780Y-61836614D01*
X107051780Y-61836614D02*
X106956542Y-61788995D01*
X106956542Y-61788995D02*
X106718447Y-61788995D01*
X106718447Y-61788995D02*
X106623209Y-61836614D01*
X106623209Y-61836614D02*
X106575590Y-61884233D01*
X106575590Y-61884233D02*
X106527971Y-61979471D01*
X106527971Y-61979471D02*
X106527971Y-62169947D01*
X106527971Y-62169947D02*
X106575590Y-62265185D01*
X106575590Y-62265185D02*
X106623209Y-62312804D01*
X106623209Y-62312804D02*
X106718447Y-62360423D01*
X37587019Y-73490733D02*
X38301304Y-73490733D01*
X38301304Y-73490733D02*
X38444161Y-73538352D01*
X38444161Y-73538352D02*
X38539400Y-73633590D01*
X38539400Y-73633590D02*
X38587019Y-73776447D01*
X38587019Y-73776447D02*
X38587019Y-73871685D01*
X37920352Y-72585971D02*
X38587019Y-72585971D01*
X37539400Y-72824066D02*
X38253685Y-73062161D01*
X38253685Y-73062161D02*
X38253685Y-72443114D01*
X67867476Y-25436819D02*
X67867476Y-26151104D01*
X67867476Y-26151104D02*
X67819857Y-26293961D01*
X67819857Y-26293961D02*
X67724619Y-26389200D01*
X67724619Y-26389200D02*
X67581762Y-26436819D01*
X67581762Y-26436819D02*
X67486524Y-26436819D01*
X68867476Y-26436819D02*
X68296048Y-26436819D01*
X68581762Y-26436819D02*
X68581762Y-25436819D01*
X68581762Y-25436819D02*
X68486524Y-25579676D01*
X68486524Y-25579676D02*
X68391286Y-25674914D01*
X68391286Y-25674914D02*
X68296048Y-25722533D01*
X69343667Y-26436819D02*
X69534143Y-26436819D01*
X69534143Y-26436819D02*
X69629381Y-26389200D01*
X69629381Y-26389200D02*
X69677000Y-26341580D01*
X69677000Y-26341580D02*
X69772238Y-26198723D01*
X69772238Y-26198723D02*
X69819857Y-26008247D01*
X69819857Y-26008247D02*
X69819857Y-25627295D01*
X69819857Y-25627295D02*
X69772238Y-25532057D01*
X69772238Y-25532057D02*
X69724619Y-25484438D01*
X69724619Y-25484438D02*
X69629381Y-25436819D01*
X69629381Y-25436819D02*
X69438905Y-25436819D01*
X69438905Y-25436819D02*
X69343667Y-25484438D01*
X69343667Y-25484438D02*
X69296048Y-25532057D01*
X69296048Y-25532057D02*
X69248429Y-25627295D01*
X69248429Y-25627295D02*
X69248429Y-25865390D01*
X69248429Y-25865390D02*
X69296048Y-25960628D01*
X69296048Y-25960628D02*
X69343667Y-26008247D01*
X69343667Y-26008247D02*
X69438905Y-26055866D01*
X69438905Y-26055866D02*
X69629381Y-26055866D01*
X69629381Y-26055866D02*
X69724619Y-26008247D01*
X69724619Y-26008247D02*
X69772238Y-25960628D01*
X69772238Y-25960628D02*
X69819857Y-25865390D01*
X76456519Y-46766266D02*
X75980328Y-47099599D01*
X76456519Y-47337694D02*
X75456519Y-47337694D01*
X75456519Y-47337694D02*
X75456519Y-46956742D01*
X75456519Y-46956742D02*
X75504138Y-46861504D01*
X75504138Y-46861504D02*
X75551757Y-46813885D01*
X75551757Y-46813885D02*
X75646995Y-46766266D01*
X75646995Y-46766266D02*
X75789852Y-46766266D01*
X75789852Y-46766266D02*
X75885090Y-46813885D01*
X75885090Y-46813885D02*
X75932709Y-46861504D01*
X75932709Y-46861504D02*
X75980328Y-46956742D01*
X75980328Y-46956742D02*
X75980328Y-47337694D01*
X75456519Y-45909123D02*
X75456519Y-46099599D01*
X75456519Y-46099599D02*
X75504138Y-46194837D01*
X75504138Y-46194837D02*
X75551757Y-46242456D01*
X75551757Y-46242456D02*
X75694614Y-46337694D01*
X75694614Y-46337694D02*
X75885090Y-46385313D01*
X75885090Y-46385313D02*
X76266042Y-46385313D01*
X76266042Y-46385313D02*
X76361280Y-46337694D01*
X76361280Y-46337694D02*
X76408900Y-46290075D01*
X76408900Y-46290075D02*
X76456519Y-46194837D01*
X76456519Y-46194837D02*
X76456519Y-46004361D01*
X76456519Y-46004361D02*
X76408900Y-45909123D01*
X76408900Y-45909123D02*
X76361280Y-45861504D01*
X76361280Y-45861504D02*
X76266042Y-45813885D01*
X76266042Y-45813885D02*
X76027947Y-45813885D01*
X76027947Y-45813885D02*
X75932709Y-45861504D01*
X75932709Y-45861504D02*
X75885090Y-45909123D01*
X75885090Y-45909123D02*
X75837471Y-46004361D01*
X75837471Y-46004361D02*
X75837471Y-46194837D01*
X75837471Y-46194837D02*
X75885090Y-46290075D01*
X75885090Y-46290075D02*
X75932709Y-46337694D01*
X75932709Y-46337694D02*
X76027947Y-46385313D01*
X52432642Y-54027819D02*
X52099309Y-53551628D01*
X51861214Y-54027819D02*
X51861214Y-53027819D01*
X51861214Y-53027819D02*
X52242166Y-53027819D01*
X52242166Y-53027819D02*
X52337404Y-53075438D01*
X52337404Y-53075438D02*
X52385023Y-53123057D01*
X52385023Y-53123057D02*
X52432642Y-53218295D01*
X52432642Y-53218295D02*
X52432642Y-53361152D01*
X52432642Y-53361152D02*
X52385023Y-53456390D01*
X52385023Y-53456390D02*
X52337404Y-53504009D01*
X52337404Y-53504009D02*
X52242166Y-53551628D01*
X52242166Y-53551628D02*
X51861214Y-53551628D01*
X53385023Y-54027819D02*
X52813595Y-54027819D01*
X53099309Y-54027819D02*
X53099309Y-53027819D01*
X53099309Y-53027819D02*
X53004071Y-53170676D01*
X53004071Y-53170676D02*
X52908833Y-53265914D01*
X52908833Y-53265914D02*
X52813595Y-53313533D01*
X53718357Y-53027819D02*
X54385023Y-53027819D01*
X54385023Y-53027819D02*
X53956452Y-54027819D01*
X68832042Y-70496580D02*
X68784423Y-70544200D01*
X68784423Y-70544200D02*
X68641566Y-70591819D01*
X68641566Y-70591819D02*
X68546328Y-70591819D01*
X68546328Y-70591819D02*
X68403471Y-70544200D01*
X68403471Y-70544200D02*
X68308233Y-70448961D01*
X68308233Y-70448961D02*
X68260614Y-70353723D01*
X68260614Y-70353723D02*
X68212995Y-70163247D01*
X68212995Y-70163247D02*
X68212995Y-70020390D01*
X68212995Y-70020390D02*
X68260614Y-69829914D01*
X68260614Y-69829914D02*
X68308233Y-69734676D01*
X68308233Y-69734676D02*
X68403471Y-69639438D01*
X68403471Y-69639438D02*
X68546328Y-69591819D01*
X68546328Y-69591819D02*
X68641566Y-69591819D01*
X68641566Y-69591819D02*
X68784423Y-69639438D01*
X68784423Y-69639438D02*
X68832042Y-69687057D01*
X69212995Y-69687057D02*
X69260614Y-69639438D01*
X69260614Y-69639438D02*
X69355852Y-69591819D01*
X69355852Y-69591819D02*
X69593947Y-69591819D01*
X69593947Y-69591819D02*
X69689185Y-69639438D01*
X69689185Y-69639438D02*
X69736804Y-69687057D01*
X69736804Y-69687057D02*
X69784423Y-69782295D01*
X69784423Y-69782295D02*
X69784423Y-69877533D01*
X69784423Y-69877533D02*
X69736804Y-70020390D01*
X69736804Y-70020390D02*
X69165376Y-70591819D01*
X69165376Y-70591819D02*
X69784423Y-70591819D01*
X70641566Y-69925152D02*
X70641566Y-70591819D01*
X70403471Y-69544200D02*
X70165376Y-70258485D01*
X70165376Y-70258485D02*
X70784423Y-70258485D01*
X110395980Y-63541357D02*
X110443600Y-63588976D01*
X110443600Y-63588976D02*
X110491219Y-63731833D01*
X110491219Y-63731833D02*
X110491219Y-63827071D01*
X110491219Y-63827071D02*
X110443600Y-63969928D01*
X110443600Y-63969928D02*
X110348361Y-64065166D01*
X110348361Y-64065166D02*
X110253123Y-64112785D01*
X110253123Y-64112785D02*
X110062647Y-64160404D01*
X110062647Y-64160404D02*
X109919790Y-64160404D01*
X109919790Y-64160404D02*
X109729314Y-64112785D01*
X109729314Y-64112785D02*
X109634076Y-64065166D01*
X109634076Y-64065166D02*
X109538838Y-63969928D01*
X109538838Y-63969928D02*
X109491219Y-63827071D01*
X109491219Y-63827071D02*
X109491219Y-63731833D01*
X109491219Y-63731833D02*
X109538838Y-63588976D01*
X109538838Y-63588976D02*
X109586457Y-63541357D01*
X110491219Y-62588976D02*
X110491219Y-63160404D01*
X110491219Y-62874690D02*
X109491219Y-62874690D01*
X109491219Y-62874690D02*
X109634076Y-62969928D01*
X109634076Y-62969928D02*
X109729314Y-63065166D01*
X109729314Y-63065166D02*
X109776933Y-63160404D01*
X109919790Y-62017547D02*
X109872171Y-62112785D01*
X109872171Y-62112785D02*
X109824552Y-62160404D01*
X109824552Y-62160404D02*
X109729314Y-62208023D01*
X109729314Y-62208023D02*
X109681695Y-62208023D01*
X109681695Y-62208023D02*
X109586457Y-62160404D01*
X109586457Y-62160404D02*
X109538838Y-62112785D01*
X109538838Y-62112785D02*
X109491219Y-62017547D01*
X109491219Y-62017547D02*
X109491219Y-61827071D01*
X109491219Y-61827071D02*
X109538838Y-61731833D01*
X109538838Y-61731833D02*
X109586457Y-61684214D01*
X109586457Y-61684214D02*
X109681695Y-61636595D01*
X109681695Y-61636595D02*
X109729314Y-61636595D01*
X109729314Y-61636595D02*
X109824552Y-61684214D01*
X109824552Y-61684214D02*
X109872171Y-61731833D01*
X109872171Y-61731833D02*
X109919790Y-61827071D01*
X109919790Y-61827071D02*
X109919790Y-62017547D01*
X109919790Y-62017547D02*
X109967409Y-62112785D01*
X109967409Y-62112785D02*
X110015028Y-62160404D01*
X110015028Y-62160404D02*
X110110266Y-62208023D01*
X110110266Y-62208023D02*
X110300742Y-62208023D01*
X110300742Y-62208023D02*
X110395980Y-62160404D01*
X110395980Y-62160404D02*
X110443600Y-62112785D01*
X110443600Y-62112785D02*
X110491219Y-62017547D01*
X110491219Y-62017547D02*
X110491219Y-61827071D01*
X110491219Y-61827071D02*
X110443600Y-61731833D01*
X110443600Y-61731833D02*
X110395980Y-61684214D01*
X110395980Y-61684214D02*
X110300742Y-61636595D01*
X110300742Y-61636595D02*
X110110266Y-61636595D01*
X110110266Y-61636595D02*
X110015028Y-61684214D01*
X110015028Y-61684214D02*
X109967409Y-61731833D01*
X109967409Y-61731833D02*
X109919790Y-61827071D01*
X41280133Y-42736819D02*
X40946800Y-42260628D01*
X40708705Y-42736819D02*
X40708705Y-41736819D01*
X40708705Y-41736819D02*
X41089657Y-41736819D01*
X41089657Y-41736819D02*
X41184895Y-41784438D01*
X41184895Y-41784438D02*
X41232514Y-41832057D01*
X41232514Y-41832057D02*
X41280133Y-41927295D01*
X41280133Y-41927295D02*
X41280133Y-42070152D01*
X41280133Y-42070152D02*
X41232514Y-42165390D01*
X41232514Y-42165390D02*
X41184895Y-42213009D01*
X41184895Y-42213009D02*
X41089657Y-42260628D01*
X41089657Y-42260628D02*
X40708705Y-42260628D01*
X42137276Y-42070152D02*
X42137276Y-42736819D01*
X41899181Y-41689200D02*
X41661086Y-42403485D01*
X41661086Y-42403485D02*
X42280133Y-42403485D01*
X52468542Y-46071980D02*
X52420923Y-46119600D01*
X52420923Y-46119600D02*
X52278066Y-46167219D01*
X52278066Y-46167219D02*
X52182828Y-46167219D01*
X52182828Y-46167219D02*
X52039971Y-46119600D01*
X52039971Y-46119600D02*
X51944733Y-46024361D01*
X51944733Y-46024361D02*
X51897114Y-45929123D01*
X51897114Y-45929123D02*
X51849495Y-45738647D01*
X51849495Y-45738647D02*
X51849495Y-45595790D01*
X51849495Y-45595790D02*
X51897114Y-45405314D01*
X51897114Y-45405314D02*
X51944733Y-45310076D01*
X51944733Y-45310076D02*
X52039971Y-45214838D01*
X52039971Y-45214838D02*
X52182828Y-45167219D01*
X52182828Y-45167219D02*
X52278066Y-45167219D01*
X52278066Y-45167219D02*
X52420923Y-45214838D01*
X52420923Y-45214838D02*
X52468542Y-45262457D01*
X53420923Y-46167219D02*
X52849495Y-46167219D01*
X53135209Y-46167219D02*
X53135209Y-45167219D01*
X53135209Y-45167219D02*
X53039971Y-45310076D01*
X53039971Y-45310076D02*
X52944733Y-45405314D01*
X52944733Y-45405314D02*
X52849495Y-45452933D01*
X54373304Y-46167219D02*
X53801876Y-46167219D01*
X54087590Y-46167219D02*
X54087590Y-45167219D01*
X54087590Y-45167219D02*
X53992352Y-45310076D01*
X53992352Y-45310076D02*
X53897114Y-45405314D01*
X53897114Y-45405314D02*
X53801876Y-45452933D01*
X41314733Y-30178119D02*
X40981400Y-29701928D01*
X40743305Y-30178119D02*
X40743305Y-29178119D01*
X40743305Y-29178119D02*
X41124257Y-29178119D01*
X41124257Y-29178119D02*
X41219495Y-29225738D01*
X41219495Y-29225738D02*
X41267114Y-29273357D01*
X41267114Y-29273357D02*
X41314733Y-29368595D01*
X41314733Y-29368595D02*
X41314733Y-29511452D01*
X41314733Y-29511452D02*
X41267114Y-29606690D01*
X41267114Y-29606690D02*
X41219495Y-29654309D01*
X41219495Y-29654309D02*
X41124257Y-29701928D01*
X41124257Y-29701928D02*
X40743305Y-29701928D01*
X42267114Y-30178119D02*
X41695686Y-30178119D01*
X41981400Y-30178119D02*
X41981400Y-29178119D01*
X41981400Y-29178119D02*
X41886162Y-29320976D01*
X41886162Y-29320976D02*
X41790924Y-29416214D01*
X41790924Y-29416214D02*
X41695686Y-29463833D01*
X78304242Y-38803580D02*
X78256623Y-38851200D01*
X78256623Y-38851200D02*
X78113766Y-38898819D01*
X78113766Y-38898819D02*
X78018528Y-38898819D01*
X78018528Y-38898819D02*
X77875671Y-38851200D01*
X77875671Y-38851200D02*
X77780433Y-38755961D01*
X77780433Y-38755961D02*
X77732814Y-38660723D01*
X77732814Y-38660723D02*
X77685195Y-38470247D01*
X77685195Y-38470247D02*
X77685195Y-38327390D01*
X77685195Y-38327390D02*
X77732814Y-38136914D01*
X77732814Y-38136914D02*
X77780433Y-38041676D01*
X77780433Y-38041676D02*
X77875671Y-37946438D01*
X77875671Y-37946438D02*
X78018528Y-37898819D01*
X78018528Y-37898819D02*
X78113766Y-37898819D01*
X78113766Y-37898819D02*
X78256623Y-37946438D01*
X78256623Y-37946438D02*
X78304242Y-37994057D01*
X78637576Y-37898819D02*
X79256623Y-37898819D01*
X79256623Y-37898819D02*
X78923290Y-38279771D01*
X78923290Y-38279771D02*
X79066147Y-38279771D01*
X79066147Y-38279771D02*
X79161385Y-38327390D01*
X79161385Y-38327390D02*
X79209004Y-38375009D01*
X79209004Y-38375009D02*
X79256623Y-38470247D01*
X79256623Y-38470247D02*
X79256623Y-38708342D01*
X79256623Y-38708342D02*
X79209004Y-38803580D01*
X79209004Y-38803580D02*
X79161385Y-38851200D01*
X79161385Y-38851200D02*
X79066147Y-38898819D01*
X79066147Y-38898819D02*
X78780433Y-38898819D01*
X78780433Y-38898819D02*
X78685195Y-38851200D01*
X78685195Y-38851200D02*
X78637576Y-38803580D01*
X79637576Y-37994057D02*
X79685195Y-37946438D01*
X79685195Y-37946438D02*
X79780433Y-37898819D01*
X79780433Y-37898819D02*
X80018528Y-37898819D01*
X80018528Y-37898819D02*
X80113766Y-37946438D01*
X80113766Y-37946438D02*
X80161385Y-37994057D01*
X80161385Y-37994057D02*
X80209004Y-38089295D01*
X80209004Y-38089295D02*
X80209004Y-38184533D01*
X80209004Y-38184533D02*
X80161385Y-38327390D01*
X80161385Y-38327390D02*
X79589957Y-38898819D01*
X79589957Y-38898819D02*
X80209004Y-38898819D01*
X91874319Y-52152657D02*
X91398128Y-52485990D01*
X91874319Y-52724085D02*
X90874319Y-52724085D01*
X90874319Y-52724085D02*
X90874319Y-52343133D01*
X90874319Y-52343133D02*
X90921938Y-52247895D01*
X90921938Y-52247895D02*
X90969557Y-52200276D01*
X90969557Y-52200276D02*
X91064795Y-52152657D01*
X91064795Y-52152657D02*
X91207652Y-52152657D01*
X91207652Y-52152657D02*
X91302890Y-52200276D01*
X91302890Y-52200276D02*
X91350509Y-52247895D01*
X91350509Y-52247895D02*
X91398128Y-52343133D01*
X91398128Y-52343133D02*
X91398128Y-52724085D01*
X91874319Y-51200276D02*
X91874319Y-51771704D01*
X91874319Y-51485990D02*
X90874319Y-51485990D01*
X90874319Y-51485990D02*
X91017176Y-51581228D01*
X91017176Y-51581228D02*
X91112414Y-51676466D01*
X91112414Y-51676466D02*
X91160033Y-51771704D01*
X91302890Y-50628847D02*
X91255271Y-50724085D01*
X91255271Y-50724085D02*
X91207652Y-50771704D01*
X91207652Y-50771704D02*
X91112414Y-50819323D01*
X91112414Y-50819323D02*
X91064795Y-50819323D01*
X91064795Y-50819323D02*
X90969557Y-50771704D01*
X90969557Y-50771704D02*
X90921938Y-50724085D01*
X90921938Y-50724085D02*
X90874319Y-50628847D01*
X90874319Y-50628847D02*
X90874319Y-50438371D01*
X90874319Y-50438371D02*
X90921938Y-50343133D01*
X90921938Y-50343133D02*
X90969557Y-50295514D01*
X90969557Y-50295514D02*
X91064795Y-50247895D01*
X91064795Y-50247895D02*
X91112414Y-50247895D01*
X91112414Y-50247895D02*
X91207652Y-50295514D01*
X91207652Y-50295514D02*
X91255271Y-50343133D01*
X91255271Y-50343133D02*
X91302890Y-50438371D01*
X91302890Y-50438371D02*
X91302890Y-50628847D01*
X91302890Y-50628847D02*
X91350509Y-50724085D01*
X91350509Y-50724085D02*
X91398128Y-50771704D01*
X91398128Y-50771704D02*
X91493366Y-50819323D01*
X91493366Y-50819323D02*
X91683842Y-50819323D01*
X91683842Y-50819323D02*
X91779080Y-50771704D01*
X91779080Y-50771704D02*
X91826700Y-50724085D01*
X91826700Y-50724085D02*
X91874319Y-50628847D01*
X91874319Y-50628847D02*
X91874319Y-50438371D01*
X91874319Y-50438371D02*
X91826700Y-50343133D01*
X91826700Y-50343133D02*
X91779080Y-50295514D01*
X91779080Y-50295514D02*
X91683842Y-50247895D01*
X91683842Y-50247895D02*
X91493366Y-50247895D01*
X91493366Y-50247895D02*
X91398128Y-50295514D01*
X91398128Y-50295514D02*
X91350509Y-50343133D01*
X91350509Y-50343133D02*
X91302890Y-50438371D01*
X117649842Y-61277980D02*
X117602223Y-61325600D01*
X117602223Y-61325600D02*
X117459366Y-61373219D01*
X117459366Y-61373219D02*
X117364128Y-61373219D01*
X117364128Y-61373219D02*
X117221271Y-61325600D01*
X117221271Y-61325600D02*
X117126033Y-61230361D01*
X117126033Y-61230361D02*
X117078414Y-61135123D01*
X117078414Y-61135123D02*
X117030795Y-60944647D01*
X117030795Y-60944647D02*
X117030795Y-60801790D01*
X117030795Y-60801790D02*
X117078414Y-60611314D01*
X117078414Y-60611314D02*
X117126033Y-60516076D01*
X117126033Y-60516076D02*
X117221271Y-60420838D01*
X117221271Y-60420838D02*
X117364128Y-60373219D01*
X117364128Y-60373219D02*
X117459366Y-60373219D01*
X117459366Y-60373219D02*
X117602223Y-60420838D01*
X117602223Y-60420838D02*
X117649842Y-60468457D01*
X118602223Y-61373219D02*
X118030795Y-61373219D01*
X118316509Y-61373219D02*
X118316509Y-60373219D01*
X118316509Y-60373219D02*
X118221271Y-60516076D01*
X118221271Y-60516076D02*
X118126033Y-60611314D01*
X118126033Y-60611314D02*
X118030795Y-60658933D01*
X119459366Y-60373219D02*
X119268890Y-60373219D01*
X119268890Y-60373219D02*
X119173652Y-60420838D01*
X119173652Y-60420838D02*
X119126033Y-60468457D01*
X119126033Y-60468457D02*
X119030795Y-60611314D01*
X119030795Y-60611314D02*
X118983176Y-60801790D01*
X118983176Y-60801790D02*
X118983176Y-61182742D01*
X118983176Y-61182742D02*
X119030795Y-61277980D01*
X119030795Y-61277980D02*
X119078414Y-61325600D01*
X119078414Y-61325600D02*
X119173652Y-61373219D01*
X119173652Y-61373219D02*
X119364128Y-61373219D01*
X119364128Y-61373219D02*
X119459366Y-61325600D01*
X119459366Y-61325600D02*
X119506985Y-61277980D01*
X119506985Y-61277980D02*
X119554604Y-61182742D01*
X119554604Y-61182742D02*
X119554604Y-60944647D01*
X119554604Y-60944647D02*
X119506985Y-60849409D01*
X119506985Y-60849409D02*
X119459366Y-60801790D01*
X119459366Y-60801790D02*
X119364128Y-60754171D01*
X119364128Y-60754171D02*
X119173652Y-60754171D01*
X119173652Y-60754171D02*
X119078414Y-60801790D01*
X119078414Y-60801790D02*
X119030795Y-60849409D01*
X119030795Y-60849409D02*
X118983176Y-60944647D01*
X78355042Y-48717580D02*
X78307423Y-48765200D01*
X78307423Y-48765200D02*
X78164566Y-48812819D01*
X78164566Y-48812819D02*
X78069328Y-48812819D01*
X78069328Y-48812819D02*
X77926471Y-48765200D01*
X77926471Y-48765200D02*
X77831233Y-48669961D01*
X77831233Y-48669961D02*
X77783614Y-48574723D01*
X77783614Y-48574723D02*
X77735995Y-48384247D01*
X77735995Y-48384247D02*
X77735995Y-48241390D01*
X77735995Y-48241390D02*
X77783614Y-48050914D01*
X77783614Y-48050914D02*
X77831233Y-47955676D01*
X77831233Y-47955676D02*
X77926471Y-47860438D01*
X77926471Y-47860438D02*
X78069328Y-47812819D01*
X78069328Y-47812819D02*
X78164566Y-47812819D01*
X78164566Y-47812819D02*
X78307423Y-47860438D01*
X78307423Y-47860438D02*
X78355042Y-47908057D01*
X78688376Y-47812819D02*
X79307423Y-47812819D01*
X79307423Y-47812819D02*
X78974090Y-48193771D01*
X78974090Y-48193771D02*
X79116947Y-48193771D01*
X79116947Y-48193771D02*
X79212185Y-48241390D01*
X79212185Y-48241390D02*
X79259804Y-48289009D01*
X79259804Y-48289009D02*
X79307423Y-48384247D01*
X79307423Y-48384247D02*
X79307423Y-48622342D01*
X79307423Y-48622342D02*
X79259804Y-48717580D01*
X79259804Y-48717580D02*
X79212185Y-48765200D01*
X79212185Y-48765200D02*
X79116947Y-48812819D01*
X79116947Y-48812819D02*
X78831233Y-48812819D01*
X78831233Y-48812819D02*
X78735995Y-48765200D01*
X78735995Y-48765200D02*
X78688376Y-48717580D01*
X79640757Y-47812819D02*
X80259804Y-47812819D01*
X80259804Y-47812819D02*
X79926471Y-48193771D01*
X79926471Y-48193771D02*
X80069328Y-48193771D01*
X80069328Y-48193771D02*
X80164566Y-48241390D01*
X80164566Y-48241390D02*
X80212185Y-48289009D01*
X80212185Y-48289009D02*
X80259804Y-48384247D01*
X80259804Y-48384247D02*
X80259804Y-48622342D01*
X80259804Y-48622342D02*
X80212185Y-48717580D01*
X80212185Y-48717580D02*
X80164566Y-48765200D01*
X80164566Y-48765200D02*
X80069328Y-48812819D01*
X80069328Y-48812819D02*
X79783614Y-48812819D01*
X79783614Y-48812819D02*
X79688376Y-48765200D01*
X79688376Y-48765200D02*
X79640757Y-48717580D01*
X130932819Y-69516523D02*
X131647104Y-69516523D01*
X131647104Y-69516523D02*
X131789961Y-69564142D01*
X131789961Y-69564142D02*
X131885200Y-69659380D01*
X131885200Y-69659380D02*
X131932819Y-69802237D01*
X131932819Y-69802237D02*
X131932819Y-69897475D01*
X131028057Y-69087951D02*
X130980438Y-69040332D01*
X130980438Y-69040332D02*
X130932819Y-68945094D01*
X130932819Y-68945094D02*
X130932819Y-68706999D01*
X130932819Y-68706999D02*
X130980438Y-68611761D01*
X130980438Y-68611761D02*
X131028057Y-68564142D01*
X131028057Y-68564142D02*
X131123295Y-68516523D01*
X131123295Y-68516523D02*
X131218533Y-68516523D01*
X131218533Y-68516523D02*
X131361390Y-68564142D01*
X131361390Y-68564142D02*
X131932819Y-69135570D01*
X131932819Y-69135570D02*
X131932819Y-68516523D01*
X131028057Y-68135570D02*
X130980438Y-68087951D01*
X130980438Y-68087951D02*
X130932819Y-67992713D01*
X130932819Y-67992713D02*
X130932819Y-67754618D01*
X130932819Y-67754618D02*
X130980438Y-67659380D01*
X130980438Y-67659380D02*
X131028057Y-67611761D01*
X131028057Y-67611761D02*
X131123295Y-67564142D01*
X131123295Y-67564142D02*
X131218533Y-67564142D01*
X131218533Y-67564142D02*
X131361390Y-67611761D01*
X131361390Y-67611761D02*
X131932819Y-68183189D01*
X131932819Y-68183189D02*
X131932819Y-67564142D01*
X41264133Y-48019019D02*
X40930800Y-47542828D01*
X40692705Y-48019019D02*
X40692705Y-47019019D01*
X40692705Y-47019019D02*
X41073657Y-47019019D01*
X41073657Y-47019019D02*
X41168895Y-47066638D01*
X41168895Y-47066638D02*
X41216514Y-47114257D01*
X41216514Y-47114257D02*
X41264133Y-47209495D01*
X41264133Y-47209495D02*
X41264133Y-47352352D01*
X41264133Y-47352352D02*
X41216514Y-47447590D01*
X41216514Y-47447590D02*
X41168895Y-47495209D01*
X41168895Y-47495209D02*
X41073657Y-47542828D01*
X41073657Y-47542828D02*
X40692705Y-47542828D01*
X42168895Y-47019019D02*
X41692705Y-47019019D01*
X41692705Y-47019019D02*
X41645086Y-47495209D01*
X41645086Y-47495209D02*
X41692705Y-47447590D01*
X41692705Y-47447590D02*
X41787943Y-47399971D01*
X41787943Y-47399971D02*
X42026038Y-47399971D01*
X42026038Y-47399971D02*
X42121276Y-47447590D01*
X42121276Y-47447590D02*
X42168895Y-47495209D01*
X42168895Y-47495209D02*
X42216514Y-47590447D01*
X42216514Y-47590447D02*
X42216514Y-47828542D01*
X42216514Y-47828542D02*
X42168895Y-47923780D01*
X42168895Y-47923780D02*
X42121276Y-47971400D01*
X42121276Y-47971400D02*
X42026038Y-48019019D01*
X42026038Y-48019019D02*
X41787943Y-48019019D01*
X41787943Y-48019019D02*
X41692705Y-47971400D01*
X41692705Y-47971400D02*
X41645086Y-47923780D01*
X78355042Y-54071580D02*
X78307423Y-54119200D01*
X78307423Y-54119200D02*
X78164566Y-54166819D01*
X78164566Y-54166819D02*
X78069328Y-54166819D01*
X78069328Y-54166819D02*
X77926471Y-54119200D01*
X77926471Y-54119200D02*
X77831233Y-54023961D01*
X77831233Y-54023961D02*
X77783614Y-53928723D01*
X77783614Y-53928723D02*
X77735995Y-53738247D01*
X77735995Y-53738247D02*
X77735995Y-53595390D01*
X77735995Y-53595390D02*
X77783614Y-53404914D01*
X77783614Y-53404914D02*
X77831233Y-53309676D01*
X77831233Y-53309676D02*
X77926471Y-53214438D01*
X77926471Y-53214438D02*
X78069328Y-53166819D01*
X78069328Y-53166819D02*
X78164566Y-53166819D01*
X78164566Y-53166819D02*
X78307423Y-53214438D01*
X78307423Y-53214438D02*
X78355042Y-53262057D01*
X79212185Y-53500152D02*
X79212185Y-54166819D01*
X78974090Y-53119200D02*
X78735995Y-53833485D01*
X78735995Y-53833485D02*
X79355042Y-53833485D01*
X79926471Y-53166819D02*
X80021709Y-53166819D01*
X80021709Y-53166819D02*
X80116947Y-53214438D01*
X80116947Y-53214438D02*
X80164566Y-53262057D01*
X80164566Y-53262057D02*
X80212185Y-53357295D01*
X80212185Y-53357295D02*
X80259804Y-53547771D01*
X80259804Y-53547771D02*
X80259804Y-53785866D01*
X80259804Y-53785866D02*
X80212185Y-53976342D01*
X80212185Y-53976342D02*
X80164566Y-54071580D01*
X80164566Y-54071580D02*
X80116947Y-54119200D01*
X80116947Y-54119200D02*
X80021709Y-54166819D01*
X80021709Y-54166819D02*
X79926471Y-54166819D01*
X79926471Y-54166819D02*
X79831233Y-54119200D01*
X79831233Y-54119200D02*
X79783614Y-54071580D01*
X79783614Y-54071580D02*
X79735995Y-53976342D01*
X79735995Y-53976342D02*
X79688376Y-53785866D01*
X79688376Y-53785866D02*
X79688376Y-53547771D01*
X79688376Y-53547771D02*
X79735995Y-53357295D01*
X79735995Y-53357295D02*
X79783614Y-53262057D01*
X79783614Y-53262057D02*
X79831233Y-53214438D01*
X79831233Y-53214438D02*
X79926471Y-53166819D01*
X63228342Y-34246180D02*
X63180723Y-34293800D01*
X63180723Y-34293800D02*
X63037866Y-34341419D01*
X63037866Y-34341419D02*
X62942628Y-34341419D01*
X62942628Y-34341419D02*
X62799771Y-34293800D01*
X62799771Y-34293800D02*
X62704533Y-34198561D01*
X62704533Y-34198561D02*
X62656914Y-34103323D01*
X62656914Y-34103323D02*
X62609295Y-33912847D01*
X62609295Y-33912847D02*
X62609295Y-33769990D01*
X62609295Y-33769990D02*
X62656914Y-33579514D01*
X62656914Y-33579514D02*
X62704533Y-33484276D01*
X62704533Y-33484276D02*
X62799771Y-33389038D01*
X62799771Y-33389038D02*
X62942628Y-33341419D01*
X62942628Y-33341419D02*
X63037866Y-33341419D01*
X63037866Y-33341419D02*
X63180723Y-33389038D01*
X63180723Y-33389038D02*
X63228342Y-33436657D01*
X63609295Y-33436657D02*
X63656914Y-33389038D01*
X63656914Y-33389038D02*
X63752152Y-33341419D01*
X63752152Y-33341419D02*
X63990247Y-33341419D01*
X63990247Y-33341419D02*
X64085485Y-33389038D01*
X64085485Y-33389038D02*
X64133104Y-33436657D01*
X64133104Y-33436657D02*
X64180723Y-33531895D01*
X64180723Y-33531895D02*
X64180723Y-33627133D01*
X64180723Y-33627133D02*
X64133104Y-33769990D01*
X64133104Y-33769990D02*
X63561676Y-34341419D01*
X63561676Y-34341419D02*
X64180723Y-34341419D01*
X64752152Y-33769990D02*
X64656914Y-33722371D01*
X64656914Y-33722371D02*
X64609295Y-33674752D01*
X64609295Y-33674752D02*
X64561676Y-33579514D01*
X64561676Y-33579514D02*
X64561676Y-33531895D01*
X64561676Y-33531895D02*
X64609295Y-33436657D01*
X64609295Y-33436657D02*
X64656914Y-33389038D01*
X64656914Y-33389038D02*
X64752152Y-33341419D01*
X64752152Y-33341419D02*
X64942628Y-33341419D01*
X64942628Y-33341419D02*
X65037866Y-33389038D01*
X65037866Y-33389038D02*
X65085485Y-33436657D01*
X65085485Y-33436657D02*
X65133104Y-33531895D01*
X65133104Y-33531895D02*
X65133104Y-33579514D01*
X65133104Y-33579514D02*
X65085485Y-33674752D01*
X65085485Y-33674752D02*
X65037866Y-33722371D01*
X65037866Y-33722371D02*
X64942628Y-33769990D01*
X64942628Y-33769990D02*
X64752152Y-33769990D01*
X64752152Y-33769990D02*
X64656914Y-33817609D01*
X64656914Y-33817609D02*
X64609295Y-33865228D01*
X64609295Y-33865228D02*
X64561676Y-33960466D01*
X64561676Y-33960466D02*
X64561676Y-34150942D01*
X64561676Y-34150942D02*
X64609295Y-34246180D01*
X64609295Y-34246180D02*
X64656914Y-34293800D01*
X64656914Y-34293800D02*
X64752152Y-34341419D01*
X64752152Y-34341419D02*
X64942628Y-34341419D01*
X64942628Y-34341419D02*
X65037866Y-34293800D01*
X65037866Y-34293800D02*
X65085485Y-34246180D01*
X65085485Y-34246180D02*
X65133104Y-34150942D01*
X65133104Y-34150942D02*
X65133104Y-33960466D01*
X65133104Y-33960466D02*
X65085485Y-33865228D01*
X65085485Y-33865228D02*
X65037866Y-33817609D01*
X65037866Y-33817609D02*
X64942628Y-33769990D01*
X53022033Y-33625980D02*
X52974414Y-33673600D01*
X52974414Y-33673600D02*
X52831557Y-33721219D01*
X52831557Y-33721219D02*
X52736319Y-33721219D01*
X52736319Y-33721219D02*
X52593462Y-33673600D01*
X52593462Y-33673600D02*
X52498224Y-33578361D01*
X52498224Y-33578361D02*
X52450605Y-33483123D01*
X52450605Y-33483123D02*
X52402986Y-33292647D01*
X52402986Y-33292647D02*
X52402986Y-33149790D01*
X52402986Y-33149790D02*
X52450605Y-32959314D01*
X52450605Y-32959314D02*
X52498224Y-32864076D01*
X52498224Y-32864076D02*
X52593462Y-32768838D01*
X52593462Y-32768838D02*
X52736319Y-32721219D01*
X52736319Y-32721219D02*
X52831557Y-32721219D01*
X52831557Y-32721219D02*
X52974414Y-32768838D01*
X52974414Y-32768838D02*
X53022033Y-32816457D01*
X53498224Y-33721219D02*
X53688700Y-33721219D01*
X53688700Y-33721219D02*
X53783938Y-33673600D01*
X53783938Y-33673600D02*
X53831557Y-33625980D01*
X53831557Y-33625980D02*
X53926795Y-33483123D01*
X53926795Y-33483123D02*
X53974414Y-33292647D01*
X53974414Y-33292647D02*
X53974414Y-32911695D01*
X53974414Y-32911695D02*
X53926795Y-32816457D01*
X53926795Y-32816457D02*
X53879176Y-32768838D01*
X53879176Y-32768838D02*
X53783938Y-32721219D01*
X53783938Y-32721219D02*
X53593462Y-32721219D01*
X53593462Y-32721219D02*
X53498224Y-32768838D01*
X53498224Y-32768838D02*
X53450605Y-32816457D01*
X53450605Y-32816457D02*
X53402986Y-32911695D01*
X53402986Y-32911695D02*
X53402986Y-33149790D01*
X53402986Y-33149790D02*
X53450605Y-33245028D01*
X53450605Y-33245028D02*
X53498224Y-33292647D01*
X53498224Y-33292647D02*
X53593462Y-33340266D01*
X53593462Y-33340266D02*
X53783938Y-33340266D01*
X53783938Y-33340266D02*
X53879176Y-33292647D01*
X53879176Y-33292647D02*
X53926795Y-33245028D01*
X53926795Y-33245028D02*
X53974414Y-33149790D01*
X41298733Y-35511119D02*
X40965400Y-35034928D01*
X40727305Y-35511119D02*
X40727305Y-34511119D01*
X40727305Y-34511119D02*
X41108257Y-34511119D01*
X41108257Y-34511119D02*
X41203495Y-34558738D01*
X41203495Y-34558738D02*
X41251114Y-34606357D01*
X41251114Y-34606357D02*
X41298733Y-34701595D01*
X41298733Y-34701595D02*
X41298733Y-34844452D01*
X41298733Y-34844452D02*
X41251114Y-34939690D01*
X41251114Y-34939690D02*
X41203495Y-34987309D01*
X41203495Y-34987309D02*
X41108257Y-35034928D01*
X41108257Y-35034928D02*
X40727305Y-35034928D01*
X41679686Y-34606357D02*
X41727305Y-34558738D01*
X41727305Y-34558738D02*
X41822543Y-34511119D01*
X41822543Y-34511119D02*
X42060638Y-34511119D01*
X42060638Y-34511119D02*
X42155876Y-34558738D01*
X42155876Y-34558738D02*
X42203495Y-34606357D01*
X42203495Y-34606357D02*
X42251114Y-34701595D01*
X42251114Y-34701595D02*
X42251114Y-34796833D01*
X42251114Y-34796833D02*
X42203495Y-34939690D01*
X42203495Y-34939690D02*
X41632067Y-35511119D01*
X41632067Y-35511119D02*
X42251114Y-35511119D01*
X102561580Y-58325157D02*
X102609200Y-58372776D01*
X102609200Y-58372776D02*
X102656819Y-58515633D01*
X102656819Y-58515633D02*
X102656819Y-58610871D01*
X102656819Y-58610871D02*
X102609200Y-58753728D01*
X102609200Y-58753728D02*
X102513961Y-58848966D01*
X102513961Y-58848966D02*
X102418723Y-58896585D01*
X102418723Y-58896585D02*
X102228247Y-58944204D01*
X102228247Y-58944204D02*
X102085390Y-58944204D01*
X102085390Y-58944204D02*
X101894914Y-58896585D01*
X101894914Y-58896585D02*
X101799676Y-58848966D01*
X101799676Y-58848966D02*
X101704438Y-58753728D01*
X101704438Y-58753728D02*
X101656819Y-58610871D01*
X101656819Y-58610871D02*
X101656819Y-58515633D01*
X101656819Y-58515633D02*
X101704438Y-58372776D01*
X101704438Y-58372776D02*
X101752057Y-58325157D01*
X101752057Y-57944204D02*
X101704438Y-57896585D01*
X101704438Y-57896585D02*
X101656819Y-57801347D01*
X101656819Y-57801347D02*
X101656819Y-57563252D01*
X101656819Y-57563252D02*
X101704438Y-57468014D01*
X101704438Y-57468014D02*
X101752057Y-57420395D01*
X101752057Y-57420395D02*
X101847295Y-57372776D01*
X101847295Y-57372776D02*
X101942533Y-57372776D01*
X101942533Y-57372776D02*
X102085390Y-57420395D01*
X102085390Y-57420395D02*
X102656819Y-57991823D01*
X102656819Y-57991823D02*
X102656819Y-57372776D01*
X101656819Y-56753728D02*
X101656819Y-56658490D01*
X101656819Y-56658490D02*
X101704438Y-56563252D01*
X101704438Y-56563252D02*
X101752057Y-56515633D01*
X101752057Y-56515633D02*
X101847295Y-56468014D01*
X101847295Y-56468014D02*
X102037771Y-56420395D01*
X102037771Y-56420395D02*
X102275866Y-56420395D01*
X102275866Y-56420395D02*
X102466342Y-56468014D01*
X102466342Y-56468014D02*
X102561580Y-56515633D01*
X102561580Y-56515633D02*
X102609200Y-56563252D01*
X102609200Y-56563252D02*
X102656819Y-56658490D01*
X102656819Y-56658490D02*
X102656819Y-56753728D01*
X102656819Y-56753728D02*
X102609200Y-56848966D01*
X102609200Y-56848966D02*
X102561580Y-56896585D01*
X102561580Y-56896585D02*
X102466342Y-56944204D01*
X102466342Y-56944204D02*
X102275866Y-56991823D01*
X102275866Y-56991823D02*
X102037771Y-56991823D01*
X102037771Y-56991823D02*
X101847295Y-56944204D01*
X101847295Y-56944204D02*
X101752057Y-56896585D01*
X101752057Y-56896585D02*
X101704438Y-56848966D01*
X101704438Y-56848966D02*
X101656819Y-56753728D01*
X75866666Y-77338819D02*
X75866666Y-78053104D01*
X75866666Y-78053104D02*
X75819047Y-78195961D01*
X75819047Y-78195961D02*
X75723809Y-78291200D01*
X75723809Y-78291200D02*
X75580952Y-78338819D01*
X75580952Y-78338819D02*
X75485714Y-78338819D01*
X76390476Y-78338819D02*
X76580952Y-78338819D01*
X76580952Y-78338819D02*
X76676190Y-78291200D01*
X76676190Y-78291200D02*
X76723809Y-78243580D01*
X76723809Y-78243580D02*
X76819047Y-78100723D01*
X76819047Y-78100723D02*
X76866666Y-77910247D01*
X76866666Y-77910247D02*
X76866666Y-77529295D01*
X76866666Y-77529295D02*
X76819047Y-77434057D01*
X76819047Y-77434057D02*
X76771428Y-77386438D01*
X76771428Y-77386438D02*
X76676190Y-77338819D01*
X76676190Y-77338819D02*
X76485714Y-77338819D01*
X76485714Y-77338819D02*
X76390476Y-77386438D01*
X76390476Y-77386438D02*
X76342857Y-77434057D01*
X76342857Y-77434057D02*
X76295238Y-77529295D01*
X76295238Y-77529295D02*
X76295238Y-77767390D01*
X76295238Y-77767390D02*
X76342857Y-77862628D01*
X76342857Y-77862628D02*
X76390476Y-77910247D01*
X76390476Y-77910247D02*
X76485714Y-77957866D01*
X76485714Y-77957866D02*
X76676190Y-77957866D01*
X76676190Y-77957866D02*
X76771428Y-77910247D01*
X76771428Y-77910247D02*
X76819047Y-77862628D01*
X76819047Y-77862628D02*
X76866666Y-77767390D01*
X118921476Y-77404819D02*
X118921476Y-78119104D01*
X118921476Y-78119104D02*
X118873857Y-78261961D01*
X118873857Y-78261961D02*
X118778619Y-78357200D01*
X118778619Y-78357200D02*
X118635762Y-78404819D01*
X118635762Y-78404819D02*
X118540524Y-78404819D01*
X119921476Y-78404819D02*
X119350048Y-78404819D01*
X119635762Y-78404819D02*
X119635762Y-77404819D01*
X119635762Y-77404819D02*
X119540524Y-77547676D01*
X119540524Y-77547676D02*
X119445286Y-77642914D01*
X119445286Y-77642914D02*
X119350048Y-77690533D01*
X120492905Y-77833390D02*
X120397667Y-77785771D01*
X120397667Y-77785771D02*
X120350048Y-77738152D01*
X120350048Y-77738152D02*
X120302429Y-77642914D01*
X120302429Y-77642914D02*
X120302429Y-77595295D01*
X120302429Y-77595295D02*
X120350048Y-77500057D01*
X120350048Y-77500057D02*
X120397667Y-77452438D01*
X120397667Y-77452438D02*
X120492905Y-77404819D01*
X120492905Y-77404819D02*
X120683381Y-77404819D01*
X120683381Y-77404819D02*
X120778619Y-77452438D01*
X120778619Y-77452438D02*
X120826238Y-77500057D01*
X120826238Y-77500057D02*
X120873857Y-77595295D01*
X120873857Y-77595295D02*
X120873857Y-77642914D01*
X120873857Y-77642914D02*
X120826238Y-77738152D01*
X120826238Y-77738152D02*
X120778619Y-77785771D01*
X120778619Y-77785771D02*
X120683381Y-77833390D01*
X120683381Y-77833390D02*
X120492905Y-77833390D01*
X120492905Y-77833390D02*
X120397667Y-77881009D01*
X120397667Y-77881009D02*
X120350048Y-77928628D01*
X120350048Y-77928628D02*
X120302429Y-78023866D01*
X120302429Y-78023866D02*
X120302429Y-78214342D01*
X120302429Y-78214342D02*
X120350048Y-78309580D01*
X120350048Y-78309580D02*
X120397667Y-78357200D01*
X120397667Y-78357200D02*
X120492905Y-78404819D01*
X120492905Y-78404819D02*
X120683381Y-78404819D01*
X120683381Y-78404819D02*
X120778619Y-78357200D01*
X120778619Y-78357200D02*
X120826238Y-78309580D01*
X120826238Y-78309580D02*
X120873857Y-78214342D01*
X120873857Y-78214342D02*
X120873857Y-78023866D01*
X120873857Y-78023866D02*
X120826238Y-77928628D01*
X120826238Y-77928628D02*
X120778619Y-77881009D01*
X120778619Y-77881009D02*
X120683381Y-77833390D01*
X68712995Y-62513819D02*
X68712995Y-63323342D01*
X68712995Y-63323342D02*
X68760614Y-63418580D01*
X68760614Y-63418580D02*
X68808233Y-63466200D01*
X68808233Y-63466200D02*
X68903471Y-63513819D01*
X68903471Y-63513819D02*
X69093947Y-63513819D01*
X69093947Y-63513819D02*
X69189185Y-63466200D01*
X69189185Y-63466200D02*
X69236804Y-63418580D01*
X69236804Y-63418580D02*
X69284423Y-63323342D01*
X69284423Y-63323342D02*
X69284423Y-62513819D01*
X69665376Y-62513819D02*
X70332042Y-62513819D01*
X70332042Y-62513819D02*
X69903471Y-63513819D01*
X41492733Y-38152380D02*
X41445114Y-38200000D01*
X41445114Y-38200000D02*
X41302257Y-38247619D01*
X41302257Y-38247619D02*
X41207019Y-38247619D01*
X41207019Y-38247619D02*
X41064162Y-38200000D01*
X41064162Y-38200000D02*
X40968924Y-38104761D01*
X40968924Y-38104761D02*
X40921305Y-38009523D01*
X40921305Y-38009523D02*
X40873686Y-37819047D01*
X40873686Y-37819047D02*
X40873686Y-37676190D01*
X40873686Y-37676190D02*
X40921305Y-37485714D01*
X40921305Y-37485714D02*
X40968924Y-37390476D01*
X40968924Y-37390476D02*
X41064162Y-37295238D01*
X41064162Y-37295238D02*
X41207019Y-37247619D01*
X41207019Y-37247619D02*
X41302257Y-37247619D01*
X41302257Y-37247619D02*
X41445114Y-37295238D01*
X41445114Y-37295238D02*
X41492733Y-37342857D01*
X41873686Y-37342857D02*
X41921305Y-37295238D01*
X41921305Y-37295238D02*
X42016543Y-37247619D01*
X42016543Y-37247619D02*
X42254638Y-37247619D01*
X42254638Y-37247619D02*
X42349876Y-37295238D01*
X42349876Y-37295238D02*
X42397495Y-37342857D01*
X42397495Y-37342857D02*
X42445114Y-37438095D01*
X42445114Y-37438095D02*
X42445114Y-37533333D01*
X42445114Y-37533333D02*
X42397495Y-37676190D01*
X42397495Y-37676190D02*
X41826067Y-38247619D01*
X41826067Y-38247619D02*
X42445114Y-38247619D01*
X52493942Y-69505980D02*
X52446323Y-69553600D01*
X52446323Y-69553600D02*
X52303466Y-69601219D01*
X52303466Y-69601219D02*
X52208228Y-69601219D01*
X52208228Y-69601219D02*
X52065371Y-69553600D01*
X52065371Y-69553600D02*
X51970133Y-69458361D01*
X51970133Y-69458361D02*
X51922514Y-69363123D01*
X51922514Y-69363123D02*
X51874895Y-69172647D01*
X51874895Y-69172647D02*
X51874895Y-69029790D01*
X51874895Y-69029790D02*
X51922514Y-68839314D01*
X51922514Y-68839314D02*
X51970133Y-68744076D01*
X51970133Y-68744076D02*
X52065371Y-68648838D01*
X52065371Y-68648838D02*
X52208228Y-68601219D01*
X52208228Y-68601219D02*
X52303466Y-68601219D01*
X52303466Y-68601219D02*
X52446323Y-68648838D01*
X52446323Y-68648838D02*
X52493942Y-68696457D01*
X53446323Y-69601219D02*
X52874895Y-69601219D01*
X53160609Y-69601219D02*
X53160609Y-68601219D01*
X53160609Y-68601219D02*
X53065371Y-68744076D01*
X53065371Y-68744076D02*
X52970133Y-68839314D01*
X52970133Y-68839314D02*
X52874895Y-68886933D01*
X54303466Y-68934552D02*
X54303466Y-69601219D01*
X54065371Y-68553600D02*
X53827276Y-69267885D01*
X53827276Y-69267885D02*
X54446323Y-69267885D01*
X84327142Y-56331380D02*
X84279523Y-56379000D01*
X84279523Y-56379000D02*
X84136666Y-56426619D01*
X84136666Y-56426619D02*
X84041428Y-56426619D01*
X84041428Y-56426619D02*
X83898571Y-56379000D01*
X83898571Y-56379000D02*
X83803333Y-56283761D01*
X83803333Y-56283761D02*
X83755714Y-56188523D01*
X83755714Y-56188523D02*
X83708095Y-55998047D01*
X83708095Y-55998047D02*
X83708095Y-55855190D01*
X83708095Y-55855190D02*
X83755714Y-55664714D01*
X83755714Y-55664714D02*
X83803333Y-55569476D01*
X83803333Y-55569476D02*
X83898571Y-55474238D01*
X83898571Y-55474238D02*
X84041428Y-55426619D01*
X84041428Y-55426619D02*
X84136666Y-55426619D01*
X84136666Y-55426619D02*
X84279523Y-55474238D01*
X84279523Y-55474238D02*
X84327142Y-55521857D01*
X84708095Y-55521857D02*
X84755714Y-55474238D01*
X84755714Y-55474238D02*
X84850952Y-55426619D01*
X84850952Y-55426619D02*
X85089047Y-55426619D01*
X85089047Y-55426619D02*
X85184285Y-55474238D01*
X85184285Y-55474238D02*
X85231904Y-55521857D01*
X85231904Y-55521857D02*
X85279523Y-55617095D01*
X85279523Y-55617095D02*
X85279523Y-55712333D01*
X85279523Y-55712333D02*
X85231904Y-55855190D01*
X85231904Y-55855190D02*
X84660476Y-56426619D01*
X84660476Y-56426619D02*
X85279523Y-56426619D01*
X86136666Y-55426619D02*
X85946190Y-55426619D01*
X85946190Y-55426619D02*
X85850952Y-55474238D01*
X85850952Y-55474238D02*
X85803333Y-55521857D01*
X85803333Y-55521857D02*
X85708095Y-55664714D01*
X85708095Y-55664714D02*
X85660476Y-55855190D01*
X85660476Y-55855190D02*
X85660476Y-56236142D01*
X85660476Y-56236142D02*
X85708095Y-56331380D01*
X85708095Y-56331380D02*
X85755714Y-56379000D01*
X85755714Y-56379000D02*
X85850952Y-56426619D01*
X85850952Y-56426619D02*
X86041428Y-56426619D01*
X86041428Y-56426619D02*
X86136666Y-56379000D01*
X86136666Y-56379000D02*
X86184285Y-56331380D01*
X86184285Y-56331380D02*
X86231904Y-56236142D01*
X86231904Y-56236142D02*
X86231904Y-55998047D01*
X86231904Y-55998047D02*
X86184285Y-55902809D01*
X86184285Y-55902809D02*
X86136666Y-55855190D01*
X86136666Y-55855190D02*
X86041428Y-55807571D01*
X86041428Y-55807571D02*
X85850952Y-55807571D01*
X85850952Y-55807571D02*
X85755714Y-55855190D01*
X85755714Y-55855190D02*
X85708095Y-55902809D01*
X85708095Y-55902809D02*
X85660476Y-55998047D01*
X110360842Y-68138480D02*
X110313223Y-68186100D01*
X110313223Y-68186100D02*
X110170366Y-68233719D01*
X110170366Y-68233719D02*
X110075128Y-68233719D01*
X110075128Y-68233719D02*
X109932271Y-68186100D01*
X109932271Y-68186100D02*
X109837033Y-68090861D01*
X109837033Y-68090861D02*
X109789414Y-67995623D01*
X109789414Y-67995623D02*
X109741795Y-67805147D01*
X109741795Y-67805147D02*
X109741795Y-67662290D01*
X109741795Y-67662290D02*
X109789414Y-67471814D01*
X109789414Y-67471814D02*
X109837033Y-67376576D01*
X109837033Y-67376576D02*
X109932271Y-67281338D01*
X109932271Y-67281338D02*
X110075128Y-67233719D01*
X110075128Y-67233719D02*
X110170366Y-67233719D01*
X110170366Y-67233719D02*
X110313223Y-67281338D01*
X110313223Y-67281338D02*
X110360842Y-67328957D01*
X111313223Y-68233719D02*
X110741795Y-68233719D01*
X111027509Y-68233719D02*
X111027509Y-67233719D01*
X111027509Y-67233719D02*
X110932271Y-67376576D01*
X110932271Y-67376576D02*
X110837033Y-67471814D01*
X110837033Y-67471814D02*
X110741795Y-67519433D01*
X111789414Y-68233719D02*
X111979890Y-68233719D01*
X111979890Y-68233719D02*
X112075128Y-68186100D01*
X112075128Y-68186100D02*
X112122747Y-68138480D01*
X112122747Y-68138480D02*
X112217985Y-67995623D01*
X112217985Y-67995623D02*
X112265604Y-67805147D01*
X112265604Y-67805147D02*
X112265604Y-67424195D01*
X112265604Y-67424195D02*
X112217985Y-67328957D01*
X112217985Y-67328957D02*
X112170366Y-67281338D01*
X112170366Y-67281338D02*
X112075128Y-67233719D01*
X112075128Y-67233719D02*
X111884652Y-67233719D01*
X111884652Y-67233719D02*
X111789414Y-67281338D01*
X111789414Y-67281338D02*
X111741795Y-67328957D01*
X111741795Y-67328957D02*
X111694176Y-67424195D01*
X111694176Y-67424195D02*
X111694176Y-67662290D01*
X111694176Y-67662290D02*
X111741795Y-67757528D01*
X111741795Y-67757528D02*
X111789414Y-67805147D01*
X111789414Y-67805147D02*
X111884652Y-67852766D01*
X111884652Y-67852766D02*
X112075128Y-67852766D01*
X112075128Y-67852766D02*
X112170366Y-67805147D01*
X112170366Y-67805147D02*
X112217985Y-67757528D01*
X112217985Y-67757528D02*
X112265604Y-67662290D01*
X40925542Y-67754819D02*
X40592209Y-67278628D01*
X40354114Y-67754819D02*
X40354114Y-66754819D01*
X40354114Y-66754819D02*
X40735066Y-66754819D01*
X40735066Y-66754819D02*
X40830304Y-66802438D01*
X40830304Y-66802438D02*
X40877923Y-66850057D01*
X40877923Y-66850057D02*
X40925542Y-66945295D01*
X40925542Y-66945295D02*
X40925542Y-67088152D01*
X40925542Y-67088152D02*
X40877923Y-67183390D01*
X40877923Y-67183390D02*
X40830304Y-67231009D01*
X40830304Y-67231009D02*
X40735066Y-67278628D01*
X40735066Y-67278628D02*
X40354114Y-67278628D01*
X41877923Y-67754819D02*
X41306495Y-67754819D01*
X41592209Y-67754819D02*
X41592209Y-66754819D01*
X41592209Y-66754819D02*
X41496971Y-66897676D01*
X41496971Y-66897676D02*
X41401733Y-66992914D01*
X41401733Y-66992914D02*
X41306495Y-67040533D01*
X42496971Y-66754819D02*
X42592209Y-66754819D01*
X42592209Y-66754819D02*
X42687447Y-66802438D01*
X42687447Y-66802438D02*
X42735066Y-66850057D01*
X42735066Y-66850057D02*
X42782685Y-66945295D01*
X42782685Y-66945295D02*
X42830304Y-67135771D01*
X42830304Y-67135771D02*
X42830304Y-67373866D01*
X42830304Y-67373866D02*
X42782685Y-67564342D01*
X42782685Y-67564342D02*
X42735066Y-67659580D01*
X42735066Y-67659580D02*
X42687447Y-67707200D01*
X42687447Y-67707200D02*
X42592209Y-67754819D01*
X42592209Y-67754819D02*
X42496971Y-67754819D01*
X42496971Y-67754819D02*
X42401733Y-67707200D01*
X42401733Y-67707200D02*
X42354114Y-67659580D01*
X42354114Y-67659580D02*
X42306495Y-67564342D01*
X42306495Y-67564342D02*
X42258876Y-67373866D01*
X42258876Y-67373866D02*
X42258876Y-67135771D01*
X42258876Y-67135771D02*
X42306495Y-66945295D01*
X42306495Y-66945295D02*
X42354114Y-66850057D01*
X42354114Y-66850057D02*
X42401733Y-66802438D01*
X42401733Y-66802438D02*
X42496971Y-66754819D01*
X87074476Y-77338819D02*
X87074476Y-78053104D01*
X87074476Y-78053104D02*
X87026857Y-78195961D01*
X87026857Y-78195961D02*
X86931619Y-78291200D01*
X86931619Y-78291200D02*
X86788762Y-78338819D01*
X86788762Y-78338819D02*
X86693524Y-78338819D01*
X88074476Y-78338819D02*
X87503048Y-78338819D01*
X87788762Y-78338819D02*
X87788762Y-77338819D01*
X87788762Y-77338819D02*
X87693524Y-77481676D01*
X87693524Y-77481676D02*
X87598286Y-77576914D01*
X87598286Y-77576914D02*
X87503048Y-77624533D01*
X88407810Y-77338819D02*
X89074476Y-77338819D01*
X89074476Y-77338819D02*
X88645905Y-78338819D01*
X76335319Y-56332666D02*
X75859128Y-56665999D01*
X76335319Y-56904094D02*
X75335319Y-56904094D01*
X75335319Y-56904094D02*
X75335319Y-56523142D01*
X75335319Y-56523142D02*
X75382938Y-56427904D01*
X75382938Y-56427904D02*
X75430557Y-56380285D01*
X75430557Y-56380285D02*
X75525795Y-56332666D01*
X75525795Y-56332666D02*
X75668652Y-56332666D01*
X75668652Y-56332666D02*
X75763890Y-56380285D01*
X75763890Y-56380285D02*
X75811509Y-56427904D01*
X75811509Y-56427904D02*
X75859128Y-56523142D01*
X75859128Y-56523142D02*
X75859128Y-56904094D01*
X76335319Y-55856475D02*
X76335319Y-55665999D01*
X76335319Y-55665999D02*
X76287700Y-55570761D01*
X76287700Y-55570761D02*
X76240080Y-55523142D01*
X76240080Y-55523142D02*
X76097223Y-55427904D01*
X76097223Y-55427904D02*
X75906747Y-55380285D01*
X75906747Y-55380285D02*
X75525795Y-55380285D01*
X75525795Y-55380285D02*
X75430557Y-55427904D01*
X75430557Y-55427904D02*
X75382938Y-55475523D01*
X75382938Y-55475523D02*
X75335319Y-55570761D01*
X75335319Y-55570761D02*
X75335319Y-55761237D01*
X75335319Y-55761237D02*
X75382938Y-55856475D01*
X75382938Y-55856475D02*
X75430557Y-55904094D01*
X75430557Y-55904094D02*
X75525795Y-55951713D01*
X75525795Y-55951713D02*
X75763890Y-55951713D01*
X75763890Y-55951713D02*
X75859128Y-55904094D01*
X75859128Y-55904094D02*
X75906747Y-55856475D01*
X75906747Y-55856475D02*
X75954366Y-55761237D01*
X75954366Y-55761237D02*
X75954366Y-55570761D01*
X75954366Y-55570761D02*
X75906747Y-55475523D01*
X75906747Y-55475523D02*
X75859128Y-55427904D01*
X75859128Y-55427904D02*
X75763890Y-55380285D01*
X78304242Y-44157580D02*
X78256623Y-44205200D01*
X78256623Y-44205200D02*
X78113766Y-44252819D01*
X78113766Y-44252819D02*
X78018528Y-44252819D01*
X78018528Y-44252819D02*
X77875671Y-44205200D01*
X77875671Y-44205200D02*
X77780433Y-44109961D01*
X77780433Y-44109961D02*
X77732814Y-44014723D01*
X77732814Y-44014723D02*
X77685195Y-43824247D01*
X77685195Y-43824247D02*
X77685195Y-43681390D01*
X77685195Y-43681390D02*
X77732814Y-43490914D01*
X77732814Y-43490914D02*
X77780433Y-43395676D01*
X77780433Y-43395676D02*
X77875671Y-43300438D01*
X77875671Y-43300438D02*
X78018528Y-43252819D01*
X78018528Y-43252819D02*
X78113766Y-43252819D01*
X78113766Y-43252819D02*
X78256623Y-43300438D01*
X78256623Y-43300438D02*
X78304242Y-43348057D01*
X78637576Y-43252819D02*
X79256623Y-43252819D01*
X79256623Y-43252819D02*
X78923290Y-43633771D01*
X78923290Y-43633771D02*
X79066147Y-43633771D01*
X79066147Y-43633771D02*
X79161385Y-43681390D01*
X79161385Y-43681390D02*
X79209004Y-43729009D01*
X79209004Y-43729009D02*
X79256623Y-43824247D01*
X79256623Y-43824247D02*
X79256623Y-44062342D01*
X79256623Y-44062342D02*
X79209004Y-44157580D01*
X79209004Y-44157580D02*
X79161385Y-44205200D01*
X79161385Y-44205200D02*
X79066147Y-44252819D01*
X79066147Y-44252819D02*
X78780433Y-44252819D01*
X78780433Y-44252819D02*
X78685195Y-44205200D01*
X78685195Y-44205200D02*
X78637576Y-44157580D01*
X79732814Y-44252819D02*
X79923290Y-44252819D01*
X79923290Y-44252819D02*
X80018528Y-44205200D01*
X80018528Y-44205200D02*
X80066147Y-44157580D01*
X80066147Y-44157580D02*
X80161385Y-44014723D01*
X80161385Y-44014723D02*
X80209004Y-43824247D01*
X80209004Y-43824247D02*
X80209004Y-43443295D01*
X80209004Y-43443295D02*
X80161385Y-43348057D01*
X80161385Y-43348057D02*
X80113766Y-43300438D01*
X80113766Y-43300438D02*
X80018528Y-43252819D01*
X80018528Y-43252819D02*
X79828052Y-43252819D01*
X79828052Y-43252819D02*
X79732814Y-43300438D01*
X79732814Y-43300438D02*
X79685195Y-43348057D01*
X79685195Y-43348057D02*
X79637576Y-43443295D01*
X79637576Y-43443295D02*
X79637576Y-43681390D01*
X79637576Y-43681390D02*
X79685195Y-43776628D01*
X79685195Y-43776628D02*
X79732814Y-43824247D01*
X79732814Y-43824247D02*
X79828052Y-43871866D01*
X79828052Y-43871866D02*
X80018528Y-43871866D01*
X80018528Y-43871866D02*
X80113766Y-43824247D01*
X80113766Y-43824247D02*
X80161385Y-43776628D01*
X80161385Y-43776628D02*
X80209004Y-43681390D01*
X41590033Y-64974980D02*
X41542414Y-65022600D01*
X41542414Y-65022600D02*
X41399557Y-65070219D01*
X41399557Y-65070219D02*
X41304319Y-65070219D01*
X41304319Y-65070219D02*
X41161462Y-65022600D01*
X41161462Y-65022600D02*
X41066224Y-64927361D01*
X41066224Y-64927361D02*
X41018605Y-64832123D01*
X41018605Y-64832123D02*
X40970986Y-64641647D01*
X40970986Y-64641647D02*
X40970986Y-64498790D01*
X40970986Y-64498790D02*
X41018605Y-64308314D01*
X41018605Y-64308314D02*
X41066224Y-64213076D01*
X41066224Y-64213076D02*
X41161462Y-64117838D01*
X41161462Y-64117838D02*
X41304319Y-64070219D01*
X41304319Y-64070219D02*
X41399557Y-64070219D01*
X41399557Y-64070219D02*
X41542414Y-64117838D01*
X41542414Y-64117838D02*
X41590033Y-64165457D01*
X41923367Y-64070219D02*
X42590033Y-64070219D01*
X42590033Y-64070219D02*
X42161462Y-65070219D01*
X107354476Y-77404819D02*
X107354476Y-78119104D01*
X107354476Y-78119104D02*
X107306857Y-78261961D01*
X107306857Y-78261961D02*
X107211619Y-78357200D01*
X107211619Y-78357200D02*
X107068762Y-78404819D01*
X107068762Y-78404819D02*
X106973524Y-78404819D01*
X108354476Y-78404819D02*
X107783048Y-78404819D01*
X108068762Y-78404819D02*
X108068762Y-77404819D01*
X108068762Y-77404819D02*
X107973524Y-77547676D01*
X107973524Y-77547676D02*
X107878286Y-77642914D01*
X107878286Y-77642914D02*
X107783048Y-77690533D01*
X108973524Y-77404819D02*
X109068762Y-77404819D01*
X109068762Y-77404819D02*
X109164000Y-77452438D01*
X109164000Y-77452438D02*
X109211619Y-77500057D01*
X109211619Y-77500057D02*
X109259238Y-77595295D01*
X109259238Y-77595295D02*
X109306857Y-77785771D01*
X109306857Y-77785771D02*
X109306857Y-78023866D01*
X109306857Y-78023866D02*
X109259238Y-78214342D01*
X109259238Y-78214342D02*
X109211619Y-78309580D01*
X109211619Y-78309580D02*
X109164000Y-78357200D01*
X109164000Y-78357200D02*
X109068762Y-78404819D01*
X109068762Y-78404819D02*
X108973524Y-78404819D01*
X108973524Y-78404819D02*
X108878286Y-78357200D01*
X108878286Y-78357200D02*
X108830667Y-78309580D01*
X108830667Y-78309580D02*
X108783048Y-78214342D01*
X108783048Y-78214342D02*
X108735429Y-78023866D01*
X108735429Y-78023866D02*
X108735429Y-77785771D01*
X108735429Y-77785771D02*
X108783048Y-77595295D01*
X108783048Y-77595295D02*
X108830667Y-77500057D01*
X108830667Y-77500057D02*
X108878286Y-77452438D01*
X108878286Y-77452438D02*
X108973524Y-77404819D01*
X63152142Y-53305580D02*
X63104523Y-53353200D01*
X63104523Y-53353200D02*
X62961666Y-53400819D01*
X62961666Y-53400819D02*
X62866428Y-53400819D01*
X62866428Y-53400819D02*
X62723571Y-53353200D01*
X62723571Y-53353200D02*
X62628333Y-53257961D01*
X62628333Y-53257961D02*
X62580714Y-53162723D01*
X62580714Y-53162723D02*
X62533095Y-52972247D01*
X62533095Y-52972247D02*
X62533095Y-52829390D01*
X62533095Y-52829390D02*
X62580714Y-52638914D01*
X62580714Y-52638914D02*
X62628333Y-52543676D01*
X62628333Y-52543676D02*
X62723571Y-52448438D01*
X62723571Y-52448438D02*
X62866428Y-52400819D01*
X62866428Y-52400819D02*
X62961666Y-52400819D01*
X62961666Y-52400819D02*
X63104523Y-52448438D01*
X63104523Y-52448438D02*
X63152142Y-52496057D01*
X63485476Y-52400819D02*
X64104523Y-52400819D01*
X64104523Y-52400819D02*
X63771190Y-52781771D01*
X63771190Y-52781771D02*
X63914047Y-52781771D01*
X63914047Y-52781771D02*
X64009285Y-52829390D01*
X64009285Y-52829390D02*
X64056904Y-52877009D01*
X64056904Y-52877009D02*
X64104523Y-52972247D01*
X64104523Y-52972247D02*
X64104523Y-53210342D01*
X64104523Y-53210342D02*
X64056904Y-53305580D01*
X64056904Y-53305580D02*
X64009285Y-53353200D01*
X64009285Y-53353200D02*
X63914047Y-53400819D01*
X63914047Y-53400819D02*
X63628333Y-53400819D01*
X63628333Y-53400819D02*
X63533095Y-53353200D01*
X63533095Y-53353200D02*
X63485476Y-53305580D01*
X64723571Y-52400819D02*
X64818809Y-52400819D01*
X64818809Y-52400819D02*
X64914047Y-52448438D01*
X64914047Y-52448438D02*
X64961666Y-52496057D01*
X64961666Y-52496057D02*
X65009285Y-52591295D01*
X65009285Y-52591295D02*
X65056904Y-52781771D01*
X65056904Y-52781771D02*
X65056904Y-53019866D01*
X65056904Y-53019866D02*
X65009285Y-53210342D01*
X65009285Y-53210342D02*
X64961666Y-53305580D01*
X64961666Y-53305580D02*
X64914047Y-53353200D01*
X64914047Y-53353200D02*
X64818809Y-53400819D01*
X64818809Y-53400819D02*
X64723571Y-53400819D01*
X64723571Y-53400819D02*
X64628333Y-53353200D01*
X64628333Y-53353200D02*
X64580714Y-53305580D01*
X64580714Y-53305580D02*
X64533095Y-53210342D01*
X64533095Y-53210342D02*
X64485476Y-53019866D01*
X64485476Y-53019866D02*
X64485476Y-52781771D01*
X64485476Y-52781771D02*
X64533095Y-52591295D01*
X64533095Y-52591295D02*
X64580714Y-52496057D01*
X64580714Y-52496057D02*
X64628333Y-52448438D01*
X64628333Y-52448438D02*
X64723571Y-52400819D01*
X68950342Y-51421180D02*
X68902723Y-51468800D01*
X68902723Y-51468800D02*
X68759866Y-51516419D01*
X68759866Y-51516419D02*
X68664628Y-51516419D01*
X68664628Y-51516419D02*
X68521771Y-51468800D01*
X68521771Y-51468800D02*
X68426533Y-51373561D01*
X68426533Y-51373561D02*
X68378914Y-51278323D01*
X68378914Y-51278323D02*
X68331295Y-51087847D01*
X68331295Y-51087847D02*
X68331295Y-50944990D01*
X68331295Y-50944990D02*
X68378914Y-50754514D01*
X68378914Y-50754514D02*
X68426533Y-50659276D01*
X68426533Y-50659276D02*
X68521771Y-50564038D01*
X68521771Y-50564038D02*
X68664628Y-50516419D01*
X68664628Y-50516419D02*
X68759866Y-50516419D01*
X68759866Y-50516419D02*
X68902723Y-50564038D01*
X68902723Y-50564038D02*
X68950342Y-50611657D01*
X69331295Y-50611657D02*
X69378914Y-50564038D01*
X69378914Y-50564038D02*
X69474152Y-50516419D01*
X69474152Y-50516419D02*
X69712247Y-50516419D01*
X69712247Y-50516419D02*
X69807485Y-50564038D01*
X69807485Y-50564038D02*
X69855104Y-50611657D01*
X69855104Y-50611657D02*
X69902723Y-50706895D01*
X69902723Y-50706895D02*
X69902723Y-50802133D01*
X69902723Y-50802133D02*
X69855104Y-50944990D01*
X69855104Y-50944990D02*
X69283676Y-51516419D01*
X69283676Y-51516419D02*
X69902723Y-51516419D01*
X70283676Y-50611657D02*
X70331295Y-50564038D01*
X70331295Y-50564038D02*
X70426533Y-50516419D01*
X70426533Y-50516419D02*
X70664628Y-50516419D01*
X70664628Y-50516419D02*
X70759866Y-50564038D01*
X70759866Y-50564038D02*
X70807485Y-50611657D01*
X70807485Y-50611657D02*
X70855104Y-50706895D01*
X70855104Y-50706895D02*
X70855104Y-50802133D01*
X70855104Y-50802133D02*
X70807485Y-50944990D01*
X70807485Y-50944990D02*
X70236057Y-51516419D01*
X70236057Y-51516419D02*
X70855104Y-51516419D01*
X78269042Y-58704580D02*
X78221423Y-58752200D01*
X78221423Y-58752200D02*
X78078566Y-58799819D01*
X78078566Y-58799819D02*
X77983328Y-58799819D01*
X77983328Y-58799819D02*
X77840471Y-58752200D01*
X77840471Y-58752200D02*
X77745233Y-58656961D01*
X77745233Y-58656961D02*
X77697614Y-58561723D01*
X77697614Y-58561723D02*
X77649995Y-58371247D01*
X77649995Y-58371247D02*
X77649995Y-58228390D01*
X77649995Y-58228390D02*
X77697614Y-58037914D01*
X77697614Y-58037914D02*
X77745233Y-57942676D01*
X77745233Y-57942676D02*
X77840471Y-57847438D01*
X77840471Y-57847438D02*
X77983328Y-57799819D01*
X77983328Y-57799819D02*
X78078566Y-57799819D01*
X78078566Y-57799819D02*
X78221423Y-57847438D01*
X78221423Y-57847438D02*
X78269042Y-57895057D01*
X78602376Y-57799819D02*
X79221423Y-57799819D01*
X79221423Y-57799819D02*
X78888090Y-58180771D01*
X78888090Y-58180771D02*
X79030947Y-58180771D01*
X79030947Y-58180771D02*
X79126185Y-58228390D01*
X79126185Y-58228390D02*
X79173804Y-58276009D01*
X79173804Y-58276009D02*
X79221423Y-58371247D01*
X79221423Y-58371247D02*
X79221423Y-58609342D01*
X79221423Y-58609342D02*
X79173804Y-58704580D01*
X79173804Y-58704580D02*
X79126185Y-58752200D01*
X79126185Y-58752200D02*
X79030947Y-58799819D01*
X79030947Y-58799819D02*
X78745233Y-58799819D01*
X78745233Y-58799819D02*
X78649995Y-58752200D01*
X78649995Y-58752200D02*
X78602376Y-58704580D01*
X80078566Y-58133152D02*
X80078566Y-58799819D01*
X79840471Y-57752200D02*
X79602376Y-58466485D01*
X79602376Y-58466485D02*
X80221423Y-58466485D01*
X52519342Y-56755180D02*
X52471723Y-56802800D01*
X52471723Y-56802800D02*
X52328866Y-56850419D01*
X52328866Y-56850419D02*
X52233628Y-56850419D01*
X52233628Y-56850419D02*
X52090771Y-56802800D01*
X52090771Y-56802800D02*
X51995533Y-56707561D01*
X51995533Y-56707561D02*
X51947914Y-56612323D01*
X51947914Y-56612323D02*
X51900295Y-56421847D01*
X51900295Y-56421847D02*
X51900295Y-56278990D01*
X51900295Y-56278990D02*
X51947914Y-56088514D01*
X51947914Y-56088514D02*
X51995533Y-55993276D01*
X51995533Y-55993276D02*
X52090771Y-55898038D01*
X52090771Y-55898038D02*
X52233628Y-55850419D01*
X52233628Y-55850419D02*
X52328866Y-55850419D01*
X52328866Y-55850419D02*
X52471723Y-55898038D01*
X52471723Y-55898038D02*
X52519342Y-55945657D01*
X53471723Y-56850419D02*
X52900295Y-56850419D01*
X53186009Y-56850419D02*
X53186009Y-55850419D01*
X53186009Y-55850419D02*
X53090771Y-55993276D01*
X53090771Y-55993276D02*
X52995533Y-56088514D01*
X52995533Y-56088514D02*
X52900295Y-56136133D01*
X53852676Y-55945657D02*
X53900295Y-55898038D01*
X53900295Y-55898038D02*
X53995533Y-55850419D01*
X53995533Y-55850419D02*
X54233628Y-55850419D01*
X54233628Y-55850419D02*
X54328866Y-55898038D01*
X54328866Y-55898038D02*
X54376485Y-55945657D01*
X54376485Y-55945657D02*
X54424104Y-56040895D01*
X54424104Y-56040895D02*
X54424104Y-56136133D01*
X54424104Y-56136133D02*
X54376485Y-56278990D01*
X54376485Y-56278990D02*
X53805057Y-56850419D01*
X53805057Y-56850419D02*
X54424104Y-56850419D01*
X41333333Y-55354819D02*
X41000000Y-54878628D01*
X40761905Y-55354819D02*
X40761905Y-54354819D01*
X40761905Y-54354819D02*
X41142857Y-54354819D01*
X41142857Y-54354819D02*
X41238095Y-54402438D01*
X41238095Y-54402438D02*
X41285714Y-54450057D01*
X41285714Y-54450057D02*
X41333333Y-54545295D01*
X41333333Y-54545295D02*
X41333333Y-54688152D01*
X41333333Y-54688152D02*
X41285714Y-54783390D01*
X41285714Y-54783390D02*
X41238095Y-54831009D01*
X41238095Y-54831009D02*
X41142857Y-54878628D01*
X41142857Y-54878628D02*
X40761905Y-54878628D01*
X41666667Y-54354819D02*
X42333333Y-54354819D01*
X42333333Y-54354819D02*
X41904762Y-55354819D01*
X41539233Y-75708980D02*
X41491614Y-75756600D01*
X41491614Y-75756600D02*
X41348757Y-75804219D01*
X41348757Y-75804219D02*
X41253519Y-75804219D01*
X41253519Y-75804219D02*
X41110662Y-75756600D01*
X41110662Y-75756600D02*
X41015424Y-75661361D01*
X41015424Y-75661361D02*
X40967805Y-75566123D01*
X40967805Y-75566123D02*
X40920186Y-75375647D01*
X40920186Y-75375647D02*
X40920186Y-75232790D01*
X40920186Y-75232790D02*
X40967805Y-75042314D01*
X40967805Y-75042314D02*
X41015424Y-74947076D01*
X41015424Y-74947076D02*
X41110662Y-74851838D01*
X41110662Y-74851838D02*
X41253519Y-74804219D01*
X41253519Y-74804219D02*
X41348757Y-74804219D01*
X41348757Y-74804219D02*
X41491614Y-74851838D01*
X41491614Y-74851838D02*
X41539233Y-74899457D01*
X42110662Y-75232790D02*
X42015424Y-75185171D01*
X42015424Y-75185171D02*
X41967805Y-75137552D01*
X41967805Y-75137552D02*
X41920186Y-75042314D01*
X41920186Y-75042314D02*
X41920186Y-74994695D01*
X41920186Y-74994695D02*
X41967805Y-74899457D01*
X41967805Y-74899457D02*
X42015424Y-74851838D01*
X42015424Y-74851838D02*
X42110662Y-74804219D01*
X42110662Y-74804219D02*
X42301138Y-74804219D01*
X42301138Y-74804219D02*
X42396376Y-74851838D01*
X42396376Y-74851838D02*
X42443995Y-74899457D01*
X42443995Y-74899457D02*
X42491614Y-74994695D01*
X42491614Y-74994695D02*
X42491614Y-75042314D01*
X42491614Y-75042314D02*
X42443995Y-75137552D01*
X42443995Y-75137552D02*
X42396376Y-75185171D01*
X42396376Y-75185171D02*
X42301138Y-75232790D01*
X42301138Y-75232790D02*
X42110662Y-75232790D01*
X42110662Y-75232790D02*
X42015424Y-75280409D01*
X42015424Y-75280409D02*
X41967805Y-75328028D01*
X41967805Y-75328028D02*
X41920186Y-75423266D01*
X41920186Y-75423266D02*
X41920186Y-75613742D01*
X41920186Y-75613742D02*
X41967805Y-75708980D01*
X41967805Y-75708980D02*
X42015424Y-75756600D01*
X42015424Y-75756600D02*
X42110662Y-75804219D01*
X42110662Y-75804219D02*
X42301138Y-75804219D01*
X42301138Y-75804219D02*
X42396376Y-75756600D01*
X42396376Y-75756600D02*
X42443995Y-75708980D01*
X42443995Y-75708980D02*
X42491614Y-75613742D01*
X42491614Y-75613742D02*
X42491614Y-75423266D01*
X42491614Y-75423266D02*
X42443995Y-75328028D01*
X42443995Y-75328028D02*
X42396376Y-75280409D01*
X42396376Y-75280409D02*
X42301138Y-75232790D01*
X113938476Y-25414819D02*
X113938476Y-26129104D01*
X113938476Y-26129104D02*
X113890857Y-26271961D01*
X113890857Y-26271961D02*
X113795619Y-26367200D01*
X113795619Y-26367200D02*
X113652762Y-26414819D01*
X113652762Y-26414819D02*
X113557524Y-26414819D01*
X114367048Y-25510057D02*
X114414667Y-25462438D01*
X114414667Y-25462438D02*
X114509905Y-25414819D01*
X114509905Y-25414819D02*
X114748000Y-25414819D01*
X114748000Y-25414819D02*
X114843238Y-25462438D01*
X114843238Y-25462438D02*
X114890857Y-25510057D01*
X114890857Y-25510057D02*
X114938476Y-25605295D01*
X114938476Y-25605295D02*
X114938476Y-25700533D01*
X114938476Y-25700533D02*
X114890857Y-25843390D01*
X114890857Y-25843390D02*
X114319429Y-26414819D01*
X114319429Y-26414819D02*
X114938476Y-26414819D01*
X115890857Y-26414819D02*
X115319429Y-26414819D01*
X115605143Y-26414819D02*
X115605143Y-25414819D01*
X115605143Y-25414819D02*
X115509905Y-25557676D01*
X115509905Y-25557676D02*
X115414667Y-25652914D01*
X115414667Y-25652914D02*
X115319429Y-25700533D01*
X76573242Y-68179780D02*
X76525623Y-68227400D01*
X76525623Y-68227400D02*
X76382766Y-68275019D01*
X76382766Y-68275019D02*
X76287528Y-68275019D01*
X76287528Y-68275019D02*
X76144671Y-68227400D01*
X76144671Y-68227400D02*
X76049433Y-68132161D01*
X76049433Y-68132161D02*
X76001814Y-68036923D01*
X76001814Y-68036923D02*
X75954195Y-67846447D01*
X75954195Y-67846447D02*
X75954195Y-67703590D01*
X75954195Y-67703590D02*
X76001814Y-67513114D01*
X76001814Y-67513114D02*
X76049433Y-67417876D01*
X76049433Y-67417876D02*
X76144671Y-67322638D01*
X76144671Y-67322638D02*
X76287528Y-67275019D01*
X76287528Y-67275019D02*
X76382766Y-67275019D01*
X76382766Y-67275019D02*
X76525623Y-67322638D01*
X76525623Y-67322638D02*
X76573242Y-67370257D01*
X77525623Y-68275019D02*
X76954195Y-68275019D01*
X77239909Y-68275019D02*
X77239909Y-67275019D01*
X77239909Y-67275019D02*
X77144671Y-67417876D01*
X77144671Y-67417876D02*
X77049433Y-67513114D01*
X77049433Y-67513114D02*
X76954195Y-67560733D01*
X78430385Y-67275019D02*
X77954195Y-67275019D01*
X77954195Y-67275019D02*
X77906576Y-67751209D01*
X77906576Y-67751209D02*
X77954195Y-67703590D01*
X77954195Y-67703590D02*
X78049433Y-67655971D01*
X78049433Y-67655971D02*
X78287528Y-67655971D01*
X78287528Y-67655971D02*
X78382766Y-67703590D01*
X78382766Y-67703590D02*
X78430385Y-67751209D01*
X78430385Y-67751209D02*
X78478004Y-67846447D01*
X78478004Y-67846447D02*
X78478004Y-68084542D01*
X78478004Y-68084542D02*
X78430385Y-68179780D01*
X78430385Y-68179780D02*
X78382766Y-68227400D01*
X78382766Y-68227400D02*
X78287528Y-68275019D01*
X78287528Y-68275019D02*
X78049433Y-68275019D01*
X78049433Y-68275019D02*
X77954195Y-68227400D01*
X77954195Y-68227400D02*
X77906576Y-68179780D01*
X91864519Y-42238657D02*
X91388328Y-42571990D01*
X91864519Y-42810085D02*
X90864519Y-42810085D01*
X90864519Y-42810085D02*
X90864519Y-42429133D01*
X90864519Y-42429133D02*
X90912138Y-42333895D01*
X90912138Y-42333895D02*
X90959757Y-42286276D01*
X90959757Y-42286276D02*
X91054995Y-42238657D01*
X91054995Y-42238657D02*
X91197852Y-42238657D01*
X91197852Y-42238657D02*
X91293090Y-42286276D01*
X91293090Y-42286276D02*
X91340709Y-42333895D01*
X91340709Y-42333895D02*
X91388328Y-42429133D01*
X91388328Y-42429133D02*
X91388328Y-42810085D01*
X91864519Y-41286276D02*
X91864519Y-41857704D01*
X91864519Y-41571990D02*
X90864519Y-41571990D01*
X90864519Y-41571990D02*
X91007376Y-41667228D01*
X91007376Y-41667228D02*
X91102614Y-41762466D01*
X91102614Y-41762466D02*
X91150233Y-41857704D01*
X90864519Y-40381514D02*
X90864519Y-40857704D01*
X90864519Y-40857704D02*
X91340709Y-40905323D01*
X91340709Y-40905323D02*
X91293090Y-40857704D01*
X91293090Y-40857704D02*
X91245471Y-40762466D01*
X91245471Y-40762466D02*
X91245471Y-40524371D01*
X91245471Y-40524371D02*
X91293090Y-40429133D01*
X91293090Y-40429133D02*
X91340709Y-40381514D01*
X91340709Y-40381514D02*
X91435947Y-40333895D01*
X91435947Y-40333895D02*
X91674042Y-40333895D01*
X91674042Y-40333895D02*
X91769280Y-40381514D01*
X91769280Y-40381514D02*
X91816900Y-40429133D01*
X91816900Y-40429133D02*
X91864519Y-40524371D01*
X91864519Y-40524371D02*
X91864519Y-40762466D01*
X91864519Y-40762466D02*
X91816900Y-40857704D01*
X91816900Y-40857704D02*
X91769280Y-40905323D01*
X63853476Y-77404819D02*
X63853476Y-78119104D01*
X63853476Y-78119104D02*
X63805857Y-78261961D01*
X63805857Y-78261961D02*
X63710619Y-78357200D01*
X63710619Y-78357200D02*
X63567762Y-78404819D01*
X63567762Y-78404819D02*
X63472524Y-78404819D01*
X64853476Y-78404819D02*
X64282048Y-78404819D01*
X64567762Y-78404819D02*
X64567762Y-77404819D01*
X64567762Y-77404819D02*
X64472524Y-77547676D01*
X64472524Y-77547676D02*
X64377286Y-77642914D01*
X64377286Y-77642914D02*
X64282048Y-77690533D01*
X65710619Y-77404819D02*
X65520143Y-77404819D01*
X65520143Y-77404819D02*
X65424905Y-77452438D01*
X65424905Y-77452438D02*
X65377286Y-77500057D01*
X65377286Y-77500057D02*
X65282048Y-77642914D01*
X65282048Y-77642914D02*
X65234429Y-77833390D01*
X65234429Y-77833390D02*
X65234429Y-78214342D01*
X65234429Y-78214342D02*
X65282048Y-78309580D01*
X65282048Y-78309580D02*
X65329667Y-78357200D01*
X65329667Y-78357200D02*
X65424905Y-78404819D01*
X65424905Y-78404819D02*
X65615381Y-78404819D01*
X65615381Y-78404819D02*
X65710619Y-78357200D01*
X65710619Y-78357200D02*
X65758238Y-78309580D01*
X65758238Y-78309580D02*
X65805857Y-78214342D01*
X65805857Y-78214342D02*
X65805857Y-77976247D01*
X65805857Y-77976247D02*
X65758238Y-77881009D01*
X65758238Y-77881009D02*
X65710619Y-77833390D01*
X65710619Y-77833390D02*
X65615381Y-77785771D01*
X65615381Y-77785771D02*
X65424905Y-77785771D01*
X65424905Y-77785771D02*
X65329667Y-77833390D01*
X65329667Y-77833390D02*
X65282048Y-77881009D01*
X65282048Y-77881009D02*
X65234429Y-77976247D01*
X112097780Y-59909157D02*
X112145400Y-59956776D01*
X112145400Y-59956776D02*
X112193019Y-60099633D01*
X112193019Y-60099633D02*
X112193019Y-60194871D01*
X112193019Y-60194871D02*
X112145400Y-60337728D01*
X112145400Y-60337728D02*
X112050161Y-60432966D01*
X112050161Y-60432966D02*
X111954923Y-60480585D01*
X111954923Y-60480585D02*
X111764447Y-60528204D01*
X111764447Y-60528204D02*
X111621590Y-60528204D01*
X111621590Y-60528204D02*
X111431114Y-60480585D01*
X111431114Y-60480585D02*
X111335876Y-60432966D01*
X111335876Y-60432966D02*
X111240638Y-60337728D01*
X111240638Y-60337728D02*
X111193019Y-60194871D01*
X111193019Y-60194871D02*
X111193019Y-60099633D01*
X111193019Y-60099633D02*
X111240638Y-59956776D01*
X111240638Y-59956776D02*
X111288257Y-59909157D01*
X112193019Y-58956776D02*
X112193019Y-59528204D01*
X112193019Y-59242490D02*
X111193019Y-59242490D01*
X111193019Y-59242490D02*
X111335876Y-59337728D01*
X111335876Y-59337728D02*
X111431114Y-59432966D01*
X111431114Y-59432966D02*
X111478733Y-59528204D01*
X111193019Y-58623442D02*
X111193019Y-57956776D01*
X111193019Y-57956776D02*
X112193019Y-58385347D01*
X68991342Y-41896180D02*
X68943723Y-41943800D01*
X68943723Y-41943800D02*
X68800866Y-41991419D01*
X68800866Y-41991419D02*
X68705628Y-41991419D01*
X68705628Y-41991419D02*
X68562771Y-41943800D01*
X68562771Y-41943800D02*
X68467533Y-41848561D01*
X68467533Y-41848561D02*
X68419914Y-41753323D01*
X68419914Y-41753323D02*
X68372295Y-41562847D01*
X68372295Y-41562847D02*
X68372295Y-41419990D01*
X68372295Y-41419990D02*
X68419914Y-41229514D01*
X68419914Y-41229514D02*
X68467533Y-41134276D01*
X68467533Y-41134276D02*
X68562771Y-41039038D01*
X68562771Y-41039038D02*
X68705628Y-40991419D01*
X68705628Y-40991419D02*
X68800866Y-40991419D01*
X68800866Y-40991419D02*
X68943723Y-41039038D01*
X68943723Y-41039038D02*
X68991342Y-41086657D01*
X69372295Y-41086657D02*
X69419914Y-41039038D01*
X69419914Y-41039038D02*
X69515152Y-40991419D01*
X69515152Y-40991419D02*
X69753247Y-40991419D01*
X69753247Y-40991419D02*
X69848485Y-41039038D01*
X69848485Y-41039038D02*
X69896104Y-41086657D01*
X69896104Y-41086657D02*
X69943723Y-41181895D01*
X69943723Y-41181895D02*
X69943723Y-41277133D01*
X69943723Y-41277133D02*
X69896104Y-41419990D01*
X69896104Y-41419990D02*
X69324676Y-41991419D01*
X69324676Y-41991419D02*
X69943723Y-41991419D01*
X70896104Y-41991419D02*
X70324676Y-41991419D01*
X70610390Y-41991419D02*
X70610390Y-40991419D01*
X70610390Y-40991419D02*
X70515152Y-41134276D01*
X70515152Y-41134276D02*
X70419914Y-41229514D01*
X70419914Y-41229514D02*
X70324676Y-41277133D01*
X52412842Y-41582419D02*
X52079509Y-41106228D01*
X51841414Y-41582419D02*
X51841414Y-40582419D01*
X51841414Y-40582419D02*
X52222366Y-40582419D01*
X52222366Y-40582419D02*
X52317604Y-40630038D01*
X52317604Y-40630038D02*
X52365223Y-40677657D01*
X52365223Y-40677657D02*
X52412842Y-40772895D01*
X52412842Y-40772895D02*
X52412842Y-40915752D01*
X52412842Y-40915752D02*
X52365223Y-41010990D01*
X52365223Y-41010990D02*
X52317604Y-41058609D01*
X52317604Y-41058609D02*
X52222366Y-41106228D01*
X52222366Y-41106228D02*
X51841414Y-41106228D01*
X53365223Y-41582419D02*
X52793795Y-41582419D01*
X53079509Y-41582419D02*
X53079509Y-40582419D01*
X53079509Y-40582419D02*
X52984271Y-40725276D01*
X52984271Y-40725276D02*
X52889033Y-40820514D01*
X52889033Y-40820514D02*
X52793795Y-40868133D01*
X54222366Y-40915752D02*
X54222366Y-41582419D01*
X53984271Y-40534800D02*
X53746176Y-41249085D01*
X53746176Y-41249085D02*
X54365223Y-41249085D01*
X52407242Y-61554819D02*
X52073909Y-61078628D01*
X51835814Y-61554819D02*
X51835814Y-60554819D01*
X51835814Y-60554819D02*
X52216766Y-60554819D01*
X52216766Y-60554819D02*
X52312004Y-60602438D01*
X52312004Y-60602438D02*
X52359623Y-60650057D01*
X52359623Y-60650057D02*
X52407242Y-60745295D01*
X52407242Y-60745295D02*
X52407242Y-60888152D01*
X52407242Y-60888152D02*
X52359623Y-60983390D01*
X52359623Y-60983390D02*
X52312004Y-61031009D01*
X52312004Y-61031009D02*
X52216766Y-61078628D01*
X52216766Y-61078628D02*
X51835814Y-61078628D01*
X53359623Y-61554819D02*
X52788195Y-61554819D01*
X53073909Y-61554819D02*
X53073909Y-60554819D01*
X53073909Y-60554819D02*
X52978671Y-60697676D01*
X52978671Y-60697676D02*
X52883433Y-60792914D01*
X52883433Y-60792914D02*
X52788195Y-60840533D01*
X53835814Y-61554819D02*
X54026290Y-61554819D01*
X54026290Y-61554819D02*
X54121528Y-61507200D01*
X54121528Y-61507200D02*
X54169147Y-61459580D01*
X54169147Y-61459580D02*
X54264385Y-61316723D01*
X54264385Y-61316723D02*
X54312004Y-61126247D01*
X54312004Y-61126247D02*
X54312004Y-60745295D01*
X54312004Y-60745295D02*
X54264385Y-60650057D01*
X54264385Y-60650057D02*
X54216766Y-60602438D01*
X54216766Y-60602438D02*
X54121528Y-60554819D01*
X54121528Y-60554819D02*
X53931052Y-60554819D01*
X53931052Y-60554819D02*
X53835814Y-60602438D01*
X53835814Y-60602438D02*
X53788195Y-60650057D01*
X53788195Y-60650057D02*
X53740576Y-60745295D01*
X53740576Y-60745295D02*
X53740576Y-60983390D01*
X53740576Y-60983390D02*
X53788195Y-61078628D01*
X53788195Y-61078628D02*
X53835814Y-61126247D01*
X53835814Y-61126247D02*
X53931052Y-61173866D01*
X53931052Y-61173866D02*
X54121528Y-61173866D01*
X54121528Y-61173866D02*
X54216766Y-61126247D01*
X54216766Y-61126247D02*
X54264385Y-61078628D01*
X54264385Y-61078628D02*
X54312004Y-60983390D01*
X41270133Y-60475019D02*
X40936800Y-59998828D01*
X40698705Y-60475019D02*
X40698705Y-59475019D01*
X40698705Y-59475019D02*
X41079657Y-59475019D01*
X41079657Y-59475019D02*
X41174895Y-59522638D01*
X41174895Y-59522638D02*
X41222514Y-59570257D01*
X41222514Y-59570257D02*
X41270133Y-59665495D01*
X41270133Y-59665495D02*
X41270133Y-59808352D01*
X41270133Y-59808352D02*
X41222514Y-59903590D01*
X41222514Y-59903590D02*
X41174895Y-59951209D01*
X41174895Y-59951209D02*
X41079657Y-59998828D01*
X41079657Y-59998828D02*
X40698705Y-59998828D01*
X41841562Y-59903590D02*
X41746324Y-59855971D01*
X41746324Y-59855971D02*
X41698705Y-59808352D01*
X41698705Y-59808352D02*
X41651086Y-59713114D01*
X41651086Y-59713114D02*
X41651086Y-59665495D01*
X41651086Y-59665495D02*
X41698705Y-59570257D01*
X41698705Y-59570257D02*
X41746324Y-59522638D01*
X41746324Y-59522638D02*
X41841562Y-59475019D01*
X41841562Y-59475019D02*
X42032038Y-59475019D01*
X42032038Y-59475019D02*
X42127276Y-59522638D01*
X42127276Y-59522638D02*
X42174895Y-59570257D01*
X42174895Y-59570257D02*
X42222514Y-59665495D01*
X42222514Y-59665495D02*
X42222514Y-59713114D01*
X42222514Y-59713114D02*
X42174895Y-59808352D01*
X42174895Y-59808352D02*
X42127276Y-59855971D01*
X42127276Y-59855971D02*
X42032038Y-59903590D01*
X42032038Y-59903590D02*
X41841562Y-59903590D01*
X41841562Y-59903590D02*
X41746324Y-59951209D01*
X41746324Y-59951209D02*
X41698705Y-59998828D01*
X41698705Y-59998828D02*
X41651086Y-60094066D01*
X41651086Y-60094066D02*
X41651086Y-60284542D01*
X41651086Y-60284542D02*
X41698705Y-60379780D01*
X41698705Y-60379780D02*
X41746324Y-60427400D01*
X41746324Y-60427400D02*
X41841562Y-60475019D01*
X41841562Y-60475019D02*
X42032038Y-60475019D01*
X42032038Y-60475019D02*
X42127276Y-60427400D01*
X42127276Y-60427400D02*
X42174895Y-60379780D01*
X42174895Y-60379780D02*
X42222514Y-60284542D01*
X42222514Y-60284542D02*
X42222514Y-60094066D01*
X42222514Y-60094066D02*
X42174895Y-59998828D01*
X42174895Y-59998828D02*
X42127276Y-59951209D01*
X42127276Y-59951209D02*
X42032038Y-59903590D01*
X63136542Y-62806580D02*
X63088923Y-62854200D01*
X63088923Y-62854200D02*
X62946066Y-62901819D01*
X62946066Y-62901819D02*
X62850828Y-62901819D01*
X62850828Y-62901819D02*
X62707971Y-62854200D01*
X62707971Y-62854200D02*
X62612733Y-62758961D01*
X62612733Y-62758961D02*
X62565114Y-62663723D01*
X62565114Y-62663723D02*
X62517495Y-62473247D01*
X62517495Y-62473247D02*
X62517495Y-62330390D01*
X62517495Y-62330390D02*
X62565114Y-62139914D01*
X62565114Y-62139914D02*
X62612733Y-62044676D01*
X62612733Y-62044676D02*
X62707971Y-61949438D01*
X62707971Y-61949438D02*
X62850828Y-61901819D01*
X62850828Y-61901819D02*
X62946066Y-61901819D01*
X62946066Y-61901819D02*
X63088923Y-61949438D01*
X63088923Y-61949438D02*
X63136542Y-61997057D01*
X63469876Y-61901819D02*
X64088923Y-61901819D01*
X64088923Y-61901819D02*
X63755590Y-62282771D01*
X63755590Y-62282771D02*
X63898447Y-62282771D01*
X63898447Y-62282771D02*
X63993685Y-62330390D01*
X63993685Y-62330390D02*
X64041304Y-62378009D01*
X64041304Y-62378009D02*
X64088923Y-62473247D01*
X64088923Y-62473247D02*
X64088923Y-62711342D01*
X64088923Y-62711342D02*
X64041304Y-62806580D01*
X64041304Y-62806580D02*
X63993685Y-62854200D01*
X63993685Y-62854200D02*
X63898447Y-62901819D01*
X63898447Y-62901819D02*
X63612733Y-62901819D01*
X63612733Y-62901819D02*
X63517495Y-62854200D01*
X63517495Y-62854200D02*
X63469876Y-62806580D01*
X65041304Y-62901819D02*
X64469876Y-62901819D01*
X64755590Y-62901819D02*
X64755590Y-61901819D01*
X64755590Y-61901819D02*
X64660352Y-62044676D01*
X64660352Y-62044676D02*
X64565114Y-62139914D01*
X64565114Y-62139914D02*
X64469876Y-62187533D01*
X40960342Y-72951819D02*
X40627009Y-72475628D01*
X40388914Y-72951819D02*
X40388914Y-71951819D01*
X40388914Y-71951819D02*
X40769866Y-71951819D01*
X40769866Y-71951819D02*
X40865104Y-71999438D01*
X40865104Y-71999438D02*
X40912723Y-72047057D01*
X40912723Y-72047057D02*
X40960342Y-72142295D01*
X40960342Y-72142295D02*
X40960342Y-72285152D01*
X40960342Y-72285152D02*
X40912723Y-72380390D01*
X40912723Y-72380390D02*
X40865104Y-72428009D01*
X40865104Y-72428009D02*
X40769866Y-72475628D01*
X40769866Y-72475628D02*
X40388914Y-72475628D01*
X41912723Y-72951819D02*
X41341295Y-72951819D01*
X41627009Y-72951819D02*
X41627009Y-71951819D01*
X41627009Y-71951819D02*
X41531771Y-72094676D01*
X41531771Y-72094676D02*
X41436533Y-72189914D01*
X41436533Y-72189914D02*
X41341295Y-72237533D01*
X42865104Y-72951819D02*
X42293676Y-72951819D01*
X42579390Y-72951819D02*
X42579390Y-71951819D01*
X42579390Y-71951819D02*
X42484152Y-72094676D01*
X42484152Y-72094676D02*
X42388914Y-72189914D01*
X42388914Y-72189914D02*
X42293676Y-72237533D01*
X83746405Y-48340619D02*
X83746405Y-49150142D01*
X83746405Y-49150142D02*
X83794024Y-49245380D01*
X83794024Y-49245380D02*
X83841643Y-49293000D01*
X83841643Y-49293000D02*
X83936881Y-49340619D01*
X83936881Y-49340619D02*
X84127357Y-49340619D01*
X84127357Y-49340619D02*
X84222595Y-49293000D01*
X84222595Y-49293000D02*
X84270214Y-49245380D01*
X84270214Y-49245380D02*
X84317833Y-49150142D01*
X84317833Y-49150142D02*
X84317833Y-48340619D01*
X85317833Y-49340619D02*
X84746405Y-49340619D01*
X85032119Y-49340619D02*
X85032119Y-48340619D01*
X85032119Y-48340619D02*
X84936881Y-48483476D01*
X84936881Y-48483476D02*
X84841643Y-48578714D01*
X84841643Y-48578714D02*
X84746405Y-48626333D01*
X86270214Y-49340619D02*
X85698786Y-49340619D01*
X85984500Y-49340619D02*
X85984500Y-48340619D01*
X85984500Y-48340619D02*
X85889262Y-48483476D01*
X85889262Y-48483476D02*
X85794024Y-48578714D01*
X85794024Y-48578714D02*
X85698786Y-48626333D01*
X49086419Y-67211533D02*
X49800704Y-67211533D01*
X49800704Y-67211533D02*
X49943561Y-67259152D01*
X49943561Y-67259152D02*
X50038800Y-67354390D01*
X50038800Y-67354390D02*
X50086419Y-67497247D01*
X50086419Y-67497247D02*
X50086419Y-67592485D01*
X49086419Y-66830580D02*
X49086419Y-66163914D01*
X49086419Y-66163914D02*
X50086419Y-66592485D01*
X37491219Y-35924133D02*
X38205504Y-35924133D01*
X38205504Y-35924133D02*
X38348361Y-35971752D01*
X38348361Y-35971752D02*
X38443600Y-36066990D01*
X38443600Y-36066990D02*
X38491219Y-36209847D01*
X38491219Y-36209847D02*
X38491219Y-36305085D01*
X38491219Y-34924133D02*
X38491219Y-35495561D01*
X38491219Y-35209847D02*
X37491219Y-35209847D01*
X37491219Y-35209847D02*
X37634076Y-35305085D01*
X37634076Y-35305085D02*
X37729314Y-35400323D01*
X37729314Y-35400323D02*
X37776933Y-35495561D01*
X130908819Y-46178523D02*
X131623104Y-46178523D01*
X131623104Y-46178523D02*
X131765961Y-46226142D01*
X131765961Y-46226142D02*
X131861200Y-46321380D01*
X131861200Y-46321380D02*
X131908819Y-46464237D01*
X131908819Y-46464237D02*
X131908819Y-46559475D01*
X131908819Y-45178523D02*
X131908819Y-45749951D01*
X131908819Y-45464237D02*
X130908819Y-45464237D01*
X130908819Y-45464237D02*
X131051676Y-45559475D01*
X131051676Y-45559475D02*
X131146914Y-45654713D01*
X131146914Y-45654713D02*
X131194533Y-45749951D01*
X130908819Y-44273761D02*
X130908819Y-44749951D01*
X130908819Y-44749951D02*
X131385009Y-44797570D01*
X131385009Y-44797570D02*
X131337390Y-44749951D01*
X131337390Y-44749951D02*
X131289771Y-44654713D01*
X131289771Y-44654713D02*
X131289771Y-44416618D01*
X131289771Y-44416618D02*
X131337390Y-44321380D01*
X131337390Y-44321380D02*
X131385009Y-44273761D01*
X131385009Y-44273761D02*
X131480247Y-44226142D01*
X131480247Y-44226142D02*
X131718342Y-44226142D01*
X131718342Y-44226142D02*
X131813580Y-44273761D01*
X131813580Y-44273761D02*
X131861200Y-44321380D01*
X131861200Y-44321380D02*
X131908819Y-44416618D01*
X131908819Y-44416618D02*
X131908819Y-44654713D01*
X131908819Y-44654713D02*
X131861200Y-44749951D01*
X131861200Y-44749951D02*
X131813580Y-44797570D01*
X63187342Y-43827180D02*
X63139723Y-43874800D01*
X63139723Y-43874800D02*
X62996866Y-43922419D01*
X62996866Y-43922419D02*
X62901628Y-43922419D01*
X62901628Y-43922419D02*
X62758771Y-43874800D01*
X62758771Y-43874800D02*
X62663533Y-43779561D01*
X62663533Y-43779561D02*
X62615914Y-43684323D01*
X62615914Y-43684323D02*
X62568295Y-43493847D01*
X62568295Y-43493847D02*
X62568295Y-43350990D01*
X62568295Y-43350990D02*
X62615914Y-43160514D01*
X62615914Y-43160514D02*
X62663533Y-43065276D01*
X62663533Y-43065276D02*
X62758771Y-42970038D01*
X62758771Y-42970038D02*
X62901628Y-42922419D01*
X62901628Y-42922419D02*
X62996866Y-42922419D01*
X62996866Y-42922419D02*
X63139723Y-42970038D01*
X63139723Y-42970038D02*
X63187342Y-43017657D01*
X63568295Y-43017657D02*
X63615914Y-42970038D01*
X63615914Y-42970038D02*
X63711152Y-42922419D01*
X63711152Y-42922419D02*
X63949247Y-42922419D01*
X63949247Y-42922419D02*
X64044485Y-42970038D01*
X64044485Y-42970038D02*
X64092104Y-43017657D01*
X64092104Y-43017657D02*
X64139723Y-43112895D01*
X64139723Y-43112895D02*
X64139723Y-43208133D01*
X64139723Y-43208133D02*
X64092104Y-43350990D01*
X64092104Y-43350990D02*
X63520676Y-43922419D01*
X63520676Y-43922419D02*
X64139723Y-43922419D01*
X64615914Y-43922419D02*
X64806390Y-43922419D01*
X64806390Y-43922419D02*
X64901628Y-43874800D01*
X64901628Y-43874800D02*
X64949247Y-43827180D01*
X64949247Y-43827180D02*
X65044485Y-43684323D01*
X65044485Y-43684323D02*
X65092104Y-43493847D01*
X65092104Y-43493847D02*
X65092104Y-43112895D01*
X65092104Y-43112895D02*
X65044485Y-43017657D01*
X65044485Y-43017657D02*
X64996866Y-42970038D01*
X64996866Y-42970038D02*
X64901628Y-42922419D01*
X64901628Y-42922419D02*
X64711152Y-42922419D01*
X64711152Y-42922419D02*
X64615914Y-42970038D01*
X64615914Y-42970038D02*
X64568295Y-43017657D01*
X64568295Y-43017657D02*
X64520676Y-43112895D01*
X64520676Y-43112895D02*
X64520676Y-43350990D01*
X64520676Y-43350990D02*
X64568295Y-43446228D01*
X64568295Y-43446228D02*
X64615914Y-43493847D01*
X64615914Y-43493847D02*
X64711152Y-43541466D01*
X64711152Y-43541466D02*
X64901628Y-43541466D01*
X64901628Y-43541466D02*
X64996866Y-43493847D01*
X64996866Y-43493847D02*
X65044485Y-43446228D01*
X65044485Y-43446228D02*
X65092104Y-43350990D01*
X41443033Y-50750780D02*
X41395414Y-50798400D01*
X41395414Y-50798400D02*
X41252557Y-50846019D01*
X41252557Y-50846019D02*
X41157319Y-50846019D01*
X41157319Y-50846019D02*
X41014462Y-50798400D01*
X41014462Y-50798400D02*
X40919224Y-50703161D01*
X40919224Y-50703161D02*
X40871605Y-50607923D01*
X40871605Y-50607923D02*
X40823986Y-50417447D01*
X40823986Y-50417447D02*
X40823986Y-50274590D01*
X40823986Y-50274590D02*
X40871605Y-50084114D01*
X40871605Y-50084114D02*
X40919224Y-49988876D01*
X40919224Y-49988876D02*
X41014462Y-49893638D01*
X41014462Y-49893638D02*
X41157319Y-49846019D01*
X41157319Y-49846019D02*
X41252557Y-49846019D01*
X41252557Y-49846019D02*
X41395414Y-49893638D01*
X41395414Y-49893638D02*
X41443033Y-49941257D01*
X42300176Y-50179352D02*
X42300176Y-50846019D01*
X42062081Y-49798400D02*
X41823986Y-50512685D01*
X41823986Y-50512685D02*
X42443033Y-50512685D01*
X90981476Y-25436819D02*
X90981476Y-26151104D01*
X90981476Y-26151104D02*
X90933857Y-26293961D01*
X90933857Y-26293961D02*
X90838619Y-26389200D01*
X90838619Y-26389200D02*
X90695762Y-26436819D01*
X90695762Y-26436819D02*
X90600524Y-26436819D01*
X91410048Y-25532057D02*
X91457667Y-25484438D01*
X91457667Y-25484438D02*
X91552905Y-25436819D01*
X91552905Y-25436819D02*
X91791000Y-25436819D01*
X91791000Y-25436819D02*
X91886238Y-25484438D01*
X91886238Y-25484438D02*
X91933857Y-25532057D01*
X91933857Y-25532057D02*
X91981476Y-25627295D01*
X91981476Y-25627295D02*
X91981476Y-25722533D01*
X91981476Y-25722533D02*
X91933857Y-25865390D01*
X91933857Y-25865390D02*
X91362429Y-26436819D01*
X91362429Y-26436819D02*
X91981476Y-26436819D01*
X92600524Y-25436819D02*
X92695762Y-25436819D01*
X92695762Y-25436819D02*
X92791000Y-25484438D01*
X92791000Y-25484438D02*
X92838619Y-25532057D01*
X92838619Y-25532057D02*
X92886238Y-25627295D01*
X92886238Y-25627295D02*
X92933857Y-25817771D01*
X92933857Y-25817771D02*
X92933857Y-26055866D01*
X92933857Y-26055866D02*
X92886238Y-26246342D01*
X92886238Y-26246342D02*
X92838619Y-26341580D01*
X92838619Y-26341580D02*
X92791000Y-26389200D01*
X92791000Y-26389200D02*
X92695762Y-26436819D01*
X92695762Y-26436819D02*
X92600524Y-26436819D01*
X92600524Y-26436819D02*
X92505286Y-26389200D01*
X92505286Y-26389200D02*
X92457667Y-26341580D01*
X92457667Y-26341580D02*
X92410048Y-26246342D01*
X92410048Y-26246342D02*
X92362429Y-26055866D01*
X92362429Y-26055866D02*
X92362429Y-25817771D01*
X92362429Y-25817771D02*
X92410048Y-25627295D01*
X92410048Y-25627295D02*
X92457667Y-25532057D01*
X92457667Y-25532057D02*
X92505286Y-25484438D01*
X92505286Y-25484438D02*
X92600524Y-25436819D01*
X49111819Y-54511533D02*
X49826104Y-54511533D01*
X49826104Y-54511533D02*
X49968961Y-54559152D01*
X49968961Y-54559152D02*
X50064200Y-54654390D01*
X50064200Y-54654390D02*
X50111819Y-54797247D01*
X50111819Y-54797247D02*
X50111819Y-54892485D01*
X49111819Y-53606771D02*
X49111819Y-53797247D01*
X49111819Y-53797247D02*
X49159438Y-53892485D01*
X49159438Y-53892485D02*
X49207057Y-53940104D01*
X49207057Y-53940104D02*
X49349914Y-54035342D01*
X49349914Y-54035342D02*
X49540390Y-54082961D01*
X49540390Y-54082961D02*
X49921342Y-54082961D01*
X49921342Y-54082961D02*
X50016580Y-54035342D01*
X50016580Y-54035342D02*
X50064200Y-53987723D01*
X50064200Y-53987723D02*
X50111819Y-53892485D01*
X50111819Y-53892485D02*
X50111819Y-53702009D01*
X50111819Y-53702009D02*
X50064200Y-53606771D01*
X50064200Y-53606771D02*
X50016580Y-53559152D01*
X50016580Y-53559152D02*
X49921342Y-53511533D01*
X49921342Y-53511533D02*
X49683247Y-53511533D01*
X49683247Y-53511533D02*
X49588009Y-53559152D01*
X49588009Y-53559152D02*
X49540390Y-53606771D01*
X49540390Y-53606771D02*
X49492771Y-53702009D01*
X49492771Y-53702009D02*
X49492771Y-53892485D01*
X49492771Y-53892485D02*
X49540390Y-53987723D01*
X49540390Y-53987723D02*
X49588009Y-54035342D01*
X49588009Y-54035342D02*
X49683247Y-54082961D01*
X87632742Y-71863019D02*
X87299409Y-71386828D01*
X87061314Y-71863019D02*
X87061314Y-70863019D01*
X87061314Y-70863019D02*
X87442266Y-70863019D01*
X87442266Y-70863019D02*
X87537504Y-70910638D01*
X87537504Y-70910638D02*
X87585123Y-70958257D01*
X87585123Y-70958257D02*
X87632742Y-71053495D01*
X87632742Y-71053495D02*
X87632742Y-71196352D01*
X87632742Y-71196352D02*
X87585123Y-71291590D01*
X87585123Y-71291590D02*
X87537504Y-71339209D01*
X87537504Y-71339209D02*
X87442266Y-71386828D01*
X87442266Y-71386828D02*
X87061314Y-71386828D01*
X88013695Y-70958257D02*
X88061314Y-70910638D01*
X88061314Y-70910638D02*
X88156552Y-70863019D01*
X88156552Y-70863019D02*
X88394647Y-70863019D01*
X88394647Y-70863019D02*
X88489885Y-70910638D01*
X88489885Y-70910638D02*
X88537504Y-70958257D01*
X88537504Y-70958257D02*
X88585123Y-71053495D01*
X88585123Y-71053495D02*
X88585123Y-71148733D01*
X88585123Y-71148733D02*
X88537504Y-71291590D01*
X88537504Y-71291590D02*
X87966076Y-71863019D01*
X87966076Y-71863019D02*
X88585123Y-71863019D01*
X89442266Y-71196352D02*
X89442266Y-71863019D01*
X89204171Y-70815400D02*
X88966076Y-71529685D01*
X88966076Y-71529685D02*
X89585123Y-71529685D01*
X52437142Y-66728419D02*
X52103809Y-66252228D01*
X51865714Y-66728419D02*
X51865714Y-65728419D01*
X51865714Y-65728419D02*
X52246666Y-65728419D01*
X52246666Y-65728419D02*
X52341904Y-65776038D01*
X52341904Y-65776038D02*
X52389523Y-65823657D01*
X52389523Y-65823657D02*
X52437142Y-65918895D01*
X52437142Y-65918895D02*
X52437142Y-66061752D01*
X52437142Y-66061752D02*
X52389523Y-66156990D01*
X52389523Y-66156990D02*
X52341904Y-66204609D01*
X52341904Y-66204609D02*
X52246666Y-66252228D01*
X52246666Y-66252228D02*
X51865714Y-66252228D01*
X52818095Y-65823657D02*
X52865714Y-65776038D01*
X52865714Y-65776038D02*
X52960952Y-65728419D01*
X52960952Y-65728419D02*
X53199047Y-65728419D01*
X53199047Y-65728419D02*
X53294285Y-65776038D01*
X53294285Y-65776038D02*
X53341904Y-65823657D01*
X53341904Y-65823657D02*
X53389523Y-65918895D01*
X53389523Y-65918895D02*
X53389523Y-66014133D01*
X53389523Y-66014133D02*
X53341904Y-66156990D01*
X53341904Y-66156990D02*
X52770476Y-66728419D01*
X52770476Y-66728419D02*
X53389523Y-66728419D01*
X54008571Y-65728419D02*
X54103809Y-65728419D01*
X54103809Y-65728419D02*
X54199047Y-65776038D01*
X54199047Y-65776038D02*
X54246666Y-65823657D01*
X54246666Y-65823657D02*
X54294285Y-65918895D01*
X54294285Y-65918895D02*
X54341904Y-66109371D01*
X54341904Y-66109371D02*
X54341904Y-66347466D01*
X54341904Y-66347466D02*
X54294285Y-66537942D01*
X54294285Y-66537942D02*
X54246666Y-66633180D01*
X54246666Y-66633180D02*
X54199047Y-66680800D01*
X54199047Y-66680800D02*
X54103809Y-66728419D01*
X54103809Y-66728419D02*
X54008571Y-66728419D01*
X54008571Y-66728419D02*
X53913333Y-66680800D01*
X53913333Y-66680800D02*
X53865714Y-66633180D01*
X53865714Y-66633180D02*
X53818095Y-66537942D01*
X53818095Y-66537942D02*
X53770476Y-66347466D01*
X53770476Y-66347466D02*
X53770476Y-66109371D01*
X53770476Y-66109371D02*
X53818095Y-65918895D01*
X53818095Y-65918895D02*
X53865714Y-65823657D01*
X53865714Y-65823657D02*
X53913333Y-65776038D01*
X53913333Y-65776038D02*
X54008571Y-65728419D01*
X79414476Y-25436819D02*
X79414476Y-26151104D01*
X79414476Y-26151104D02*
X79366857Y-26293961D01*
X79366857Y-26293961D02*
X79271619Y-26389200D01*
X79271619Y-26389200D02*
X79128762Y-26436819D01*
X79128762Y-26436819D02*
X79033524Y-26436819D01*
X80414476Y-26436819D02*
X79843048Y-26436819D01*
X80128762Y-26436819D02*
X80128762Y-25436819D01*
X80128762Y-25436819D02*
X80033524Y-25579676D01*
X80033524Y-25579676D02*
X79938286Y-25674914D01*
X79938286Y-25674914D02*
X79843048Y-25722533D01*
X80795429Y-25532057D02*
X80843048Y-25484438D01*
X80843048Y-25484438D02*
X80938286Y-25436819D01*
X80938286Y-25436819D02*
X81176381Y-25436819D01*
X81176381Y-25436819D02*
X81271619Y-25484438D01*
X81271619Y-25484438D02*
X81319238Y-25532057D01*
X81319238Y-25532057D02*
X81366857Y-25627295D01*
X81366857Y-25627295D02*
X81366857Y-25722533D01*
X81366857Y-25722533D02*
X81319238Y-25865390D01*
X81319238Y-25865390D02*
X80747810Y-26436819D01*
X80747810Y-26436819D02*
X81366857Y-26436819D01*
D12*
%TO.C,D1*%
X139735000Y-28960000D02*
X139735000Y-26500000D01*
X138265000Y-28960000D02*
X139735000Y-28960000D01*
X138265000Y-26500000D02*
X138265000Y-28960000D01*
%TO.C,R22*%
X139735000Y-23272936D02*
X139735000Y-23727064D01*
X138265000Y-23272936D02*
X138265000Y-23727064D01*
%TO.C,J8*%
X50236000Y-79865400D02*
X51186000Y-79865400D01*
X50236000Y-80815400D02*
X50236000Y-79865400D01*
X50606000Y-83785400D02*
X55586000Y-83785400D01*
X51186000Y-79865400D02*
X51186000Y-79175400D01*
X55956000Y-79865400D02*
X55006000Y-79865400D01*
X55956000Y-80815400D02*
X55956000Y-79865400D01*
%TO.C,C41*%
X79173152Y-62792000D02*
X78650648Y-62792000D01*
X79173152Y-61322000D02*
X78650648Y-61322000D01*
D11*
%TO.C,U16*%
X115646400Y-64580600D02*
X115646400Y-64330600D01*
X115646400Y-64580600D02*
X115396400Y-64580600D01*
X112496400Y-64580600D02*
X112496400Y-64330600D01*
X112496400Y-64580600D02*
X112746400Y-64580600D01*
X115646400Y-61430600D02*
X115396400Y-61180600D01*
X115646400Y-61180600D01*
X115646400Y-61430600D01*
G36*
X115646400Y-61430600D02*
G01*
X115396400Y-61180600D01*
X115646400Y-61180600D01*
X115646400Y-61430600D01*
G37*
D10*
%TO.C,U1*%
X67891700Y-35399600D02*
X67891700Y-35624600D01*
X67891700Y-35399600D02*
X71241700Y-35399600D01*
X67891700Y-35624600D02*
X66666700Y-35624600D01*
X67891700Y-38749600D02*
X67891700Y-38449600D01*
X67891700Y-38749600D02*
X71241700Y-38749600D01*
X71241700Y-35399600D02*
X71241700Y-35699600D01*
X71241700Y-38749600D02*
X71241700Y-38449600D01*
D12*
%TO.C,U15*%
X82687600Y-71536200D02*
X85612600Y-71536200D01*
X82687600Y-71536200D02*
X81187600Y-71536200D01*
X82687600Y-68316200D02*
X84187600Y-68316200D01*
X82687600Y-68316200D02*
X81187600Y-68316200D01*
%TO.C,J2*%
X38297400Y-42636800D02*
X38297400Y-43586800D01*
X37347400Y-42636800D02*
X38297400Y-42636800D01*
X34377400Y-43006800D02*
X34377400Y-46736800D01*
X38297400Y-43586800D02*
X38987400Y-43586800D01*
X38297400Y-47106800D02*
X38297400Y-46156800D01*
X37347400Y-47106800D02*
X38297400Y-47106800D01*
%TO.C,C38*%
X64040652Y-66856000D02*
X63518148Y-66856000D01*
X64040652Y-65386000D02*
X63518148Y-65386000D01*
%TO.C,J5*%
X49918400Y-36220600D02*
X49918400Y-37170600D01*
X48968400Y-36220600D02*
X49918400Y-36220600D01*
X45998400Y-36590600D02*
X45998400Y-40320600D01*
X49918400Y-37170600D02*
X50608400Y-37170600D01*
X49918400Y-40690600D02*
X49918400Y-39740600D01*
X48968400Y-40690600D02*
X49918400Y-40690600D01*
%TO.C,R21*%
X90545500Y-61307736D02*
X90545500Y-61761864D01*
X89075500Y-61307736D02*
X89075500Y-61761864D01*
%TO.C,C37*%
X64056252Y-57393000D02*
X63533748Y-57393000D01*
X64056252Y-55923000D02*
X63533748Y-55923000D01*
%TO.C,J13*%
X59970000Y-24092000D02*
X59020000Y-24092000D01*
X59970000Y-23142000D02*
X59970000Y-24092000D01*
X59600000Y-20172000D02*
X54620000Y-20172000D01*
X59020000Y-24092000D02*
X59020000Y-24782000D01*
X54250000Y-24092000D02*
X55200000Y-24092000D01*
X54250000Y-23142000D02*
X54250000Y-24092000D01*
%TO.C,J14*%
X133410000Y-61153000D02*
X133410000Y-60203000D01*
X134360000Y-61153000D02*
X133410000Y-61153000D01*
X137330000Y-60783000D02*
X137330000Y-54553000D01*
X133410000Y-60203000D02*
X132720000Y-60203000D01*
X133410000Y-54183000D02*
X133410000Y-55133000D01*
X134360000Y-54183000D02*
X133410000Y-54183000D01*
%TO.C,J3*%
X38339400Y-55082800D02*
X38339400Y-56032800D01*
X37389400Y-55082800D02*
X38339400Y-55082800D01*
X34419400Y-55452800D02*
X34419400Y-59182800D01*
X38339400Y-56032800D02*
X39029400Y-56032800D01*
X38339400Y-59552800D02*
X38339400Y-58602800D01*
X37389400Y-59552800D02*
X38339400Y-59552800D01*
D10*
%TO.C,U9*%
X83258700Y-39904800D02*
X83258700Y-40129800D01*
X83258700Y-39904800D02*
X86608700Y-39904800D01*
X83258700Y-40129800D02*
X82033700Y-40129800D01*
X83258700Y-43254800D02*
X83258700Y-42954800D01*
X83258700Y-43254800D02*
X86608700Y-43254800D01*
X86608700Y-39904800D02*
X86608700Y-40204800D01*
X86608700Y-43254800D02*
X86608700Y-42954800D01*
D12*
%TO.C,C10*%
X53233367Y-43004200D02*
X52940833Y-43004200D01*
X53233367Y-41984200D02*
X52940833Y-41984200D01*
%TO.C,C1*%
X41412633Y-28095800D02*
X41705167Y-28095800D01*
X41412633Y-29115800D02*
X41705167Y-29115800D01*
%TO.C,R16*%
X52848436Y-49176000D02*
X53302564Y-49176000D01*
X52848436Y-50646000D02*
X53302564Y-50646000D01*
%TO.C,C36*%
X64091452Y-47842600D02*
X63568948Y-47842600D01*
X64091452Y-46372600D02*
X63568948Y-46372600D01*
D10*
%TO.C,U3*%
X67850700Y-44908600D02*
X67850700Y-45133600D01*
X67850700Y-44908600D02*
X71200700Y-44908600D01*
X67850700Y-45133600D02*
X66625700Y-45133600D01*
X67850700Y-48258600D02*
X67850700Y-47958600D01*
X67850700Y-48258600D02*
X71200700Y-48258600D01*
X71200700Y-44908600D02*
X71200700Y-45208600D01*
X71200700Y-48258600D02*
X71200700Y-47958600D01*
D12*
%TO.C,R13*%
X52840136Y-36730000D02*
X53294264Y-36730000D01*
X52840136Y-38200000D02*
X53294264Y-38200000D01*
%TO.C,R25*%
X114820736Y-65363900D02*
X115274864Y-65363900D01*
X114820736Y-66833900D02*
X115274864Y-66833900D01*
%TO.C,R27*%
X109232800Y-59315564D02*
X109232800Y-58861436D01*
X110702800Y-59315564D02*
X110702800Y-58861436D01*
%TO.C,C3*%
X41410433Y-40653400D02*
X41702967Y-40653400D01*
X41410433Y-41673400D02*
X41702967Y-41673400D01*
%TO.C,J23*%
X41320000Y-77165000D02*
X41320000Y-78585000D01*
X35560000Y-77165000D02*
X41320000Y-77165000D01*
X34040000Y-77165000D02*
X33730000Y-77165000D01*
X33730000Y-77165000D02*
X33730000Y-84035000D01*
X41320000Y-78585000D02*
X40820000Y-78585000D01*
X40820000Y-78585000D02*
X40820000Y-82615000D01*
X41320000Y-82615000D02*
X41320000Y-84035000D01*
X40820000Y-82615000D02*
X41320000Y-82615000D01*
X41320000Y-84035000D02*
X35560000Y-84035000D01*
X33730000Y-84035000D02*
X34040000Y-84035000D01*
%TO.C,R3*%
X75041700Y-36863536D02*
X75041700Y-37317664D01*
X73571700Y-36863536D02*
X73571700Y-37317664D01*
%TO.C,C5*%
X41460033Y-53033200D02*
X41752567Y-53033200D01*
X41460033Y-54053200D02*
X41752567Y-54053200D01*
D10*
%TO.C,U5*%
X67815500Y-54459000D02*
X67815500Y-54684000D01*
X67815500Y-54459000D02*
X71165500Y-54459000D01*
X67815500Y-54684000D02*
X66590500Y-54684000D01*
X67815500Y-57809000D02*
X67815500Y-57509000D01*
X67815500Y-57809000D02*
X71165500Y-57809000D01*
X71165500Y-54459000D02*
X71165500Y-54759000D01*
X71165500Y-57809000D02*
X71165500Y-57509000D01*
D12*
%TO.C,C13*%
X53015933Y-59332400D02*
X53308467Y-59332400D01*
X53015933Y-60352400D02*
X53308467Y-60352400D01*
%TO.C,U17*%
X97931200Y-66324800D02*
X101381200Y-66324800D01*
X97931200Y-66324800D02*
X95981200Y-66324800D01*
X97931200Y-56204800D02*
X99881200Y-56204800D01*
X97931200Y-56204800D02*
X95981200Y-56204800D01*
%TO.C,R12*%
X75035900Y-65447936D02*
X75035900Y-65902064D01*
X73565900Y-65447936D02*
X73565900Y-65902064D01*
%TO.C,C23*%
X69704267Y-59708000D02*
X69411733Y-59708000D01*
X69704267Y-58688000D02*
X69411733Y-58688000D01*
%TO.C,C27*%
X85157267Y-65076800D02*
X84864733Y-65076800D01*
X85157267Y-64056800D02*
X84864733Y-64056800D01*
%TO.C,C6*%
X41776867Y-61952600D02*
X41484333Y-61952600D01*
X41776867Y-60932600D02*
X41484333Y-60932600D01*
%TO.C,C35*%
X64132452Y-38333600D02*
X63609948Y-38333600D01*
X64132452Y-36863600D02*
X63609948Y-36863600D01*
%TO.C,C25*%
X85079967Y-45137800D02*
X84787433Y-45137800D01*
X85079967Y-44117800D02*
X84787433Y-44117800D01*
%TO.C,J11*%
X106178000Y-24070000D02*
X105228000Y-24070000D01*
X106178000Y-23120000D02*
X106178000Y-24070000D01*
X105808000Y-20150000D02*
X100828000Y-20150000D01*
X105228000Y-24070000D02*
X105228000Y-24760000D01*
X100458000Y-24070000D02*
X101408000Y-24070000D01*
X100458000Y-23120000D02*
X100458000Y-24070000D01*
D10*
%TO.C,U13*%
X83309500Y-59843800D02*
X83309500Y-60068800D01*
X83309500Y-59843800D02*
X86659500Y-59843800D01*
X83309500Y-60068800D02*
X82084500Y-60068800D01*
X83309500Y-63193800D02*
X83309500Y-62893800D01*
X83309500Y-63193800D02*
X86659500Y-63193800D01*
X86659500Y-59843800D02*
X86659500Y-60143800D01*
X86659500Y-63193800D02*
X86659500Y-62893800D01*
D12*
%TO.C,R26*%
X107607200Y-63277964D02*
X107607200Y-62823836D01*
X109077200Y-63277964D02*
X109077200Y-62823836D01*
%TO.C,J4*%
X38419000Y-67620400D02*
X38419000Y-68570400D01*
X37469000Y-67620400D02*
X38419000Y-67620400D01*
X34499000Y-67990400D02*
X34499000Y-71720400D01*
X38419000Y-68570400D02*
X39109000Y-68570400D01*
X38419000Y-72090400D02*
X38419000Y-71140400D01*
X37469000Y-72090400D02*
X38419000Y-72090400D01*
%TO.C,J19*%
X72162000Y-24092000D02*
X71212000Y-24092000D01*
X72162000Y-23142000D02*
X72162000Y-24092000D01*
X71792000Y-20172000D02*
X65562000Y-20172000D01*
X71212000Y-24092000D02*
X71212000Y-24782000D01*
X65192000Y-24092000D02*
X66142000Y-24092000D01*
X65192000Y-23142000D02*
X65192000Y-24092000D01*
%TO.C,R6*%
X75086700Y-46372536D02*
X75086700Y-46826664D01*
X73616700Y-46372536D02*
X73616700Y-46826664D01*
%TO.C,R17*%
X52848436Y-51212000D02*
X53302564Y-51212000D01*
X52848436Y-52682000D02*
X53302564Y-52682000D01*
%TO.C,C24*%
X69621167Y-69217000D02*
X69328633Y-69217000D01*
X69621167Y-68197000D02*
X69328633Y-68197000D01*
%TO.C,C18*%
X110956400Y-63044767D02*
X110956400Y-62752233D01*
X111976400Y-63044767D02*
X111976400Y-62752233D01*
%TO.C,R4*%
X41219736Y-43197000D02*
X41673864Y-43197000D01*
X41219736Y-44667000D02*
X41673864Y-44667000D01*
%TO.C,C11*%
X52965133Y-46632400D02*
X53257667Y-46632400D01*
X52965133Y-47652400D02*
X53257667Y-47652400D01*
%TO.C,R1*%
X41254336Y-30638300D02*
X41708464Y-30638300D01*
X41254336Y-32108300D02*
X41708464Y-32108300D01*
%TO.C,C32*%
X78685848Y-39389000D02*
X79208352Y-39389000D01*
X78685848Y-40859000D02*
X79208352Y-40859000D01*
%TO.C,R18*%
X90504500Y-51282736D02*
X90504500Y-51736864D01*
X89034500Y-51282736D02*
X89034500Y-51736864D01*
%TO.C,C16*%
X118031448Y-61863400D02*
X118553952Y-61863400D01*
X118031448Y-63333400D02*
X118553952Y-63333400D01*
%TO.C,C33*%
X78736648Y-49303000D02*
X79259152Y-49303000D01*
X78736648Y-50773000D02*
X79259152Y-50773000D01*
%TO.C,J22*%
X133368000Y-70942000D02*
X133368000Y-69992000D01*
X134318000Y-70942000D02*
X133368000Y-70942000D01*
X137288000Y-70572000D02*
X137288000Y-66842000D01*
X133368000Y-69992000D02*
X132678000Y-69992000D01*
X133368000Y-66472000D02*
X133368000Y-67422000D01*
X134318000Y-66472000D02*
X133368000Y-66472000D01*
%TO.C,R5*%
X41219736Y-45203600D02*
X41673864Y-45203600D01*
X41219736Y-46673600D02*
X41673864Y-46673600D01*
%TO.C,C40*%
X79259152Y-52767000D02*
X78736648Y-52767000D01*
X79259152Y-51297000D02*
X78736648Y-51297000D01*
%TO.C,C28*%
X63609948Y-34831600D02*
X64132452Y-34831600D01*
X63609948Y-36301600D02*
X64132452Y-36301600D01*
%TO.C,C9*%
X53042433Y-34186400D02*
X53334967Y-34186400D01*
X53042433Y-35206400D02*
X53334967Y-35206400D01*
%TO.C,R2*%
X41254336Y-32670300D02*
X41708464Y-32670300D01*
X41254336Y-34140300D02*
X41708464Y-34140300D01*
%TO.C,C20*%
X103122000Y-57828567D02*
X103122000Y-57536033D01*
X104142000Y-57828567D02*
X104142000Y-57536033D01*
%TO.C,J9*%
X73340000Y-79774000D02*
X74290000Y-79774000D01*
X73340000Y-80724000D02*
X73340000Y-79774000D01*
X73710000Y-83694000D02*
X78690000Y-83694000D01*
X74290000Y-79774000D02*
X74290000Y-79084000D01*
X79060000Y-79774000D02*
X78110000Y-79774000D01*
X79060000Y-80724000D02*
X79060000Y-79774000D01*
%TO.C,J18*%
X116246000Y-79840000D02*
X117196000Y-79840000D01*
X116246000Y-80790000D02*
X116246000Y-79840000D01*
X116616000Y-83760000D02*
X122846000Y-83760000D01*
X117196000Y-79840000D02*
X117196000Y-79150000D01*
X123216000Y-79840000D02*
X122266000Y-79840000D01*
X123216000Y-80790000D02*
X123216000Y-79840000D01*
D10*
%TO.C,U7*%
X67799900Y-63984000D02*
X67799900Y-64209000D01*
X67799900Y-63984000D02*
X71149900Y-63984000D01*
X67799900Y-64209000D02*
X66574900Y-64209000D01*
X67799900Y-67334000D02*
X67799900Y-67034000D01*
X67799900Y-67334000D02*
X71149900Y-67334000D01*
X71149900Y-63984000D02*
X71149900Y-64284000D01*
X71149900Y-67334000D02*
X71149900Y-67034000D01*
D12*
%TO.C,C2*%
X41805667Y-36872800D02*
X41513133Y-36872800D01*
X41805667Y-35852800D02*
X41513133Y-35852800D01*
%TO.C,C14*%
X53283067Y-68226400D02*
X52990533Y-68226400D01*
X53283067Y-67206400D02*
X52990533Y-67206400D01*
%TO.C,C26*%
X85116267Y-55051800D02*
X84823733Y-55051800D01*
X85116267Y-54031800D02*
X84823733Y-54031800D01*
%TO.C,C19*%
X111264952Y-66833900D02*
X110742448Y-66833900D01*
X111264952Y-65363900D02*
X110742448Y-65363900D01*
%TO.C,R10*%
X41341336Y-68079000D02*
X41795464Y-68079000D01*
X41341336Y-69549000D02*
X41795464Y-69549000D01*
%TO.C,J17*%
X84399000Y-79774000D02*
X85349000Y-79774000D01*
X84399000Y-80724000D02*
X84399000Y-79774000D01*
X84769000Y-83694000D02*
X90999000Y-83694000D01*
X85349000Y-79774000D02*
X85349000Y-79084000D01*
X91369000Y-79774000D02*
X90419000Y-79774000D01*
X91369000Y-80724000D02*
X91369000Y-79774000D01*
%TO.C,R9*%
X74965500Y-55938936D02*
X74965500Y-56393064D01*
X73495500Y-55938936D02*
X73495500Y-56393064D01*
%TO.C,C39*%
X79208352Y-42853000D02*
X78685848Y-42853000D01*
X79208352Y-41383000D02*
X78685848Y-41383000D01*
%TO.C,C7*%
X41610433Y-65535400D02*
X41902967Y-65535400D01*
X41610433Y-66555400D02*
X41902967Y-66555400D01*
%TO.C,J10*%
X105304000Y-79840000D02*
X106254000Y-79840000D01*
X105304000Y-80790000D02*
X105304000Y-79840000D01*
X105674000Y-83760000D02*
X110654000Y-83760000D01*
X106254000Y-79840000D02*
X106254000Y-79150000D01*
X111024000Y-79840000D02*
X110074000Y-79840000D01*
X111024000Y-80790000D02*
X111024000Y-79840000D01*
%TO.C,C30*%
X63533748Y-53891000D02*
X64056252Y-53891000D01*
X63533748Y-55361000D02*
X64056252Y-55361000D01*
%TO.C,C22*%
X69739467Y-50141600D02*
X69446933Y-50141600D01*
X69739467Y-49121600D02*
X69446933Y-49121600D01*
%TO.C,C34*%
X78650648Y-59290000D02*
X79173152Y-59290000D01*
X78650648Y-60760000D02*
X79173152Y-60760000D01*
%TO.C,C12*%
X53308467Y-55475600D02*
X53015933Y-55475600D01*
X53308467Y-54455600D02*
X53015933Y-54455600D01*
%TO.C,R7*%
X41244536Y-55576800D02*
X41698664Y-55576800D01*
X41244536Y-57046800D02*
X41698664Y-57046800D01*
%TO.C,C8*%
X41852167Y-74429400D02*
X41559633Y-74429400D01*
X41852167Y-73409400D02*
X41559633Y-73409400D01*
%TO.C,J21*%
X118233000Y-24070000D02*
X117283000Y-24070000D01*
X118233000Y-23120000D02*
X118233000Y-24070000D01*
X117863000Y-20150000D02*
X111633000Y-20150000D01*
X117283000Y-24070000D02*
X117283000Y-24760000D01*
X111263000Y-24070000D02*
X112213000Y-24070000D01*
X111263000Y-23120000D02*
X111263000Y-24070000D01*
%TO.C,C15*%
X77069833Y-68740200D02*
X77362367Y-68740200D01*
X77069833Y-69760200D02*
X77362367Y-69760200D01*
%TO.C,R15*%
X90494700Y-41368736D02*
X90494700Y-41822864D01*
X89024700Y-41368736D02*
X89024700Y-41822864D01*
%TO.C,J16*%
X61178000Y-79840000D02*
X62128000Y-79840000D01*
X61178000Y-80790000D02*
X61178000Y-79840000D01*
X61548000Y-83760000D02*
X67778000Y-83760000D01*
X62128000Y-79840000D02*
X62128000Y-79150000D01*
X68148000Y-79840000D02*
X67198000Y-79840000D01*
X68148000Y-80790000D02*
X68148000Y-79840000D01*
%TO.C,C17*%
X112658200Y-59412567D02*
X112658200Y-59120033D01*
X113678200Y-59412567D02*
X113678200Y-59120033D01*
%TO.C,C21*%
X69780467Y-40616600D02*
X69487933Y-40616600D01*
X69780467Y-39596600D02*
X69487933Y-39596600D01*
%TO.C,R14*%
X52849536Y-38736600D02*
X53303664Y-38736600D01*
X52849536Y-40206600D02*
X53303664Y-40206600D01*
%TO.C,R19*%
X52823036Y-61876000D02*
X53277164Y-61876000D01*
X52823036Y-63346000D02*
X53277164Y-63346000D01*
%TO.C,R8*%
X41251136Y-57634200D02*
X41705264Y-57634200D01*
X41251136Y-59104200D02*
X41705264Y-59104200D01*
%TO.C,C31*%
X63518148Y-63392000D02*
X64040652Y-63392000D01*
X63518148Y-64862000D02*
X64040652Y-64862000D01*
%TO.C,R11*%
X41341336Y-70111000D02*
X41795464Y-70111000D01*
X41341336Y-71581000D02*
X41795464Y-71581000D01*
D10*
%TO.C,U11*%
X83309500Y-49810800D02*
X83309500Y-50035800D01*
X83309500Y-49810800D02*
X86659500Y-49810800D01*
X83309500Y-50035800D02*
X82084500Y-50035800D01*
X83309500Y-53160800D02*
X83309500Y-52860800D01*
X83309500Y-53160800D02*
X86659500Y-53160800D01*
X86659500Y-49810800D02*
X86659500Y-50110800D01*
X86659500Y-53160800D02*
X86659500Y-52860800D01*
D12*
%TO.C,J7*%
X49918400Y-61366600D02*
X49918400Y-62316600D01*
X48968400Y-61366600D02*
X49918400Y-61366600D01*
X45998400Y-61736600D02*
X45998400Y-65466600D01*
X49918400Y-62316600D02*
X50608400Y-62316600D01*
X49918400Y-65836600D02*
X49918400Y-64886600D01*
X48968400Y-65836600D02*
X49918400Y-65836600D01*
%TO.C,J1*%
X38317400Y-30053800D02*
X38317400Y-31003800D01*
X37367400Y-30053800D02*
X38317400Y-30053800D01*
X34397400Y-30423800D02*
X34397400Y-34153800D01*
X38317400Y-31003800D02*
X39007400Y-31003800D01*
X38317400Y-34523800D02*
X38317400Y-33573800D01*
X37367400Y-34523800D02*
X38317400Y-34523800D01*
%TO.C,J15*%
X133344000Y-48854000D02*
X133344000Y-47904000D01*
X134294000Y-48854000D02*
X133344000Y-48854000D01*
X137264000Y-48484000D02*
X137264000Y-42254000D01*
X133344000Y-47904000D02*
X132654000Y-47904000D01*
X133344000Y-41884000D02*
X133344000Y-42834000D01*
X134294000Y-41884000D02*
X133344000Y-41884000D01*
%TO.C,C29*%
X63568948Y-44412600D02*
X64091452Y-44412600D01*
X63568948Y-45882600D02*
X64091452Y-45882600D01*
%TO.C,C4*%
X41755967Y-49471200D02*
X41463433Y-49471200D01*
X41755967Y-48451200D02*
X41463433Y-48451200D01*
%TO.C,J20*%
X95276000Y-24092000D02*
X94326000Y-24092000D01*
X95276000Y-23142000D02*
X95276000Y-24092000D01*
X94906000Y-20172000D02*
X88676000Y-20172000D01*
X94326000Y-24092000D02*
X94326000Y-24782000D01*
X88306000Y-24092000D02*
X89256000Y-24092000D01*
X88306000Y-23142000D02*
X88306000Y-24092000D01*
%TO.C,J6*%
X49918400Y-48666600D02*
X49918400Y-49616600D01*
X48968400Y-48666600D02*
X49918400Y-48666600D01*
X45998400Y-49036600D02*
X45998400Y-52766600D01*
X49918400Y-49616600D02*
X50608400Y-49616600D01*
X49918400Y-53136600D02*
X49918400Y-52186600D01*
X48968400Y-53136600D02*
X49918400Y-53136600D01*
%TO.C,R24*%
X88502664Y-70493200D02*
X88048536Y-70493200D01*
X88502664Y-69023200D02*
X88048536Y-69023200D01*
%TO.C,R20*%
X52823036Y-63882600D02*
X53277164Y-63882600D01*
X52823036Y-65352600D02*
X53277164Y-65352600D01*
%TO.C,J12*%
X83084000Y-24092000D02*
X82134000Y-24092000D01*
X83084000Y-23142000D02*
X83084000Y-24092000D01*
X82714000Y-20172000D02*
X77734000Y-20172000D01*
X82134000Y-24092000D02*
X82134000Y-24782000D01*
X77364000Y-24092000D02*
X78314000Y-24092000D01*
X77364000Y-23142000D02*
X77364000Y-24092000D01*
%TD*%
%LPC*%
D13*
%TO.C,D1*%
X139000000Y-28175000D03*
X139000000Y-26425000D03*
%TD*%
D14*
%TO.C,R22*%
X139000000Y-22500000D03*
X139000000Y-24500000D03*
%TD*%
D15*
%TO.C,J8*%
X51846000Y-79825400D03*
X53096000Y-79825400D03*
X54346000Y-79825400D03*
D16*
X49296000Y-82575400D03*
X56896000Y-82575400D03*
%TD*%
D17*
%TO.C,C41*%
X79949400Y-62057000D03*
X77874400Y-62057000D03*
%TD*%
D18*
%TO.C,U16*%
X114821400Y-61533100D03*
D19*
X114321400Y-61480600D03*
X113826400Y-61480600D03*
D20*
X113326400Y-61533100D03*
D21*
X112851400Y-62253100D03*
D22*
X113371400Y-63508100D03*
D23*
X114071400Y-63855600D03*
D24*
X114776400Y-63508100D03*
D21*
X115296400Y-62253100D03*
%TD*%
D25*
%TO.C,U1*%
X67366700Y-36074600D03*
X67366700Y-36574600D03*
X67366700Y-37074600D03*
X67366700Y-37574600D03*
X67366700Y-38074600D03*
X71766700Y-38074600D03*
X71766700Y-37574600D03*
X71766700Y-37074600D03*
X71766700Y-36574600D03*
X71766700Y-36074600D03*
%TD*%
D26*
%TO.C,U15*%
X84887600Y-70926200D03*
X84887600Y-70426200D03*
X84887600Y-69926200D03*
X84887600Y-69426200D03*
X84887600Y-68926200D03*
X80487600Y-68926200D03*
X80487600Y-69426200D03*
X80487600Y-69926200D03*
X80487600Y-70426200D03*
X80487600Y-70926200D03*
%TD*%
D27*
%TO.C,J2*%
X38337400Y-44246800D03*
X38337400Y-45496800D03*
D28*
X35587400Y-41696800D03*
X35587400Y-48046800D03*
%TD*%
D17*
%TO.C,C38*%
X64816900Y-66121000D03*
X62741900Y-66121000D03*
%TD*%
D27*
%TO.C,J5*%
X49958400Y-37830600D03*
X49958400Y-39080600D03*
D28*
X47208400Y-35280600D03*
X47208400Y-41630600D03*
%TD*%
D14*
%TO.C,R21*%
X89810500Y-60534800D03*
X89810500Y-62534800D03*
%TD*%
D17*
%TO.C,C37*%
X64832500Y-56658000D03*
X62757500Y-56658000D03*
%TD*%
D29*
%TO.C,J13*%
X58360000Y-24132000D03*
X57110000Y-24132000D03*
X55860000Y-24132000D03*
D30*
X60910000Y-21382000D03*
X53310000Y-21382000D03*
%TD*%
D31*
%TO.C,J14*%
X133370000Y-59543000D03*
X133370000Y-58293000D03*
X133370000Y-57043000D03*
X133370000Y-55793000D03*
D32*
X136120000Y-62093000D03*
X136120000Y-53243000D03*
%TD*%
D27*
%TO.C,J3*%
X38379400Y-56692800D03*
X38379400Y-57942800D03*
D28*
X35629400Y-54142800D03*
X35629400Y-60492800D03*
%TD*%
D25*
%TO.C,U9*%
X82733700Y-40579800D03*
X82733700Y-41079800D03*
X82733700Y-41579800D03*
X82733700Y-42079800D03*
X82733700Y-42579800D03*
X87133700Y-42579800D03*
X87133700Y-42079800D03*
X87133700Y-41579800D03*
X87133700Y-41079800D03*
X87133700Y-40579800D03*
%TD*%
D33*
%TO.C,C10*%
X53949600Y-42494200D03*
X52224600Y-42494200D03*
%TD*%
D34*
%TO.C,C1*%
X40696400Y-28605800D03*
X42421400Y-28605800D03*
%TD*%
D35*
%TO.C,R16*%
X52075500Y-49911000D03*
X54075500Y-49911000D03*
%TD*%
D17*
%TO.C,C36*%
X64867700Y-47107600D03*
X62792700Y-47107600D03*
%TD*%
D25*
%TO.C,U3*%
X67325700Y-45583600D03*
X67325700Y-46083600D03*
X67325700Y-46583600D03*
X67325700Y-47083600D03*
X67325700Y-47583600D03*
X71725700Y-47583600D03*
X71725700Y-47083600D03*
X71725700Y-46583600D03*
X71725700Y-46083600D03*
X71725700Y-45583600D03*
%TD*%
D35*
%TO.C,R13*%
X52067200Y-37465000D03*
X54067200Y-37465000D03*
%TD*%
%TO.C,R25*%
X114047800Y-66098900D03*
X116047800Y-66098900D03*
%TD*%
D36*
%TO.C,A1*%
X46990000Y-76200000D03*
X48260000Y-27940000D03*
D37*
X60960000Y-76200000D03*
D36*
X99060000Y-43180000D03*
X99060000Y-71120000D03*
X123190000Y-27940000D03*
X129540000Y-76200000D03*
D37*
X68580000Y-76200000D03*
X71120000Y-76200000D03*
X99187000Y-48260000D03*
X127000000Y-27940000D03*
X129540000Y-27940000D03*
X83820000Y-76200000D03*
X86360000Y-76200000D03*
X88900000Y-76200000D03*
X91440000Y-76200000D03*
X93980000Y-76200000D03*
X96520000Y-76200000D03*
X99060000Y-76200000D03*
X101600000Y-76200000D03*
X106680000Y-76200000D03*
X109220000Y-76200000D03*
X111760000Y-76200000D03*
X114300000Y-76200000D03*
X116840000Y-76200000D03*
X119380000Y-76200000D03*
X121920000Y-76200000D03*
X124460000Y-76200000D03*
X56896000Y-27940000D03*
X96520000Y-27940000D03*
X93980000Y-27940000D03*
X91440000Y-27940000D03*
X88900000Y-27940000D03*
X86360000Y-27940000D03*
X83820000Y-27940000D03*
X81280000Y-27940000D03*
X78740000Y-27940000D03*
X74676000Y-27940000D03*
X72136000Y-27940000D03*
X69596000Y-27940000D03*
X67056000Y-27940000D03*
X64516000Y-27940000D03*
X61976000Y-27940000D03*
X101600000Y-27940000D03*
X104140000Y-27940000D03*
X106680000Y-27940000D03*
X109220000Y-27940000D03*
X111760000Y-27940000D03*
X114300000Y-27940000D03*
X116840000Y-27940000D03*
X119380000Y-27940000D03*
X127000000Y-30480000D03*
X129540000Y-30480000D03*
X127000000Y-33020000D03*
X129540000Y-33020000D03*
X127000000Y-35560000D03*
X129540000Y-35560000D03*
X127000000Y-38100000D03*
X129540000Y-38100000D03*
X127000000Y-40640000D03*
X129540000Y-40640000D03*
X127000000Y-43180000D03*
X129540000Y-43180000D03*
X127000000Y-45720000D03*
X129540000Y-45720000D03*
X127000000Y-48260000D03*
X129540000Y-48260000D03*
X127000000Y-50800000D03*
X129540000Y-50800000D03*
X127000000Y-53340000D03*
X129540000Y-53340000D03*
X127000000Y-55880000D03*
X129540000Y-55880000D03*
X127000000Y-58420000D03*
X129540000Y-58420000D03*
X127000000Y-60960000D03*
X129540000Y-60960000D03*
X127000000Y-63500000D03*
X129540000Y-63500000D03*
X127000000Y-66040000D03*
X129540000Y-66040000D03*
X127000000Y-68580000D03*
X129540000Y-68580000D03*
D38*
X59436000Y-27940000D03*
X73660000Y-76200000D03*
X76200000Y-76200000D03*
X99187000Y-53340000D03*
X127000000Y-71120000D03*
X129540000Y-71120000D03*
D37*
X63500000Y-76200000D03*
X96647000Y-48260000D03*
X99187000Y-50800000D03*
X66040000Y-76200000D03*
X96647000Y-53340000D03*
X96647000Y-50800000D03*
X51816000Y-27940000D03*
X54356000Y-27940000D03*
X78740000Y-76200000D03*
%TD*%
D39*
%TO.C,R27*%
X109967800Y-60088500D03*
X109967800Y-58088500D03*
%TD*%
D34*
%TO.C,C3*%
X40694200Y-41163400D03*
X42419200Y-41163400D03*
%TD*%
D40*
%TO.C,J23*%
X34800000Y-77600000D03*
X34800000Y-83600000D03*
D41*
X38740000Y-80600000D03*
D42*
X35740000Y-80600000D03*
%TD*%
D14*
%TO.C,R3*%
X74306700Y-36090600D03*
X74306700Y-38090600D03*
%TD*%
D34*
%TO.C,C5*%
X40743800Y-53543200D03*
X42468800Y-53543200D03*
%TD*%
D25*
%TO.C,U5*%
X67290500Y-55134000D03*
X67290500Y-55634000D03*
X67290500Y-56134000D03*
X67290500Y-56634000D03*
X67290500Y-57134000D03*
X71690500Y-57134000D03*
X71690500Y-56634000D03*
X71690500Y-56134000D03*
X71690500Y-55634000D03*
X71690500Y-55134000D03*
%TD*%
D34*
%TO.C,C13*%
X52299700Y-59842400D03*
X54024700Y-59842400D03*
%TD*%
D43*
%TO.C,U17*%
X100406200Y-65709800D03*
X100406200Y-64439800D03*
X100406200Y-63169800D03*
X100406200Y-61899800D03*
X100406200Y-60629800D03*
X100406200Y-59359800D03*
X100406200Y-58089800D03*
X100406200Y-56819800D03*
X95456200Y-56819800D03*
X95456200Y-58089800D03*
X95456200Y-59359800D03*
X95456200Y-60629800D03*
X95456200Y-61899800D03*
X95456200Y-63169800D03*
X95456200Y-64439800D03*
X95456200Y-65709800D03*
%TD*%
D14*
%TO.C,R12*%
X74300900Y-64675000D03*
X74300900Y-66675000D03*
%TD*%
D33*
%TO.C,C23*%
X70420500Y-59198000D03*
X68695500Y-59198000D03*
%TD*%
%TO.C,C27*%
X85873500Y-64566800D03*
X84148500Y-64566800D03*
%TD*%
%TO.C,C6*%
X42493100Y-61442600D03*
X40768100Y-61442600D03*
%TD*%
D17*
%TO.C,C35*%
X64908700Y-37598600D03*
X62833700Y-37598600D03*
%TD*%
D33*
%TO.C,C25*%
X85796200Y-44627800D03*
X84071200Y-44627800D03*
%TD*%
D29*
%TO.C,J11*%
X104568000Y-24110000D03*
X103318000Y-24110000D03*
X102068000Y-24110000D03*
D30*
X107118000Y-21360000D03*
X99518000Y-21360000D03*
%TD*%
D25*
%TO.C,U13*%
X82784500Y-60518800D03*
X82784500Y-61018800D03*
X82784500Y-61518800D03*
X82784500Y-62018800D03*
X82784500Y-62518800D03*
X87184500Y-62518800D03*
X87184500Y-62018800D03*
X87184500Y-61518800D03*
X87184500Y-61018800D03*
X87184500Y-60518800D03*
%TD*%
D39*
%TO.C,R26*%
X108342200Y-64050900D03*
X108342200Y-62050900D03*
%TD*%
D27*
%TO.C,J4*%
X38459000Y-69230400D03*
X38459000Y-70480400D03*
D28*
X35709000Y-66680400D03*
X35709000Y-73030400D03*
%TD*%
D29*
%TO.C,J19*%
X70552000Y-24132000D03*
X69302000Y-24132000D03*
X68052000Y-24132000D03*
X66802000Y-24132000D03*
D30*
X73102000Y-21382000D03*
X64252000Y-21382000D03*
%TD*%
D14*
%TO.C,R6*%
X74351700Y-45599600D03*
X74351700Y-47599600D03*
%TD*%
D35*
%TO.C,R17*%
X52075500Y-51947000D03*
X54075500Y-51947000D03*
%TD*%
D33*
%TO.C,C24*%
X70337400Y-68707000D03*
X68612400Y-68707000D03*
%TD*%
D44*
%TO.C,C18*%
X111466400Y-63761000D03*
X111466400Y-62036000D03*
%TD*%
D35*
%TO.C,R4*%
X40446800Y-43932000D03*
X42446800Y-43932000D03*
%TD*%
D34*
%TO.C,C11*%
X52248900Y-47142400D03*
X53973900Y-47142400D03*
%TD*%
D35*
%TO.C,R1*%
X40481400Y-31373300D03*
X42481400Y-31373300D03*
%TD*%
D45*
%TO.C,C32*%
X77909600Y-40124000D03*
X79984600Y-40124000D03*
%TD*%
D14*
%TO.C,R18*%
X89769500Y-50509800D03*
X89769500Y-52509800D03*
%TD*%
D45*
%TO.C,C16*%
X117255200Y-62598400D03*
X119330200Y-62598400D03*
%TD*%
%TO.C,C33*%
X77960400Y-50038000D03*
X80035400Y-50038000D03*
%TD*%
D31*
%TO.C,J22*%
X133328000Y-69332000D03*
X133328000Y-68082000D03*
D32*
X136078000Y-71882000D03*
X136078000Y-65532000D03*
%TD*%
D35*
%TO.C,R5*%
X40446800Y-45938600D03*
X42446800Y-45938600D03*
%TD*%
D17*
%TO.C,C40*%
X80035400Y-52032000D03*
X77960400Y-52032000D03*
%TD*%
D45*
%TO.C,C28*%
X62833700Y-35566600D03*
X64908700Y-35566600D03*
%TD*%
D34*
%TO.C,C9*%
X52326200Y-34696400D03*
X54051200Y-34696400D03*
%TD*%
D35*
%TO.C,R2*%
X40481400Y-33405300D03*
X42481400Y-33405300D03*
%TD*%
D44*
%TO.C,C20*%
X103632000Y-58544800D03*
X103632000Y-56819800D03*
%TD*%
D15*
%TO.C,J9*%
X74950000Y-79734000D03*
X76200000Y-79734000D03*
X77450000Y-79734000D03*
D16*
X72400000Y-82484000D03*
X80000000Y-82484000D03*
%TD*%
D15*
%TO.C,J18*%
X117856000Y-79800000D03*
X119106000Y-79800000D03*
X120356000Y-79800000D03*
X121606000Y-79800000D03*
D16*
X115306000Y-82550000D03*
X124156000Y-82550000D03*
%TD*%
D25*
%TO.C,U7*%
X67274900Y-64659000D03*
X67274900Y-65159000D03*
X67274900Y-65659000D03*
X67274900Y-66159000D03*
X67274900Y-66659000D03*
X71674900Y-66659000D03*
X71674900Y-66159000D03*
X71674900Y-65659000D03*
X71674900Y-65159000D03*
X71674900Y-64659000D03*
%TD*%
D33*
%TO.C,C2*%
X42521900Y-36362800D03*
X40796900Y-36362800D03*
%TD*%
%TO.C,C14*%
X53999300Y-67716400D03*
X52274300Y-67716400D03*
%TD*%
%TO.C,C26*%
X85832500Y-54541800D03*
X84107500Y-54541800D03*
%TD*%
D17*
%TO.C,C19*%
X112041200Y-66098900D03*
X109966200Y-66098900D03*
%TD*%
D35*
%TO.C,R10*%
X40568400Y-68814000D03*
X42568400Y-68814000D03*
%TD*%
D15*
%TO.C,J17*%
X86009000Y-79734000D03*
X87259000Y-79734000D03*
X88509000Y-79734000D03*
X89759000Y-79734000D03*
D16*
X83459000Y-82484000D03*
X92309000Y-82484000D03*
%TD*%
D14*
%TO.C,R9*%
X74230500Y-55166000D03*
X74230500Y-57166000D03*
%TD*%
D17*
%TO.C,C39*%
X79984600Y-42118000D03*
X77909600Y-42118000D03*
%TD*%
D34*
%TO.C,C7*%
X40894200Y-66045400D03*
X42619200Y-66045400D03*
%TD*%
D15*
%TO.C,J10*%
X106914000Y-79800000D03*
X108164000Y-79800000D03*
X109414000Y-79800000D03*
D16*
X104364000Y-82550000D03*
X111964000Y-82550000D03*
%TD*%
D45*
%TO.C,C30*%
X62757500Y-54626000D03*
X64832500Y-54626000D03*
%TD*%
D33*
%TO.C,C22*%
X70455700Y-49631600D03*
X68730700Y-49631600D03*
%TD*%
D45*
%TO.C,C34*%
X77874400Y-60025000D03*
X79949400Y-60025000D03*
%TD*%
D33*
%TO.C,C12*%
X54024700Y-54965600D03*
X52299700Y-54965600D03*
%TD*%
D35*
%TO.C,R7*%
X40471600Y-56311800D03*
X42471600Y-56311800D03*
%TD*%
D33*
%TO.C,C8*%
X42568400Y-73919400D03*
X40843400Y-73919400D03*
%TD*%
D29*
%TO.C,J21*%
X116623000Y-24110000D03*
X115373000Y-24110000D03*
X114123000Y-24110000D03*
X112873000Y-24110000D03*
D30*
X119173000Y-21360000D03*
X110323000Y-21360000D03*
%TD*%
D34*
%TO.C,C15*%
X76353600Y-69250200D03*
X78078600Y-69250200D03*
%TD*%
D14*
%TO.C,R15*%
X89759700Y-40595800D03*
X89759700Y-42595800D03*
%TD*%
D15*
%TO.C,J16*%
X62788000Y-79800000D03*
X64038000Y-79800000D03*
X65288000Y-79800000D03*
X66538000Y-79800000D03*
D16*
X60238000Y-82550000D03*
X69088000Y-82550000D03*
%TD*%
D44*
%TO.C,C17*%
X113168200Y-60128800D03*
X113168200Y-58403800D03*
%TD*%
D33*
%TO.C,C21*%
X70496700Y-40106600D03*
X68771700Y-40106600D03*
%TD*%
D35*
%TO.C,R14*%
X52076600Y-39471600D03*
X54076600Y-39471600D03*
%TD*%
%TO.C,R19*%
X52050100Y-62611000D03*
X54050100Y-62611000D03*
%TD*%
%TO.C,R8*%
X40478200Y-58369200D03*
X42478200Y-58369200D03*
%TD*%
D45*
%TO.C,C31*%
X62741900Y-64127000D03*
X64816900Y-64127000D03*
%TD*%
D35*
%TO.C,R11*%
X40568400Y-70846000D03*
X42568400Y-70846000D03*
%TD*%
D25*
%TO.C,U11*%
X82784500Y-50485800D03*
X82784500Y-50985800D03*
X82784500Y-51485800D03*
X82784500Y-51985800D03*
X82784500Y-52485800D03*
X87184500Y-52485800D03*
X87184500Y-51985800D03*
X87184500Y-51485800D03*
X87184500Y-50985800D03*
X87184500Y-50485800D03*
%TD*%
D27*
%TO.C,J7*%
X49958400Y-62976600D03*
X49958400Y-64226600D03*
D28*
X47208400Y-60426600D03*
X47208400Y-66776600D03*
%TD*%
D27*
%TO.C,J1*%
X38357400Y-31663800D03*
X38357400Y-32913800D03*
D28*
X35607400Y-29113800D03*
X35607400Y-35463800D03*
%TD*%
D31*
%TO.C,J15*%
X133304000Y-47244000D03*
X133304000Y-45994000D03*
X133304000Y-44744000D03*
X133304000Y-43494000D03*
D32*
X136054000Y-49794000D03*
X136054000Y-40944000D03*
%TD*%
D45*
%TO.C,C29*%
X62792700Y-45147600D03*
X64867700Y-45147600D03*
%TD*%
D33*
%TO.C,C4*%
X42472200Y-48961200D03*
X40747200Y-48961200D03*
%TD*%
D29*
%TO.C,J20*%
X93666000Y-24132000D03*
X92416000Y-24132000D03*
X91166000Y-24132000D03*
X89916000Y-24132000D03*
D30*
X96216000Y-21382000D03*
X87366000Y-21382000D03*
%TD*%
D27*
%TO.C,J6*%
X49958400Y-50276600D03*
X49958400Y-51526600D03*
D28*
X47208400Y-47726600D03*
X47208400Y-54076600D03*
%TD*%
D46*
%TO.C,R24*%
X89275600Y-69758200D03*
X87275600Y-69758200D03*
%TD*%
D35*
%TO.C,R20*%
X52050100Y-64617600D03*
X54050100Y-64617600D03*
%TD*%
D29*
%TO.C,J12*%
X81474000Y-24132000D03*
X80224000Y-24132000D03*
X78974000Y-24132000D03*
D30*
X84024000Y-21382000D03*
X76424000Y-21382000D03*
%TD*%
%LPD*%
M02*
